<?xml version="1.0" encoding="UTF-8"?>
<!DOCTYPE svg PUBLIC "-//W3C//DTD SVG 1.1//EN" "http://www.w3.org/Graphics/SVG/1.1/DTD/svg11.dtd">
<!-- Creator: CorelDRAW 2021 (64 Bit) -->
<svg xmlns="http://www.w3.org/2000/svg" xml:space="preserve" width="6249px" height="3041px" version="1.1" style="shape-rendering:geometricPrecision; text-rendering:geometricPrecision; image-rendering:optimizeQuality; fill-rule:evenodd; clip-rule:evenodd"
viewBox="0 0 6249 3041.46"
 xmlns:xlink="http://www.w3.org/1999/xlink"
 xmlns:xodm="http://www.corel.com/coreldraw/odm/2003">
 <defs>
  <style type="text/css">
   <![CDATA[
    .str0 {stroke:#EBB223;stroke-width:8.33;stroke-miterlimit:22.9256}
    .str1 {stroke:#373435;stroke-width:2.36;stroke-miterlimit:22.9256}
    .fil4 {fill:none}
    .fil2 {fill:#FEFEFE}
    .fil3 {fill:#373435}
    .fil5 {fill:#ED3237}
    .fil1 {fill:#EBB223}
    .fil0 {fill:#EBB223;fill-rule:nonzero}
   ]]>
  </style>
   <clipPath id="id0">
    <path d="M3339.15 1162.09c-10.1,-14.37 -19.26,-30.78 -25.57,-49.26 -6.32,-18.47 -9.79,-38.99 -10.74,-58.56 -0.94,-19.58 0.64,-38.21 6.63,-52.57 6,-14.37 16.42,-24.47 28.74,-30.63 12.31,-6.16 26.52,-8.37 40.25,-7.42 13.74,0.95 27,5.05 40.44,10.42 13.44,5.37 27.05,12 38.89,19.74 11.84,7.73 21.9,16.57 32.62,27.3 10.72,10.74 22.08,23.37 31.71,35.84 9.63,12.47 17.53,24.78 24.31,39.31 6.79,14.52 12.48,31.26 15.79,47.36 3.32,16.1 4.26,31.57 1.89,45.94 -2.36,14.36 -8.05,27.63 -15.31,36.62 -7.26,9 -16.1,13.74 -24.63,17.53 -8.52,3.79 -16.73,6.63 -27.44,7.57 -10.72,0.95 -23.94,0 -37.99,-3.15 -14.05,-3.16 -28.93,-8.53 -43.63,-16.74 -14.7,-8.21 -29.23,-19.26 -42.01,-30.94 -12.79,-11.68 -23.84,-23.99 -33.95,-38.36z"/>
   </clipPath>
   <clipPath id="id1">
    <path d="M3177.33 1264.87c-10.1,-14.36 -19.26,-30.78 -25.57,-49.25 -6.32,-18.47 -9.79,-38.99 -10.74,-58.57 -0.94,-19.57 0.64,-38.2 6.63,-52.57 6,-14.37 16.42,-24.47 28.73,-30.62 12.32,-6.16 26.53,-8.37 40.26,-7.42 13.74,0.94 27,5.05 40.44,10.41 13.44,5.37 27.05,12 38.89,19.74 11.84,7.74 21.9,16.57 32.62,27.31 10.72,10.73 22.08,23.36 31.71,35.84 9.63,12.47 17.53,24.78 24.31,39.3 6.79,14.53 12.48,31.26 15.79,47.36 3.32,16.11 4.26,31.58 1.89,45.94 -2.36,14.37 -8.05,27.63 -15.31,36.63 -7.26,9 -16.1,13.73 -24.62,17.52 -8.53,3.79 -16.74,6.64 -27.45,7.58 -10.72,0.95 -23.94,0 -37.99,-3.16 -14.05,-3.16 -28.93,-8.52 -43.63,-16.73 -14.7,-8.21 -29.23,-19.26 -42.02,-30.94 -12.78,-11.68 -23.83,-24 -33.94,-38.37z"/>
   </clipPath>
   <clipPath id="id2">
    <path d="M3512.13 1722.87c-4.27,-8.33 -11.22,-21 -18.71,-33.82 -7.49,-12.8 -15.5,-25.75 -24.5,-35.9 -9,-10.16 -18.97,-17.52 -31.19,-22.41 -12.22,-4.88 -26.69,-7.29 -37.7,-8.74 -11,-1.46 -18.54,-1.97 -25.14,-1.82 -6.59,0.16 -12.24,0.98 -14.63,3.97 -2.39,2.99 -1.53,8.17 -0.19,19.58 1.34,11.41 3.15,29.05 6.58,45.84 3.43,16.79 8.48,32.73 15.66,44.73 7.19,12 16.53,20.08 28,24.8 11.47,4.72 25.07,6.08 41.12,3.4 16.05,-2.69 34.54,-9.42 46.3,-13.99 11.76,-4.57 16.79,-6.98 18.51,-10.17 1.73,-3.19 0.16,-7.15 -4.11,-15.47z"/>
   </clipPath>
 </defs>
 <g id="Camada_x0020_1">
  <metadata id="CorelCorpID_0Corel-Layer"/>
  <g id="_1945153447504">
   <path class="fil0" d="M306.44 2222.21c6.24,17.6 17.6,33.78 34.06,48.54 16.47,14.76 34.64,29.39 54.51,43.86 19.87,14.48 39.89,29.53 60.04,45.14 20.16,15.62 36.91,33.22 50.25,52.81 13.35,19.59 21.58,41.87 24.7,66.85 3.13,24.99 -2.41,53.66 -16.6,86.02 -11.36,25.55 -26.83,46.7 -46.42,63.45 -19.59,16.75 -41.17,29.39 -64.73,37.9 -23.56,8.52 -48.26,13.06 -74.1,13.63 -25.83,0.57 -50.39,-2.41 -73.67,-8.94 -23.28,-6.53 -44.43,-16.61 -63.45,-30.24 -19.02,-13.62 -33.64,-30.37 -43.86,-50.25 -10.22,-19.87 -15.04,-42.86 -14.48,-68.98 0.57,-26.12 8.8,-54.79 24.7,-86.02 1.71,-2.84 3.98,-4.4 6.82,-4.69 2.84,-0.28 5.39,0.15 7.66,1.28 2.27,1.14 3.98,2.98 5.11,5.54 1.14,2.55 1.14,4.97 0,7.24 -14.19,28.95 -19.3,55.5 -15.33,79.63 3.98,24.13 13.49,44.43 28.53,60.89 15.05,16.47 34.35,28.68 57.92,36.63 23.56,7.95 47.41,10.36 71.54,7.24 24.13,-3.13 47.27,-12.35 69.41,-27.68 22.14,-15.33 39.74,-37.76 52.8,-67.29 8.52,-19.87 10.79,-38.04 6.82,-54.5 -3.98,-16.47 -11.93,-32.08 -23.85,-46.85 -11.92,-14.76 -26.54,-29.1 -43.86,-43.01 -17.32,-13.91 -34.92,-27.96 -52.81,-42.16 -17.88,-14.19 -34.91,-28.67 -51.1,-43.43 -16.18,-14.76 -29.1,-30.94 -38.75,-48.55 -26.68,13.63 -52.66,28.39 -77.93,44.29 -25.26,15.9 -48.12,33.78 -68.56,53.66 -20.44,19.87 -37.05,42.01 -49.82,66.43 -12.78,24.41 -20.02,51.95 -21.72,82.61 0,2.27 -1.28,3.98 -3.83,5.11 -2.56,1.14 -5.11,1.7 -7.67,1.7 -2.55,0 -4.82,-0.71 -6.81,-2.12 -1.99,-1.42 -2.98,-3.55 -2.98,-6.39 1.7,-33.5 9.51,-63.45 23.42,-89.86 13.91,-26.4 31.51,-50.1 52.8,-71.11 21.3,-21.01 45.29,-39.89 71.97,-56.64 26.69,-16.75 53.94,-32.22 81.76,-46.41 -8.51,-24.99 -10.22,-47.27 -5.11,-66.86 5.11,-19.59 14.06,-36.06 26.83,-49.4 12.78,-13.34 27.96,-23.42 45.57,-30.23 17.6,-6.82 34.21,-10.37 49.82,-10.65 15.61,-0.28 28.96,3.12 40.03,10.22 11.07,7.1 16.89,18.03 17.46,32.79 0,11.36 -3.27,22.14 -9.8,32.37 -6.53,10.22 -14.76,19.44 -24.69,27.67 -9.94,8.24 -20.59,15.62 -31.94,22.15 -11.36,6.53 -21.58,12.06 -30.66,16.61zm64.72 -84.32c0,-11.36 -3.69,-18.17 -11.07,-20.44 -7.38,-2.27 -15.47,-0.43 -24.27,5.54 -8.8,5.96 -16.75,15.47 -23.85,28.53 -7.1,13.06 -10.36,29.24 -9.79,48.54 6.24,-2.84 13.34,-6.24 21.29,-10.22 7.95,-3.97 15.47,-8.51 22.57,-13.62 7.1,-5.12 13.06,-10.79 17.89,-17.04 4.82,-6.24 7.23,-13.34 7.23,-21.29zm563.82 364.52c0.56,-5.11 2.27,-8.66 5.11,-10.65 2.84,-1.98 5.53,-2.69 8.09,-2.13 2.55,0.57 4.68,2.13 6.39,4.69 1.7,2.55 2.27,5.82 1.7,9.79 -3.41,15.9 -7.24,33.36 -11.5,52.38 -4.26,19.02 -10.22,37.05 -17.88,54.08 -7.67,17.04 -17.75,31.23 -30.24,42.59 -12.49,11.35 -28.39,17.31 -47.69,17.88 -15.9,0 -29.39,-2.55 -40.46,-7.66 -11.07,-5.11 -20.15,-12.35 -27.25,-21.72 -7.1,-9.37 -12.63,-20.3 -16.61,-32.79 -3.97,-12.49 -6.81,-25.83 -8.52,-40.03 -4.54,12.49 -9.79,24.84 -15.75,37.05 -5.96,12.21 -12.78,23.14 -20.44,32.79 -7.67,9.65 -16.33,17.46 -25.98,23.42 -9.65,5.96 -20.72,8.94 -33.21,8.94 -22.72,0 -41.17,-6.81 -55.36,-20.44 -14.2,-13.77 -23.99,-30.8 -29.39,-51.38 -5.39,-20.44 -6.67,-42.59 -3.83,-66.15 2.84,-23.71 9.51,-45.56 20.02,-65.72 10.5,-20.3 24.84,-37.19 43.01,-50.96 18.16,-13.63 40.02,-20.44 65.57,-20.44 14.2,0 26.27,2.7 36.2,8.09 9.94,5.39 18.03,12.63 24.27,21.86 0,-2.84 0.15,-5.39 0.43,-7.66 0.28,-2.42 0.71,-4.97 1.28,-7.81 0.56,-9.09 5.11,-16.04 13.62,-20.87 8.52,-4.83 17.46,-7.1 26.83,-6.81 9.37,0.28 17.75,3.26 25.13,8.94 7.38,5.68 10.78,14.48 10.22,26.55 -0.57,6.24 -1.56,15.89 -2.98,28.95 -1.42,13.2 -2.98,27.68 -4.69,43.58 -1.7,16.04 -2.84,32.22 -3.41,48.83 -0.56,16.47 -0.14,31.51 1.28,45.28 1.42,13.63 4.26,24.7 8.52,33.36 4.26,8.51 10.93,12.77 20.01,12.77 12.5,0 23.14,-4.68 31.94,-14.05 8.8,-9.37 16.18,-20.72 22.15,-34.07 5.96,-13.34 10.78,-27.25 14.47,-41.73 3.7,-14.48 6.68,-27.39 8.95,-38.75zm-258.91 128.6c10.22,0 20.15,-5.25 29.8,-15.75 9.66,-10.51 18.17,-23.71 25.56,-39.61 7.38,-15.89 13.2,-33.07 17.45,-51.52 4.26,-18.46 5.97,-35.63 5.11,-51.53 -0.85,-15.9 -4.82,-29.1 -11.92,-39.6 -7.1,-10.51 -18.03,-15.76 -32.79,-15.76 -9.65,0 -18.31,5.25 -25.98,15.76 -7.66,10.5 -14.05,23.7 -19.16,39.6 -5.11,15.9 -8.94,33.07 -11.5,51.53 -2.55,18.45 -3.4,35.63 -2.55,51.52 0.85,15.9 3.26,29.1 7.24,39.61 3.97,10.5 10.22,15.75 18.74,15.75zm442.87 -128.6c0.57,-5.11 2.27,-8.66 5.11,-10.65 2.84,-1.98 5.54,-2.69 8.09,-2.13 2.56,0.57 4.69,2.13 6.39,4.69 1.7,2.55 2.27,5.82 1.7,9.79 -3.4,15.9 -7.24,33.36 -11.49,52.38 -4.26,19.02 -10.23,37.05 -17.89,54.08 -7.67,17.04 -17.74,31.23 -30.24,42.59 -12.49,11.35 -28.38,17.31 -47.69,17.88 -18.17,0 -33.36,-3.83 -45.56,-11.49 -12.21,-7.67 -22.01,-17.89 -29.39,-30.67 -7.38,-12.77 -12.77,-27.39 -16.18,-43.86 -3.41,-16.46 -5.68,-33.21 -6.81,-50.25 -1.14,-17.03 -1.42,-33.64 -0.85,-49.82 0.56,-16.18 1.13,-30.52 1.7,-43.01 0.57,-14.76 1.42,-33.64 2.55,-56.64 1.14,-22.99 3.27,-47.55 6.39,-73.67 3.12,-26.12 7.67,-52.38 13.63,-78.78 5.96,-26.4 14.05,-50.25 24.27,-71.54 10.22,-21.29 22.86,-38.61 37.9,-51.95 15.05,-13.34 33.36,-20.02 54.94,-20.02 11.35,0 21,2.13 28.95,6.39 7.95,4.26 14.34,9.94 19.17,17.04 4.82,7.09 8.37,15.18 10.64,24.27 2.27,9.08 3.41,18.45 3.41,28.1 0,26.12 -3.55,51.39 -10.65,75.8 -7.1,24.42 -16.46,47.84 -28.1,70.27 -11.64,22.42 -24.84,44.28 -39.61,65.58 -14.76,21.29 -30.09,41.59 -45.99,60.89 -0.57,10.22 -1.56,25.98 -2.98,47.27 -1.42,21.29 -1.7,42.73 -0.85,64.3 0.85,21.58 3.55,40.46 8.09,56.64 4.54,16.18 12.49,24.56 23.85,25.12 12.49,0.57 23.13,-3.69 31.94,-12.77 8.8,-9.09 16.18,-20.44 22.14,-34.07 5.96,-13.63 10.79,-27.82 14.48,-42.58 3.69,-14.77 6.67,-27.82 8.94,-39.18zm-33.21 -371.33c-10.79,0 -19.88,5.53 -27.26,16.6 -7.38,11.08 -13.63,25.41 -18.74,43.01 -5.1,17.61 -9.08,36.91 -11.92,57.92 -2.84,21.01 -5.11,41.59 -6.81,61.75 -1.71,20.15 -2.84,38.32 -3.41,54.5 -0.57,16.19 -1.13,27.97 -1.7,35.35 13.06,-17.04 25.69,-34.78 37.9,-53.23 12.2,-18.46 22.99,-37.48 32.36,-57.07 9.37,-19.58 16.75,-39.74 22.14,-60.46 5.4,-20.73 8.1,-42.16 8.1,-64.31 0,-9.65 -2.27,-17.74 -6.82,-24.27 -4.54,-6.53 -12.49,-9.79 -23.84,-9.79zm389.21 371.33c1.14,-5.11 3.13,-8.66 5.97,-10.65 2.84,-1.98 5.53,-2.69 8.09,-2.13 2.55,0.57 4.68,2.13 6.38,4.69 1.71,2.55 2.28,5.82 1.71,9.79 -9.65,47.13 -26.12,84.18 -49.4,111.15 -23.28,26.97 -50.25,48.97 -80.91,66 -1.13,44.29 -4.12,88.01 -8.94,131.16 -4.83,43.15 -13.63,81.62 -26.4,115.4 -12.78,33.79 -30.81,61.18 -54.09,82.19 -23.28,21.01 -54.5,31.51 -93.68,31.51 -30.66,0 -54.93,-7.66 -72.82,-22.99 -17.89,-15.33 -30.09,-34.21 -36.62,-56.64 -6.53,-22.43 -7.53,-46.56 -2.98,-72.39 4.54,-25.84 13.91,-49.54 28.1,-71.12 11.36,-16.46 24.13,-30.8 38.33,-43.01 14.19,-12.2 29.52,-23.13 45.99,-32.79 16.46,-9.65 33.64,-18.45 51.53,-26.4 17.88,-7.95 35.91,-16.18 54.08,-24.7 0.57,-18.73 1.13,-37.47 1.7,-56.21 0.57,-18.74 1.42,-37.76 2.56,-57.06 -4.55,11.92 -9.8,23.42 -15.76,34.49 -5.96,11.07 -12.63,20.87 -20.01,29.39 -7.39,8.51 -15.62,15.47 -24.7,20.86 -9.09,5.4 -19.59,8.09 -31.52,8.09 -22.71,0 -41.16,-6.81 -55.36,-20.44 -14.19,-13.77 -23.98,-30.8 -29.38,-51.38 -5.39,-20.44 -6.67,-42.59 -3.83,-66.15 2.84,-23.71 9.51,-45.56 20.01,-65.72 10.51,-20.3 24.84,-37.19 43.01,-50.96 18.17,-13.63 40.03,-20.44 65.58,-20.44 13.06,0 24.42,2.41 34.07,7.24 9.65,4.83 17.6,11.21 23.85,19.3 0.57,-2.84 0.85,-6.95 0.85,-12.06 0.57,-9.09 4.97,-16.04 13.34,-20.87 8.38,-4.83 17.46,-7.1 27.54,-6.81 10.08,0.28 19.02,3.26 26.69,8.94 7.8,5.68 11.35,14.48 10.78,26.4 -0.56,17.18 -1.56,35.63 -2.69,55.65 -1.28,19.87 -2.42,40.31 -3.27,61.03 -0.99,20.87 -1.84,41.59 -2.84,62.46 -0.85,20.72 -1.7,40.6 -2.27,59.33 26.12,-16.46 48.55,-36.48 67.29,-60.04 18.73,-23.56 32.07,-54.93 40.02,-94.11zm-295.53 505.9c19.31,0 35.35,-5.54 48.12,-16.61 12.78,-11.07 23.14,-25.41 31.09,-43.01 7.95,-17.6 13.91,-37.33 17.88,-59.19 3.98,-21.86 6.82,-43.72 8.52,-65.58 1.7,-21.86 2.55,-42.3 2.55,-61.32 0,-19.02 0.29,-34.78 0.86,-47.27 -17.04,7.38 -33.65,14.62 -49.83,21.72 -16.18,7.09 -31.65,15.19 -46.41,24.27 -14.77,9.09 -28.39,19.16 -40.88,30.24 -12.5,11.07 -23.85,23.98 -34.07,38.75 -11.93,17.03 -19.87,36.05 -23.85,57.06 -3.97,21.01 -3.69,40.45 0.85,58.34 4.55,17.89 13.77,32.79 27.68,44.71 13.91,11.93 33.08,17.89 57.49,17.89zm37.47 -377.3c8.52,0 17.46,-5.25 26.83,-15.75 9.37,-10.51 17.89,-23.71 25.55,-39.61 7.67,-15.89 14.06,-33.07 19.17,-51.52 5.11,-18.46 7.38,-35.63 6.81,-51.53 -0.57,-15.9 -4.26,-29.1 -11.07,-39.6 -6.82,-10.51 -18.17,-15.76 -34.07,-15.76 -9.65,0 -18.31,5.25 -25.98,15.76 -7.66,10.5 -14.05,23.7 -19.16,39.6 -5.11,15.9 -8.94,33.07 -11.5,51.53 -2.55,18.45 -3.4,35.63 -2.55,51.52 0.85,15.9 3.26,29.1 7.24,39.61 3.97,10.5 10.22,15.75 18.73,15.75zm614.07 -128.6c0.57,-5.11 2.27,-8.66 5.11,-10.65 2.84,-1.98 5.53,-2.69 8.09,-2.13 2.55,0.57 4.68,2.13 6.39,4.69 1.7,2.55 2.27,5.82 1.7,9.79 -3.41,15.9 -7.24,33.36 -11.5,52.38 -4.26,19.02 -10.22,37.05 -17.88,54.08 -7.67,17.04 -17.75,31.23 -30.24,42.59 -12.49,11.35 -28.39,17.31 -47.69,17.88 -15.9,0 -29.39,-2.55 -40.46,-7.66 -11.07,-5.11 -20.15,-12.35 -27.25,-21.72 -7.1,-9.37 -12.63,-20.3 -16.61,-32.79 -3.97,-12.49 -6.81,-25.83 -8.52,-40.03 -4.54,12.49 -9.79,24.84 -15.75,37.05 -5.96,12.21 -12.78,23.14 -20.44,32.79 -7.67,9.65 -16.33,17.46 -25.98,23.42 -9.65,5.96 -20.72,8.94 -33.21,8.94 -22.72,0 -41.17,-6.81 -55.36,-20.44 -14.2,-13.77 -23.99,-30.8 -29.39,-51.38 -5.39,-20.44 -6.67,-42.59 -3.83,-66.15 2.84,-23.71 9.51,-45.56 20.02,-65.72 10.5,-20.3 24.84,-37.19 43.01,-50.96 18.17,-13.63 40.02,-20.44 65.57,-20.44 14.2,0 26.27,2.7 36.2,8.09 9.94,5.39 18.03,12.63 24.28,21.86 0,-2.84 0.14,-5.39 0.42,-7.66 0.29,-2.42 0.71,-4.97 1.28,-7.81 0.57,-9.09 5.11,-16.04 13.63,-20.87 8.51,-4.83 17.45,-7.1 26.82,-6.81 9.37,0.28 17.75,3.26 25.13,8.94 7.38,5.68 10.79,14.48 10.22,26.55 -0.57,6.24 -1.56,15.89 -2.98,28.95 -1.42,13.2 -2.98,27.68 -4.69,43.58 -1.7,16.04 -2.84,32.22 -3.4,48.83 -0.57,16.47 -0.15,31.51 1.27,45.28 1.42,13.63 4.26,24.7 8.52,33.36 4.26,8.51 10.93,12.77 20.02,12.77 12.49,0 23.13,-4.68 31.93,-14.05 8.8,-9.37 16.18,-20.72 22.15,-34.07 5.96,-13.34 10.79,-27.25 14.48,-41.73 3.69,-14.48 6.67,-27.39 8.94,-38.75zm-258.91 128.6c10.22,0 20.15,-5.25 29.81,-15.75 9.65,-10.51 18.17,-23.71 25.55,-39.61 7.38,-15.89 13.2,-33.07 17.46,-51.52 4.25,-18.46 5.96,-35.63 5.1,-51.53 -0.85,-15.9 -4.82,-29.1 -11.92,-39.6 -7.09,-10.51 -18.02,-15.76 -32.79,-15.76 -9.65,0 -18.31,5.25 -25.97,15.76 -7.67,10.5 -14.06,23.7 -19.17,39.6 -5.11,15.9 -8.94,33.07 -11.49,51.53 -2.56,18.45 -3.41,35.63 -2.56,51.52 0.85,15.9 3.27,29.1 7.24,39.61 3.97,10.5 10.22,15.75 18.74,15.75zm619.17 -128.6c1.14,-5.11 3.12,-8.66 5.96,-10.65 2.84,-1.98 5.54,-2.69 8.09,-2.13 2.56,0.57 4.69,2.13 6.39,4.69 1.7,2.55 2.27,5.82 1.7,9.79 -3.4,15.9 -7.24,33.36 -11.49,52.38 -4.26,19.02 -10.22,37.05 -17.89,54.08 -7.66,17.04 -17.74,31.23 -30.23,42.59 -12.5,11.35 -28.39,17.31 -47.7,17.88 -15.9,0 -29.52,-2.84 -40.88,-8.51 -11.35,-5.68 -20.72,-13.49 -28.1,-23.43 -7.39,-9.93 -13.21,-21.57 -17.46,-34.91 -4.26,-13.35 -7.24,-27.4 -8.95,-42.16 -4.54,13.06 -9.79,26.12 -15.75,39.17 -5.96,13.06 -12.92,24.84 -20.87,35.35 -7.95,10.5 -16.89,18.88 -26.83,25.12 -9.93,6.25 -21.43,9.37 -34.49,9.37 -22.71,0 -41.16,-6.81 -55.36,-20.44 -14.19,-13.77 -23.99,-30.8 -29.38,-51.38 -5.4,-20.44 -6.67,-42.59 -3.84,-66.15 2.84,-23.71 9.52,-45.56 20.02,-65.72 10.5,-20.3 24.84,-37.19 43.01,-50.96 18.17,-13.63 40.03,-20.44 65.58,-20.44 24.41,0 43.15,8.23 56.21,24.7 0.57,-17.04 1.7,-37.19 3.41,-60.33 1.7,-23.28 4.4,-46.98 8.09,-71.4 3.69,-24.27 8.8,-48.55 15.04,-72.53 6.25,-24.13 14.34,-45.57 24.42,-64.16 9.94,-18.74 22.14,-33.93 36.76,-45.43 14.48,-11.64 32.08,-17.46 52.52,-17.46 11.5,0 21.01,2.13 28.68,6.39 7.66,4.26 13.91,10.08 18.88,17.46 4.82,7.38 8.37,15.62 10.64,24.7 2.27,9.08 3.41,18.45 3.41,28.11 0,25.55 -3.55,50.53 -10.79,74.94 -7.1,24.42 -16.47,47.98 -28.25,70.69 -11.64,22.71 -24.98,44.57 -39.88,65.58 -14.91,21.01 -29.96,41.17 -45.43,60.47 -0.56,6.82 -1.27,16.33 -2.13,28.53 -0.85,12.21 -1.56,25.41 -2.12,39.61 -0.57,14.19 -0.71,28.67 -0.43,43.43 0.28,14.76 1.56,28.11 3.83,40.03 2.27,11.92 5.54,21.86 9.8,29.81 4.25,7.95 10.36,11.92 18.31,11.92 12.49,0.57 23.13,-3.69 31.93,-12.77 8.81,-9.09 16.19,-20.44 22.15,-34.07 5.96,-13.63 10.79,-27.82 14.48,-42.58 3.69,-14.77 6.67,-27.82 8.94,-39.18zm-32.36 -371.33c-10.79,0 -19.88,5.53 -27.26,16.6 -7.38,10.93 -13.62,25.27 -18.73,42.87 -5.11,17.6 -9.09,36.77 -11.93,57.77 -2.84,20.87 -5.11,41.45 -6.81,61.61 -1.71,20.01 -2.84,38.18 -3.41,54.37 -0.57,16.04 -1.13,27.82 -1.7,35.2 12.49,-16.47 24.84,-33.64 37.05,-51.81 12.2,-18.17 22.99,-36.91 32.36,-56.5 9.37,-19.59 16.89,-39.46 22.57,-59.9 5.68,-20.44 8.52,-41.31 8.52,-62.88 0,-10.65 -2.13,-19.59 -6.39,-26.69 -4.26,-7.1 -12.35,-10.64 -24.27,-10.64zm-230.81 499.93c10.22,0 20.3,-5.25 30.23,-15.75 9.94,-10.51 18.6,-23.71 25.98,-39.61 7.38,-15.89 13.2,-33.07 17.46,-51.52 4.26,-18.46 5.82,-35.63 4.68,-51.53 -1.13,-15.9 -5.25,-29.1 -12.34,-39.6 -7.1,-10.51 -18.03,-15.76 -32.79,-15.76 -9.66,0 -18.32,5.25 -25.98,15.76 -7.67,10.5 -14.05,23.7 -19.16,39.6 -5.11,15.9 -8.95,33.07 -11.5,51.53 -2.56,18.45 -3.41,35.63 -2.56,51.52 0.86,15.9 3.27,29.1 7.24,39.61 3.98,10.5 10.22,15.75 18.74,15.75zm311.72 -286.16c-11.36,0 -20.73,-3.83 -28.11,-11.5 -7.38,-7.66 -11.07,-16.89 -11.07,-27.68 0,-10.79 3.69,-20.01 11.07,-27.68 7.38,-7.66 16.75,-11.5 28.11,-11.5 10.78,0 20.01,3.84 27.68,11.5 7.66,7.67 11.49,16.89 11.49,27.68 0,10.79 -3.83,20.02 -11.49,27.68 -7.67,7.67 -16.9,11.5 -27.68,11.5zm130.3 154.15c1.14,-5.11 2.98,-8.66 5.54,-10.64 2.55,-1.99 5.11,-2.7 7.66,-2.13 2.56,0.57 4.69,2.13 6.39,4.68 1.71,2.56 2.27,5.82 1.71,9.8 -3.41,15.89 -7.24,33.35 -11.5,52.37 -4.26,19.02 -10.22,37.05 -17.89,54.09 -7.66,17.03 -17.74,31.22 -30.23,42.58 -12.49,11.36 -28.39,17.32 -47.7,17.89 -20.44,0.56 -36.9,-3.7 -49.39,-12.78 -12.5,-9.08 -22.15,-21.15 -28.96,-36.2 -6.81,-15.04 -11.36,-31.93 -13.63,-50.67 -2.27,-18.74 -3.12,-37.76 -2.55,-57.06 0.57,-19.31 1.84,-38.05 3.83,-56.22 1.99,-18.16 3.55,-33.78 4.68,-46.84 0.57,-9.08 5.11,-16.04 13.63,-20.86 8.52,-4.83 17.46,-7.1 26.83,-6.82 9.37,0.29 17.88,3.27 25.55,8.95 7.66,5.67 11.21,14.47 10.64,26.4 0,6.24 -0.85,15.9 -2.55,28.96 -1.7,13.05 -3.41,27.39 -5.11,43.01 -1.7,15.61 -2.98,31.79 -3.83,48.54 -0.85,16.75 -0.57,31.8 0.85,45.14 1.42,13.34 4.26,24.42 8.52,33.22 4.25,8.8 10.93,13.2 20.01,13.2 12.49,0 23.14,-4.69 31.94,-14.06 8.8,-9.36 16.18,-20.72 22.14,-34.06 5.96,-13.35 10.79,-27.4 14.48,-42.16 3.69,-14.76 6.67,-27.54 8.94,-38.33zm350.9 3.41c0.56,-5.11 2.27,-8.66 5.11,-10.65 2.83,-1.98 5.53,-2.69 8.09,-2.13 2.55,0.57 4.68,2.13 6.38,4.69 1.71,2.55 2.28,5.82 1.71,9.79 -3.41,15.9 -7.24,33.5 -11.5,52.81 -4.26,19.3 -10.22,37.47 -17.88,54.5 -7.67,17.04 -17.75,31.23 -30.24,42.59 -12.49,11.35 -28.39,17.03 -47.69,17.03 -26.69,0 -46.99,-5.82 -60.9,-17.46 -13.91,-11.64 -23.56,-26.12 -28.96,-43.43 -5.39,-17.32 -7.8,-36.06 -7.24,-56.21 0.57,-20.16 1.42,-38.9 2.56,-56.21 1.13,-17.32 1.42,-31.8 0.85,-43.44 -0.57,-11.64 -4.26,-17.46 -11.07,-17.46 -10.22,0 -19.87,4.97 -28.96,14.9 -9.08,9.94 -17.32,21.58 -24.7,34.92 -7.38,13.35 -13.77,26.97 -19.16,40.88 -5.39,13.92 -9.51,25.13 -12.35,33.65 -0.57,15.33 -1.13,30.66 -1.7,45.99 -0.57,15.33 -1.42,30.66 -2.56,45.99 -0.57,11.35 -4.97,19.73 -13.2,25.12 -8.23,5.4 -17.17,7.95 -26.83,7.67 -9.65,-0.29 -18.45,-3.13 -26.4,-8.52 -7.95,-5.39 -11.92,-13.2 -11.92,-23.42 1.13,-40.88 2.84,-81.34 5.11,-121.37 2.27,-40.03 4.82,-80.48 7.66,-121.36 0.57,-9.09 4.97,-16.04 13.2,-20.87 8.24,-4.82 17.18,-7.09 26.83,-6.81 9.65,0.28 18.31,3.26 25.98,8.94 7.66,5.68 11.21,14.48 10.64,26.4 -0.56,11.93 -0.99,23.85 -1.27,35.77 -0.29,11.93 -1,23.85 -2.13,35.78 5.11,-11.93 10.79,-23.43 17.03,-34.5 6.25,-11.07 13.34,-21.15 21.29,-30.23 7.95,-9.09 16.75,-16.18 26.41,-21.29 9.65,-5.11 20.44,-7.67 32.36,-7.67 22.71,0 39.18,5.82 49.4,17.46 10.22,11.64 16.89,26.12 20.01,43.44 3.12,17.31 4.12,36.19 2.98,56.63 -1.13,20.44 -1.84,39.32 -2.13,56.64 -0.28,17.32 1.14,31.65 4.26,43.01 3.12,11.35 10.65,17.03 22.57,17.03 12.49,0 23.14,-4.68 31.94,-14.05 8.8,-9.37 16.32,-20.72 22.57,-34.07 6.24,-13.34 11.21,-27.25 14.9,-41.73 3.69,-14.48 6.67,-27.39 8.95,-38.75z"/>
   <path class="fil0" d="M3071.85 2502.41c0.57,-5.11 2.27,-8.66 5.11,-10.65 2.84,-1.98 5.53,-2.69 8.09,-2.13 2.55,0.57 4.68,2.13 6.39,4.69 1.7,2.55 2.27,5.82 1.7,9.79 -3.41,15.9 -7.24,33.5 -11.5,52.81 -4.26,19.3 -10.22,37.47 -17.88,54.5 -7.67,17.04 -17.74,31.23 -30.24,42.59 -12.49,11.35 -28.39,17.03 -47.69,17.03 -26.69,0 -46.98,-5.82 -60.9,-17.46 -13.91,-11.64 -23.42,-26.12 -28.53,-43.43 -5.11,-17.32 -7.52,-36.06 -7.24,-56.21 0.29,-20.16 1.14,-38.9 2.56,-56.21 1.42,-17.32 1.84,-31.8 1.28,-43.44 -0.57,-11.64 -4.55,-17.46 -11.93,-17.46 -10.22,0 -19.87,4.97 -28.96,14.9 -9.08,9.94 -17.31,21.72 -24.69,35.35 -7.38,13.63 -13.77,27.4 -19.17,41.31 -5.39,13.91 -9.51,25.12 -12.35,33.64 0,16.46 -0.14,32.5 -0.42,48.12 -0.29,15.61 -0.43,29.95 -0.43,43.01 -0.57,11.35 -4.97,19.73 -13.2,25.12 -8.23,5.4 -17.17,7.95 -26.83,7.67 -9.65,-0.29 -18.45,-3.13 -26.4,-8.52 -7.95,-5.39 -11.92,-13.2 -11.92,-23.42 0.56,-14.2 0.99,-33.22 1.27,-57.06 0.29,-23.85 0.86,-50.54 1.71,-80.06 0.85,-29.53 2.55,-60.47 5.11,-92.69 2.55,-32.37 5.96,-64.45 10.22,-96.1 4.26,-31.8 9.93,-62.03 17.03,-90.99 7.1,-28.81 15.9,-54.22 26.4,-75.94 10.51,-21.86 23.14,-39.32 37.9,-52.24 14.77,-13.06 31.8,-19.3 51.11,-18.73 10.78,0 19.87,2.41 27.25,7.23 7.38,4.83 13.2,10.93 17.46,18.17 4.26,7.39 7.38,15.76 9.37,25.13 1.98,9.37 2.98,18.59 2.98,27.54 0,25.55 -3.69,50.39 -11.07,74.8 -7.39,24.27 -17.04,47.98 -28.96,70.98 -11.92,22.85 -25.55,44.99 -40.88,66.14 -15.33,21.29 -30.66,41.59 -45.99,60.9 0,9.08 -0.15,18.31 -0.43,27.68 -0.28,9.37 -0.43,18.88 -0.43,28.53 5.12,-12.49 10.79,-24.7 17.04,-36.62 6.25,-11.93 13.48,-22.71 21.72,-32.37 8.23,-9.65 17.31,-17.31 27.25,-22.99 9.94,-5.68 21.15,-8.52 33.64,-8.52 22.71,0 39.18,5.82 49.4,17.46 10.22,11.64 16.89,26.12 20.01,43.44 3.13,17.31 4.12,36.19 2.98,56.63 -1.13,20.44 -1.84,39.32 -2.12,56.64 -0.29,17.32 1.13,31.65 4.25,43.01 3.13,11.35 10.93,17.03 23.43,17.03 12.49,0 23.13,-4.68 31.93,-14.05 8.8,-9.37 16.19,-20.72 22.15,-34.07 5.96,-13.34 10.79,-27.25 14.48,-41.73 3.69,-14.48 6.67,-27.39 8.94,-38.75zm-197.59 -372.19c-11.36,0 -21.15,5.4 -29.38,16.19 -8.24,10.78 -15.05,24.84 -20.45,42.15 -5.39,17.32 -9.65,36.48 -12.77,57.49 -3.12,21.01 -5.54,41.59 -7.24,61.75 -1.7,20.16 -2.98,39.04 -3.83,56.64 -0.85,17.6 -1.28,31.23 -1.28,40.88 12.49,-16.47 24.98,-34.07 37.47,-52.81 12.5,-18.73 23.71,-38.18 33.65,-58.34 9.93,-20.15 17.88,-40.88 23.84,-62.17 5.97,-21.29 8.95,-42.73 8.95,-64.3 0,-9.65 -1.85,-18.31 -5.54,-25.98 -3.69,-7.66 -11.5,-11.5 -23.42,-11.5zm493.97 372.19c1.14,-5.11 3.13,-8.66 5.97,-10.65 2.83,-1.98 5.53,-2.69 8.09,-2.13 2.55,0.57 4.68,2.13 6.38,4.69 1.71,2.55 2.28,5.82 1.71,9.79 -3.98,18.74 -9.09,35.77 -15.33,51.1 -6.25,15.33 -14.48,28.11 -24.7,38.33 -10.22,10.22 -22.71,17.46 -37.47,21.72 -14.77,4.26 -32.65,4.68 -53.66,1.27 -9.65,16.47 -21.86,30.67 -36.62,42.59 -14.77,11.92 -31.8,17.88 -51.1,17.88 -22.72,0 -41.88,-7.09 -57.49,-21.29 -15.62,-14.19 -27.26,-31.79 -34.92,-52.8 -7.67,-21.01 -11.5,-43.86 -11.5,-68.56 0,-24.7 4.54,-47.7 13.63,-68.99 9.08,-21.29 22.42,-38.89 40.03,-52.8 17.6,-13.91 40.31,-20.87 68.13,-20.87 23.28,0 42.16,6.96 56.64,20.87 14.48,13.91 24.84,31.08 31.08,51.52 6.25,20.44 8.52,42.45 6.82,66.01 -1.71,23.56 -6.82,45.56 -15.33,66 17.03,1.71 31.23,0.57 42.58,-3.4 11.36,-3.98 20.73,-10.22 28.11,-18.74 7.38,-8.52 13.34,-18.88 17.88,-31.09 4.54,-12.2 8.24,-25.69 11.07,-40.45zm-137.12 104.76c-9.65,0 -17.03,-5.11 -22.14,-15.33 -5.11,-10.22 -6.96,-21.44 -5.54,-33.65 1.42,-12.2 6.39,-23.42 14.91,-33.64 8.51,-10.22 21.57,-15.33 39.18,-15.33 0,-7.95 -1,-17.32 -2.99,-28.1 -1.98,-10.79 -5.25,-20.87 -9.79,-30.24 -4.54,-9.37 -10.36,-17.46 -17.46,-24.27 -7.1,-6.81 -15.76,-10.22 -25.98,-10.22 -9.08,0 -17.31,5.25 -24.69,15.76 -7.39,10.5 -13.49,23.7 -18.32,39.6 -4.82,15.9 -8.23,33.21 -10.22,51.95 -1.98,18.74 -1.84,36.06 0.43,51.95 2.27,15.9 6.67,29.1 13.2,39.61 6.53,10.5 15.76,15.75 27.68,15.75 8.52,0 16.18,-2.13 23,-6.38 6.81,-4.26 13.05,-10.08 18.73,-17.46zm408.81 -104.76c1.14,-5.11 2.98,-8.66 5.54,-10.65 2.55,-1.98 5.11,-2.69 7.66,-2.13 2.56,0.57 4.69,2.13 6.39,4.69 1.7,2.55 2.27,5.82 1.7,9.79 -3.97,19.88 -8.94,37.9 -14.9,54.08 -5.96,16.19 -13.34,31.23 -22.15,45.14 -8.8,13.91 -19.3,27.12 -31.51,39.61 -12.21,12.49 -26.26,24.7 -42.16,36.62 -10.22,7.95 -21.86,14.48 -34.92,19.59 -13.05,5.11 -29.52,7.95 -49.39,8.51 -25.55,0.57 -45.71,-5.11 -60.47,-17.03 -14.76,-11.92 -24.42,-25.83 -28.96,-41.73 -4.54,-15.9 -4.26,-31.51 0.85,-46.84 5.11,-15.33 15.05,-26.12 29.81,-32.37 5.68,-2.27 9.94,-2.84 12.78,-1.7 2.84,1.13 4.68,2.98 5.53,5.53 0.85,2.56 0.43,5.4 -1.28,8.52 -1.7,3.12 -4.54,5.54 -8.51,7.24 -6.25,3.41 -11.07,8.66 -14.48,15.76 -3.41,7.09 -5.11,14.62 -5.11,22.57 0,16.46 5.25,29.24 15.75,38.32 10.51,9.09 21.87,14.34 34.07,15.76 12.21,1.42 23.28,-1 33.22,-7.24 9.93,-6.25 14.62,-16.75 14.05,-31.51 0,-9.66 -2.13,-20.44 -6.39,-32.37 -4.26,-11.92 -9.37,-24.13 -15.33,-36.62 -5.96,-12.49 -12.63,-24.84 -20.01,-37.05 -7.38,-12.2 -14.62,-23.7 -21.72,-34.49 -7.1,-10.79 -13.34,-20.16 -18.74,-28.11 -5.39,-7.95 -9.22,-14.19 -11.49,-18.73l-12.78 63.87c-1.14,5.11 -3.12,8.66 -5.96,10.65 -2.84,1.99 -5.54,2.7 -8.09,2.13 -2.56,-0.57 -4.83,-1.99 -6.82,-4.26 -1.98,-2.27 -2.41,-5.68 -1.27,-10.22l20.44 -98.8c-1.71,-5.67 -2.98,-13.05 -3.83,-22.14 -0.86,-9.08 -1.14,-18.17 -0.86,-27.25 0.29,-9.09 1.56,-17.75 3.84,-25.98 2.27,-8.23 5.67,-14.9 10.22,-20.01 4.54,-4.55 9.36,-6.96 14.47,-7.24 5.11,-0.29 9.09,2.69 11.93,8.94 1.7,3.41 2.27,8.66 1.7,15.76 -0.57,7.09 -1.7,14.47 -3.41,22.14 -1.7,7.66 -3.54,15.33 -5.53,22.99 -1.99,7.67 -3.55,13.49 -4.69,17.46 5.68,9.09 14.2,18.03 25.56,26.83 11.35,8.8 23.7,18.31 37.04,28.53 13.35,10.22 26.55,21.3 39.61,33.22 13.06,11.92 24.27,25.27 33.64,40.03 9.37,14.76 15.75,31.37 19.16,49.82 3.41,18.45 1.99,39.04 -4.26,61.75 23.28,-15.9 40.88,-35.49 52.81,-58.77 11.92,-23.28 21,-50.81 27.25,-82.61zm572.33 0c1.14,-5.11 3.12,-8.66 5.96,-10.65 2.84,-1.98 5.54,-2.69 8.09,-2.13 2.56,0.57 4.69,2.13 6.39,4.69 1.7,2.55 2.27,5.82 1.7,9.79 -3.4,15.9 -7.24,33.36 -11.49,52.38 -4.26,19.02 -10.22,37.05 -17.89,54.08 -7.66,17.04 -17.74,31.23 -30.23,42.59 -12.5,11.35 -28.39,17.31 -47.7,17.88 -15.9,0 -29.52,-2.84 -40.88,-8.51 -11.35,-5.68 -20.72,-13.49 -28.1,-23.43 -7.39,-9.93 -13.21,-21.57 -17.46,-34.91 -4.26,-13.35 -7.24,-27.4 -8.95,-42.16 -4.54,13.06 -9.79,26.12 -15.75,39.17 -5.96,13.06 -12.92,24.84 -20.87,35.35 -7.95,10.5 -16.89,18.88 -26.83,25.12 -9.93,6.25 -21.43,9.37 -34.49,9.37 -22.71,0 -41.16,-6.81 -55.36,-20.44 -14.19,-13.77 -23.99,-30.8 -29.38,-51.38 -5.4,-20.44 -6.67,-42.59 -3.84,-66.15 2.84,-23.71 9.51,-45.56 20.02,-65.72 10.5,-20.3 24.84,-37.19 43.01,-50.96 18.17,-13.63 40.03,-20.44 65.58,-20.44 24.41,0 43.15,8.23 56.21,24.7 0.57,-17.04 1.7,-37.19 3.41,-60.33 1.7,-23.28 4.4,-46.98 8.09,-71.4 3.69,-24.27 8.8,-48.55 15.04,-72.53 6.25,-24.13 14.34,-45.57 24.42,-64.16 9.94,-18.74 22.14,-33.93 36.76,-45.43 14.48,-11.64 32.08,-17.46 52.52,-17.46 11.5,0 21.01,2.13 28.68,6.39 7.66,4.26 13.91,10.08 18.88,17.46 4.82,7.38 8.37,15.62 10.64,24.7 2.27,9.08 3.41,18.45 3.41,28.11 0,25.55 -3.55,50.53 -10.79,74.94 -7.1,24.42 -16.47,47.98 -28.25,70.69 -11.64,22.71 -24.98,44.57 -39.88,65.58 -14.91,21.01 -29.96,41.17 -45.43,60.47 -0.57,6.82 -1.27,16.33 -2.13,28.53 -0.85,12.21 -1.56,25.41 -2.12,39.61 -0.57,14.19 -0.71,28.67 -0.43,43.43 0.28,14.76 1.56,28.11 3.83,40.03 2.27,11.92 5.54,21.86 9.8,29.81 4.25,7.95 10.36,11.92 18.31,11.92 12.49,0.57 23.13,-3.69 31.93,-12.77 8.81,-9.09 16.19,-20.44 22.15,-34.07 5.96,-13.63 10.79,-27.82 14.48,-42.58 3.69,-14.77 6.67,-27.82 8.94,-39.18zm-32.36 -371.33c-10.79,0 -19.88,5.53 -27.26,16.6 -7.38,10.93 -13.62,25.27 -18.74,42.87 -5.1,17.6 -9.08,36.77 -11.92,57.77 -2.84,20.87 -5.11,41.45 -6.81,61.61 -1.71,20.01 -2.84,38.18 -3.41,54.37 -0.57,16.04 -1.13,27.82 -1.7,35.2 12.49,-16.47 24.84,-33.64 37.05,-51.81 12.2,-18.17 22.99,-36.91 32.36,-56.5 9.37,-19.59 16.89,-39.46 22.57,-59.9 5.68,-20.44 8.52,-41.31 8.52,-62.88 0,-10.65 -2.13,-19.59 -6.39,-26.69 -4.26,-7.1 -12.35,-10.64 -24.27,-10.64zm-230.81 499.93c10.22,0 20.3,-5.25 30.23,-15.75 9.94,-10.51 18.6,-23.71 25.98,-39.61 7.38,-15.89 13.2,-33.07 17.46,-51.52 4.26,-18.46 5.82,-35.63 4.68,-51.53 -1.13,-15.9 -5.25,-29.1 -12.35,-39.6 -7.09,-10.51 -18.02,-15.76 -32.78,-15.76 -9.66,0 -18.32,5.25 -25.98,15.76 -7.67,10.5 -14.05,23.7 -19.16,39.6 -5.11,15.9 -8.95,33.07 -11.5,51.53 -2.56,18.45 -3.41,35.63 -2.56,51.52 0.86,15.9 3.27,29.1 7.24,39.61 3.98,10.5 10.22,15.75 18.74,15.75zm619.17 -128.6c0.57,-5.11 2.27,-8.66 5.11,-10.65 2.84,-1.98 5.54,-2.69 8.09,-2.13 2.56,0.57 4.69,2.13 6.39,4.69 1.7,2.55 2.27,5.82 1.7,9.79 -3.4,15.9 -7.23,33.36 -11.49,52.38 -4.26,19.02 -10.22,37.05 -17.89,54.08 -7.66,17.04 -17.74,31.23 -30.23,42.59 -12.49,11.35 -28.39,17.31 -47.7,17.88 -15.9,0 -29.38,-2.55 -40.45,-7.66 -11.07,-5.11 -20.16,-12.35 -27.26,-21.72 -7.09,-9.37 -12.63,-20.3 -16.6,-32.79 -3.98,-12.49 -6.82,-25.83 -8.52,-40.03 -4.54,12.49 -9.79,24.84 -15.76,37.05 -5.96,12.21 -12.77,23.14 -20.44,32.79 -7.66,9.65 -16.32,17.46 -25.97,23.42 -9.66,5.96 -20.73,8.94 -33.22,8.94 -22.71,0 -41.16,-6.81 -55.36,-20.44 -14.19,-13.77 -23.99,-30.8 -29.38,-51.38 -5.4,-20.44 -6.67,-42.59 -3.83,-66.15 2.84,-23.71 9.51,-45.56 20.01,-65.72 10.51,-20.3 24.84,-37.19 43.01,-50.96 18.17,-13.63 40.03,-20.44 65.58,-20.44 14.19,0 26.26,2.7 36.2,8.09 9.93,5.39 18.02,12.63 24.27,21.86 0,-2.84 0.14,-5.39 0.43,-7.66 0.28,-2.42 0.71,-4.97 1.27,-7.81 0.57,-9.09 5.11,-16.04 13.63,-20.87 8.52,-4.83 17.46,-7.1 26.83,-6.81 9.37,0.28 17.74,3.26 25.12,8.94 7.38,5.68 10.79,14.48 10.22,26.55 -0.56,6.24 -1.56,15.89 -2.98,28.95 -1.42,13.2 -2.98,27.68 -4.68,43.58 -1.71,16.04 -2.84,32.22 -3.41,48.83 -0.57,16.47 -0.14,31.51 1.28,45.28 1.42,13.63 4.26,24.7 8.52,33.36 4.25,8.51 10.92,12.77 20.01,12.77 12.49,0 23.14,-4.68 31.94,-14.05 8.8,-9.37 16.18,-20.72 22.14,-34.07 5.96,-13.34 10.79,-27.25 14.48,-41.73 3.69,-14.48 6.67,-27.39 8.94,-38.75zm-258.91 128.6c10.22,0 20.16,-5.25 29.81,-15.75 9.65,-10.51 18.17,-23.71 25.55,-39.61 7.38,-15.89 13.2,-33.07 17.46,-51.52 4.26,-18.46 5.96,-35.63 5.11,-51.53 -0.85,-15.9 -4.83,-29.1 -11.92,-39.6 -7.1,-10.51 -18.03,-15.76 -32.79,-15.76 -9.66,0 -18.31,5.25 -25.98,15.76 -7.66,10.5 -14.05,23.7 -19.16,39.6 -5.11,15.9 -8.94,33.07 -11.5,51.53 -2.55,18.45 -3.41,35.63 -2.55,51.52 0.85,15.9 3.26,29.1 7.24,39.61 3.97,10.5 10.22,15.75 18.73,15.75zm1067.16 -246.13c45.99,6.81 82.19,18.59 108.59,35.2 26.4,16.75 44.43,35.77 54.08,56.92 9.65,21.29 11.36,43.29 5.11,66.29 -6.24,22.85 -19.02,43.86 -38.33,62.74 -19.3,19.02 -44.71,34.64 -76.22,46.7 -31.51,12.21 -67.71,18.31 -108.59,18.31 -31.8,0.57 -59.76,-3.55 -83.89,-12.35 -24.13,-8.8 -46.99,-18.02 -68.56,-27.68 -26.69,26.69 -59.9,40.03 -99.65,40.03 -21.01,0 -36.76,-4.4 -47.27,-13.2 -10.5,-8.8 -15.89,-18.45 -16.18,-28.96 -0.28,-10.5 4.54,-20.29 14.48,-29.38 9.94,-9.08 24.84,-14.19 44.71,-15.33 19.88,0 39.75,2.27 59.62,6.96 8.52,-15.48 15.62,-33.79 21.29,-55.08 5.68,-21.29 10.08,-43.86 13.2,-67.71 3.13,-23.84 5.4,-48.4 6.82,-73.67 1.42,-25.26 2.41,-50.11 2.98,-74.52 0.57,-24.42 0.85,-47.69 0.85,-69.84 0,-22.14 0.29,-41.73 0.85,-58.76 0.57,-10.79 4.97,-19.17 13.2,-25.13 8.24,-5.96 17.32,-9.08 27.26,-9.37 9.93,-0.28 18.88,1.99 26.83,6.82 7.94,4.82 12.2,12.63 12.77,23.42 1.14,26.11 1.7,57.77 1.7,94.96 0,37.19 -1.84,75.37 -5.53,114.55 -3.69,39.18 -10.08,77.5 -19.17,114.98 -9.08,37.47 -22.42,69.69 -40.02,96.66 22.71,6.96 44.57,12.78 65.58,17.32 21,4.69 43.43,6.96 67.28,6.96 28.96,-0.57 54.36,-6.53 76.22,-17.89 21.86,-11.5 38.9,-25.55 51.11,-42.44 12.2,-16.75 19.3,-35.06 21.29,-54.65 1.98,-19.73 -2.56,-38.04 -13.63,-55.08 -11.07,-17.17 -29.1,-31.51 -54.08,-43.29 -24.98,-11.64 -57.92,-18.03 -98.8,-19.16 -7.95,-0.57 -11.92,-3.98 -11.92,-10.22 0,-6.25 3.97,-9.94 11.92,-11.07 23.28,-1.71 43.01,-8.95 59.19,-21.86 16.19,-12.78 28.11,-28.39 35.78,-46.99 7.66,-18.45 10.93,-38.18 9.79,-58.91 -1.14,-20.86 -7.52,-40.03 -19.16,-57.77 -11.64,-17.6 -28.68,-32.22 -51.1,-44 -22.43,-11.64 -51.25,-17.75 -86.45,-18.31 -47.13,0 -91.41,8.66 -132.86,25.97 -41.45,17.32 -77.93,39.18 -109.44,65.58 -31.52,26.4 -57.35,55.08 -77.51,86.02 -20.15,30.95 -32.64,59.76 -37.47,86.45 -4.83,26.68 -1.28,48.83 10.65,66.43 11.92,17.6 34.35,26.4 67.28,26.4 3.97,0 7.1,1.14 9.37,3.41 2.27,2.27 3.4,4.68 3.4,7.24 0,2.55 -1.13,4.96 -3.4,7.24 -2.27,2.27 -5.68,3.4 -10.22,3.4 -44.86,0 -78.5,-10.36 -100.93,-31.08 -22.42,-20.59 -34.63,-46.42 -36.62,-77.22 -1.99,-30.95 5.68,-64.59 23,-100.78 17.31,-36.34 43.29,-69.84 77.92,-100.79 34.64,-30.8 77.51,-56.63 128.61,-77.22 51.1,-20.72 109.3,-31.08 174.59,-31.08 31.8,0 63.03,4.82 93.69,14.48 30.66,9.65 58.2,22.57 82.61,38.75 24.42,16.18 44.15,34.63 59.19,55.36 15.05,20.72 22.43,42.01 22.15,63.87 -0.29,21.86 -9.51,43.3 -27.68,64.31 -18.17,21 -48.26,40.02 -90.28,57.06zm-307.46 246.99c15.33,0 28.96,-6.82 40.88,-20.3 -7.38,-1.71 -14.76,-3.13 -22.14,-4.4 -7.38,-1.14 -15.05,-1.71 -23,-1.71 -8.51,0 -15.04,1.28 -19.58,3.98 -4.55,2.55 -6.68,5.68 -6.39,9.22 0.28,3.55 2.84,6.67 7.66,9.23 4.83,2.7 12.35,3.98 22.57,3.98zm799.73 -129.46c1.14,-5.11 2.98,-8.66 5.54,-10.65 2.55,-1.98 5.11,-2.69 7.66,-2.13 2.56,0.57 4.69,2.13 6.39,4.69 1.7,2.55 2.27,5.82 1.7,9.79 -3.4,15.9 -7.24,33.5 -11.49,52.81 -4.26,19.3 -10.22,37.47 -17.89,54.5 -7.66,17.04 -17.74,31.23 -30.23,42.59 -12.5,11.35 -28.39,17.03 -47.7,17.03 -21.57,0 -38.89,-4.54 -51.95,-13.62 -13.06,-9.09 -23.14,-21.01 -30.24,-35.77 -7.09,-14.77 -11.78,-31.52 -14.05,-50.25 -2.27,-18.74 -3.12,-37.62 -2.55,-56.64 0.56,-19.02 1.84,-37.48 3.83,-55.36 1.99,-17.89 3.55,-33.64 4.68,-47.27 0,-1.13 -2.41,-1.99 -7.24,-2.55 -4.82,-0.57 -10.64,-1 -17.46,-1.28 -6.81,-0.28 -13.48,-0.43 -20.01,-0.43 -6.53,0 -11.5,0 -14.9,0 -2.28,19.87 -4.69,38.75 -7.24,56.64 -2.56,17.88 -5.82,36.2 -9.8,54.93 -1.13,5.11 -2.98,8.66 -5.53,10.65 -2.56,1.99 -5.11,2.7 -7.67,2.13 -2.55,-0.57 -4.82,-1.99 -6.81,-4.26 -1.99,-2.27 -2.42,-5.68 -1.28,-10.22 3.97,-19.87 7.38,-39.18 10.22,-57.91 2.84,-18.74 5.39,-38.05 7.67,-57.92 -18.17,-6.81 -29.95,-15.19 -35.35,-25.12 -5.39,-9.94 -6.81,-19.73 -4.26,-29.39 2.56,-9.65 7.81,-17.6 15.76,-23.84 7.95,-6.25 15.9,-8.95 23.85,-8.09 7.94,0.85 14.47,6.67 19.58,17.45 5.11,10.79 6.25,28.68 3.41,53.66 16.47,-0.57 32.36,-0.71 47.69,-0.43 15.34,0.29 30.95,0.71 46.85,1.28 11.35,0 21.57,2.98 30.66,8.95 9.08,5.96 13.34,13.48 12.77,22.56 0,6.25 -0.85,15.9 -2.55,28.96 -1.7,13.06 -3.41,27.54 -5.11,43.44 -1.71,15.9 -2.98,32.08 -3.83,48.54 -0.86,16.47 -0.57,31.52 0.85,45.14 1.42,13.63 4.26,24.7 8.51,33.22 4.26,8.51 10.93,12.77 20.02,12.77 12.49,0 23.14,-4.68 31.94,-14.05 8.8,-9.37 16.18,-20.72 22.14,-34.07 5.96,-13.34 10.79,-27.25 14.48,-41.73 3.69,-14.48 6.67,-27.39 8.94,-38.75zm357.71 0c1.13,-5.11 2.98,-8.66 5.53,-10.65 2.56,-1.98 5.11,-2.69 7.67,-2.13 2.55,0.57 4.68,2.13 6.39,4.69 1.7,2.55 2.27,5.82 1.7,9.79 -3.41,15.9 -7.24,33.36 -11.5,52.38 -4.26,19.02 -10.22,37.05 -17.88,54.08 -7.67,17.04 -17.75,31.23 -30.24,42.59 -12.49,11.35 -28.39,17.31 -47.69,17.88 -14.2,0 -26.4,-2.13 -36.62,-6.39 -10.22,-4.25 -19.03,-10.36 -26.41,-18.31 -7.38,-7.95 -13.2,-17.17 -17.46,-27.68 -4.25,-10.5 -7.52,-22 -9.79,-34.49 -3.41,11.36 -7.67,22.14 -12.78,32.36 -5.11,10.22 -11.21,19.45 -18.31,27.68 -7.09,8.24 -15.33,14.77 -24.7,19.59 -9.36,4.83 -20.29,7.24 -32.79,7.24 -20.44,0.57 -36.9,-3.69 -49.39,-12.77 -12.49,-9.09 -22.15,-21.01 -28.96,-35.77 -6.81,-14.77 -11.36,-31.52 -13.63,-50.25 -2.27,-18.74 -3.12,-37.9 -2.55,-57.49 0.57,-19.59 1.84,-38.33 3.83,-56.21 1.99,-17.89 3.55,-33.64 4.69,-47.27 0.56,-9.09 5.1,-16.04 13.62,-20.87 8.52,-4.82 17.46,-7.09 26.83,-6.81 9.37,0.28 17.88,3.26 25.55,8.94 7.66,5.68 11.21,14.48 10.65,26.4 0,6.25 -0.86,15.9 -2.56,28.96 -1.7,13.06 -3.41,27.54 -5.11,43.44 -1.7,15.9 -2.98,32.08 -3.83,48.54 -0.85,16.47 -0.57,31.52 0.85,45.14 1.42,13.63 4.26,24.7 8.52,33.22 4.26,8.51 10.93,12.77 20.01,12.77 11.93,0 22.15,-4.26 30.66,-12.77 8.52,-8.52 15.76,-18.88 21.72,-31.09 5.96,-12.21 10.79,-25.27 14.48,-39.18 3.69,-13.91 6.67,-26.54 8.94,-37.9 1.14,-18.73 2.56,-36.62 4.26,-53.65 1.7,-17.04 3.12,-32.08 4.26,-45.14 0.57,-9.09 5.11,-16.04 13.62,-20.87 8.52,-4.82 17.46,-7.09 26.83,-6.81 9.37,0.28 17.89,3.26 25.55,8.94 7.67,5.68 11.22,14.48 10.65,26.4 0,6.25 -0.85,15.9 -2.56,28.96 -1.7,13.06 -3.4,27.54 -5.11,43.44 -1.7,15.9 -2.98,32.08 -3.83,48.54 -0.85,16.47 -0.57,31.52 0.85,45.14 1.42,13.63 4.26,24.7 8.52,33.22 4.26,8.51 10.93,12.77 20.01,12.77 12.5,0 23.14,-4.68 31.94,-14.05 8.8,-9.37 16.19,-20.72 22.15,-34.07 5.96,-13.34 10.78,-27.25 14.47,-41.73 3.7,-14.48 6.68,-27.39 8.95,-38.75z"/>
  </g>
  <path class="fil0" d="M3490.27 480.92c21.18,59.67 59.68,114.54 115.51,164.59 55.83,50.05 117.43,99.63 184.81,148.72 67.38,49.09 135.24,100.1 203.58,153.04 68.34,52.94 125.13,112.62 170.37,179.04 45.24,66.42 73.16,141.98 83.75,226.68 10.58,84.71 -8.19,181.92 -56.31,291.66 -38.51,86.63 -90.97,158.34 -157.38,215.13 -66.42,56.79 -139.57,99.62 -219.46,128.5 -79.9,28.87 -163.64,44.27 -251.23,46.2 -87.59,1.92 -170.85,-8.18 -249.78,-30.32 -78.93,-22.14 -150.64,-56.31 -215.13,-102.51 -64.5,-46.2 -114.07,-103 -148.72,-170.37 -34.65,-67.38 -51.01,-145.35 -49.09,-233.91 1.92,-88.55 29.84,-185.77 83.74,-291.65 5.78,-9.63 13.48,-14.92 23.1,-15.88 9.63,-0.97 18.29,0.48 25.99,4.33 7.7,3.85 13.48,10.1 17.33,18.77 3.85,8.66 3.85,16.84 0,24.54 -48.13,98.18 -65.45,188.18 -51.98,270 13.48,81.82 45.72,150.64 96.74,206.47 51.01,55.83 116.47,97.22 196.36,124.17 79.89,26.95 160.75,35.13 242.56,24.54 81.82,-10.59 160.27,-41.87 235.35,-93.84 75.08,-51.98 134.75,-128.03 179.03,-228.13 28.88,-67.38 36.58,-128.98 23.1,-184.81 -13.47,-55.83 -40.42,-108.77 -80.85,-158.82 -40.43,-50.06 -90,-98.67 -148.71,-145.83 -58.72,-47.17 -118.4,-94.81 -179.04,-142.94 -60.64,-48.13 -118.39,-97.22 -173.26,-147.27 -54.87,-50.05 -98.66,-104.92 -131.39,-164.6 -90.48,46.21 -178.55,96.26 -264.22,150.16 -85.67,53.9 -163.15,114.54 -232.46,181.92 -69.3,67.38 -125.61,142.46 -168.93,225.24 -43.31,82.78 -67.86,176.15 -73.63,280.11 0,7.69 -4.33,13.47 -13,17.32 -8.66,3.85 -17.32,5.78 -25.99,5.78 -8.66,0 -16.36,-2.41 -23.1,-7.22 -6.73,-4.81 -10.1,-12.03 -10.1,-21.66 5.77,-113.58 32.24,-215.13 79.41,-304.65 47.16,-89.52 106.84,-169.89 179.03,-241.12 72.19,-71.23 153.53,-135.24 244.01,-192.03 90.48,-56.79 182.88,-109.25 277.22,-157.38 -28.88,-84.7 -34.66,-160.26 -17.33,-226.68 17.33,-66.41 47.65,-122.24 90.96,-167.48 43.32,-45.24 94.81,-79.41 154.49,-102.51 59.68,-23.11 115.99,-35.14 168.93,-36.1 52.94,-0.96 98.18,10.59 135.72,34.65 37.54,24.06 57.27,61.12 59.2,111.18 0,38.5 -11.07,75.08 -33.21,109.73 -22.14,34.65 -50.05,65.93 -83.74,93.85 -33.69,27.91 -69.79,52.94 -108.29,75.08 -38.5,22.14 -73.15,40.9 -103.96,56.31zm219.47 -285.88c0,-38.51 -12.52,-61.61 -37.54,-69.31 -25.03,-7.7 -52.46,-1.44 -82.3,18.77 -29.84,20.22 -56.79,52.46 -80.86,96.74 -24.06,44.28 -35.13,99.14 -33.2,164.6 21.17,-9.63 45.24,-21.18 72.19,-34.66 26.95,-13.47 52.46,-28.87 76.52,-46.2 24.06,-17.32 44.28,-36.57 60.64,-57.75 16.36,-21.18 24.55,-45.24 24.55,-72.19z"/>
  <path class="fil1" d="M4238.11 758.17c40,20.79 61.36,79.95 82.22,127.05 18.25,41.23 66.75,115.15 9.7,129.28 -95.7,23.69 -175.41,-202.03 -91.92,-256.33zm-145.02 333.61c34.74,-30.51 97.68,-63.69 148.97,-84.47 34.3,1.94 102.44,86.09 140.67,-20.73 0.51,-1.39 1.08,-4.07 2.19,-5.81 258.87,-4.44 220.01,-157.33 301.48,-203.18 31.14,-17.53 67.7,-50.76 73.64,-97.08 10.07,-78.27 -38.09,-66.23 -85.11,-85.46 -27.31,-11.18 -29.36,-57.54 -85.75,-81.91 -98.02,-42.37 -183.99,68.79 -233.61,95.03 6.05,-59.4 -11.41,-104.11 -40.79,-128.02 -35.52,-28.89 -94.03,-26.42 -128.16,2.36 -65.65,55.35 47.61,150.12 53.98,242.72 -57.62,49.76 -46.01,68.2 -54.24,154.11 -13.56,4.23 -94.8,115.77 -113.26,136 -13.39,14.69 1.1,5.2 -18.49,16.94 -11.94,-14.42 30.19,46 38.48,59.5zm490.79 -415.29c-38.58,1.65 -60.51,60.1 -66.89,100.17 22.92,-35.57 29.37,-92.8 95.61,-78.91 86.22,83.85 -47.02,218.98 -121.36,249.92 -169.37,70.49 -196.2,-139.32 -72.96,-175.21 -58.26,-0.02 -70.96,33.92 -94.14,74.3 -39.47,-43.82 -58.38,-65.79 -65.57,-142.5 -5.34,-57.04 -44.1,-100.59 -64.33,-148.39 -41.42,-97.89 171.67,-149.43 143.84,106.25 57.99,13.66 51.85,44.4 68.87,63.31 15.06,-38.18 -23.91,-61.2 -53.82,-71.27 13.94,-39.14 80.03,-91.42 126.76,-112.65 60.78,-27.6 151.71,-15.19 151.68,51.6 -24.95,35.1 -122.16,47.12 -165.33,66.75l22.86 51.81c14.84,-43.26 -49.11,-24.37 69.64,-69.45 226.77,-86.11 221.13,65.75 105.11,125.58 -12.67,-42.62 -19.66,-93.89 -79.97,-91.31z"/>
  <path class="fil2" d="M3339.15 1162.09c-10.1,-14.37 -19.26,-30.78 -25.57,-49.26 -6.32,-18.47 -9.79,-38.99 -10.74,-58.56 -0.94,-19.58 0.64,-38.21 6.63,-52.57 6,-14.37 16.42,-24.47 28.74,-30.63 12.31,-6.16 26.52,-8.37 40.25,-7.42 13.74,0.95 27,5.05 40.44,10.42 13.44,5.37 27.05,12 38.89,19.74 11.84,7.73 21.9,16.57 32.62,27.3 10.72,10.74 22.08,23.37 31.71,35.84 9.63,12.47 17.53,24.78 24.31,39.31 6.79,14.52 12.48,31.26 15.79,47.36 3.32,16.1 4.26,31.57 1.89,45.94 -2.36,14.36 -8.05,27.63 -15.31,36.62 -7.26,9 -16.1,13.74 -24.63,17.53 -8.52,3.79 -16.73,6.63 -27.44,7.57 -10.72,0.95 -23.94,0 -37.99,-3.15 -14.05,-3.16 -28.93,-8.53 -43.63,-16.74 -14.7,-8.21 -29.23,-19.26 -42.01,-30.94 -12.79,-11.68 -23.84,-23.99 -33.95,-38.36z"/>
  <g style="clip-path:url(#id0)">
   <g id="_1945153449952">
    <path id="_1" class="fil3" d="M3402.05 1079.49c24.59,17.96 50.28,47.12 67.02,73.79 39.73,63.29 4.49,139.03 -83.24,72.57 -65.07,-49.31 -90.53,-147.93 -55.68,-168 -1.05,2.81 -1.62,5.84 -1.62,9.01 0,14.46 11.97,26.19 26.73,26.19 14.76,0 26.74,-11.73 26.74,-26.19l-0.01 -0.42c6.23,3.51 12.9,7.82 20.06,13.05z"/>
   </g>
  </g>
  <path class="fil4 str0" d="M3339.15 1162.09c-10.1,-14.37 -19.26,-30.78 -25.57,-49.26 -6.32,-18.47 -9.79,-38.99 -10.74,-58.56 -0.94,-19.58 0.64,-38.21 6.63,-52.57 6,-14.37 16.42,-24.47 28.74,-30.63 12.31,-6.16 26.52,-8.37 40.25,-7.42 13.74,0.95 27,5.05 40.44,10.42 13.44,5.37 27.05,12 38.89,19.74 11.84,7.73 21.9,16.57 32.62,27.3 10.72,10.74 22.08,23.37 31.71,35.84 9.63,12.47 17.53,24.78 24.31,39.31 6.79,14.52 12.48,31.26 15.79,47.36 3.32,16.1 4.26,31.57 1.89,45.94 -2.36,14.36 -8.05,27.63 -15.31,36.62 -7.26,9 -16.1,13.74 -24.63,17.53 -8.52,3.79 -16.73,6.63 -27.44,7.57 -10.72,0.95 -23.94,0 -37.99,-3.15 -14.05,-3.16 -28.93,-8.53 -43.63,-16.74 -14.7,-8.21 -29.23,-19.26 -42.01,-30.94 -12.79,-11.68 -23.84,-23.99 -33.95,-38.36z"/>
  <path class="fil2" d="M3177.33 1264.87c-10.1,-14.36 -19.26,-30.78 -25.57,-49.25 -6.32,-18.47 -9.79,-38.99 -10.74,-58.57 -0.94,-19.57 0.64,-38.2 6.63,-52.57 6,-14.37 16.42,-24.47 28.73,-30.62 12.32,-6.16 26.53,-8.37 40.26,-7.42 13.74,0.94 27,5.05 40.44,10.41 13.44,5.37 27.05,12 38.89,19.74 11.84,7.74 21.9,16.57 32.62,27.31 10.72,10.73 22.08,23.36 31.71,35.84 9.63,12.47 17.53,24.78 24.31,39.3 6.79,14.53 12.48,31.26 15.79,47.36 3.32,16.11 4.26,31.58 1.89,45.94 -2.36,14.37 -8.05,27.63 -15.31,36.63 -7.26,9 -16.1,13.73 -24.62,17.52 -8.53,3.79 -16.74,6.64 -27.45,7.58 -10.72,0.95 -23.94,0 -37.99,-3.16 -14.05,-3.16 -28.93,-8.52 -43.63,-16.73 -14.7,-8.21 -29.23,-19.26 -42.02,-30.94 -12.78,-11.68 -23.83,-24 -33.94,-38.37z"/>
  <g style="clip-path:url(#id1)">
   <g id="_1945153444720">
    <path id="_1_0" class="fil3" d="M3240.23 1182.28c24.59,17.96 50.28,47.12 67.02,73.78 39.73,63.3 4.49,139.04 -83.24,72.57 -65.07,-49.3 -90.53,-147.93 -55.68,-168 -1.05,2.81 -1.62,5.85 -1.62,9.01 0,14.47 11.97,26.19 26.73,26.19 14.76,0 26.74,-11.72 26.74,-26.19l-0.01 -0.42c6.23,3.52 12.9,7.83 20.06,13.06z"/>
   </g>
  </g>
  <path class="fil4 str0" d="M3177.33 1264.87c-10.1,-14.36 -19.26,-30.78 -25.57,-49.25 -6.32,-18.47 -9.79,-38.99 -10.74,-58.57 -0.94,-19.57 0.64,-38.2 6.63,-52.57 6,-14.37 16.42,-24.47 28.73,-30.62 12.32,-6.16 26.53,-8.37 40.26,-7.42 13.74,0.94 27,5.05 40.44,10.41 13.44,5.37 27.05,12 38.89,19.74 11.84,7.74 21.9,16.57 32.62,27.31 10.72,10.73 22.08,23.36 31.71,35.84 9.63,12.47 17.53,24.78 24.31,39.3 6.79,14.53 12.48,31.26 15.79,47.36 3.32,16.11 4.26,31.58 1.89,45.94 -2.36,14.37 -8.05,27.63 -15.31,36.63 -7.26,9 -16.1,13.73 -24.62,17.52 -8.53,3.79 -16.74,6.64 -27.45,7.58 -10.72,0.95 -23.94,0 -37.99,-3.16 -14.05,-3.16 -28.93,-8.52 -43.63,-16.73 -14.7,-8.21 -29.23,-19.26 -42.02,-30.94 -12.78,-11.68 -23.83,-24 -33.94,-38.37z"/>
  <path class="fil3" d="M3324.24 1492.32c-5.24,9.05 3.66,27.45 11.75,50.91 8.09,23.47 15.37,52.01 19.91,74.8 4.54,22.79 6.34,39.84 9.33,56.36 2.99,16.52 7.17,32.51 12.2,44.86 5.04,12.35 10.93,21.07 18.18,28.23 7.25,7.16 15.85,12.78 25.38,15.02 9.53,2.24 19.98,1.12 35.46,-2.92 15.48,-4.04 35.98,-10.99 52.35,-18.6 16.38,-7.61 28.63,-15.86 40.77,-26.35 12.15,-10.48 24.18,-23.19 36.3,-37.99 12.12,-14.81 24.32,-31.71 35.46,-48.78 11.15,-17.06 21.24,-34.29 30.63,-54.55 9.38,-20.25 18.05,-43.53 26.1,-63.46 8.06,-19.93 15.5,-36.52 19.67,-49.35 4.18,-12.83 5.09,-21.9 6.08,-29.53 1,-7.64 2.09,-13.85 1.86,-19.21 -0.22,-5.36 -1.77,-9.89 -11.05,-6.21 -9.27,3.68 -26.29,15.57 -47.75,26.55 -21.45,10.98 -47.36,21.05 -74.96,28.57 -27.59,7.51 -56.86,12.47 -91.09,15.9 -34.22,3.44 -73.4,5.37 -102.68,6.18 -29.27,0.81 -48.66,0.52 -53.9,9.57z"/>
  <path class="fil5" d="M3512.13 1722.87c-4.27,-8.33 -11.22,-21 -18.71,-33.82 -7.49,-12.8 -15.5,-25.75 -24.5,-35.9 -9,-10.16 -18.97,-17.52 -31.19,-22.41 -12.22,-4.88 -26.69,-7.29 -37.7,-8.74 -11,-1.46 -18.54,-1.97 -25.14,-1.82 -6.59,0.16 -12.24,0.98 -14.63,3.97 -2.39,2.99 -1.53,8.17 -0.19,19.58 1.34,11.41 3.15,29.05 6.58,45.84 3.43,16.79 8.48,32.73 15.66,44.73 7.19,12 16.53,20.08 28,24.8 11.47,4.72 25.07,6.08 41.12,3.4 16.05,-2.69 34.54,-9.42 46.3,-13.99 11.76,-4.57 16.79,-6.98 18.51,-10.17 1.73,-3.19 0.16,-7.15 -4.11,-15.47z"/>
  <g style="clip-path:url(#id2)">
   <g id="_1945153445104">
    <path id="_1_1" class="fil2" d="M3467.32 1649.21c3.29,6.17 7.69,16.31 9.65,23.83 1.98,7.51 1.52,12.4 -1.31,15.44 -2.83,3.03 -8.03,4.2 -12,2.35 -3.97,-1.85 -6.72,-6.72 -8.92,-13.22 -2.19,-6.5 -3.84,-14.63 -4.84,-20.61 -1.01,-5.97 -1.36,-9.79 -4.48,-10.42 -3.12,-0.62 -9,1.95 -14.7,2.8 -5.71,0.85 -11.23,-0.02 -14.08,-4.2 -2.85,-4.17 -3.02,-11.64 -1.76,-16.52 1.27,-4.87 3.97,-7.15 7.85,-7.95 3.88,-0.8 8.95,-0.14 13.23,1.17 4.28,1.31 7.77,3.25 11.58,6.15 3.82,2.9 7.97,6.76 11.14,9.79 3.17,3.02 5.36,5.22 8.64,11.39z"/>
   </g>
  </g>
  <path class="fil4" d="M3512.13 1722.87c-4.27,-8.33 -11.22,-21 -18.71,-33.82 -7.49,-12.8 -15.5,-25.75 -24.5,-35.9 -9,-10.16 -18.97,-17.52 -31.19,-22.41 -12.22,-4.88 -26.69,-7.29 -37.7,-8.74 -11,-1.46 -18.54,-1.97 -25.14,-1.82 -6.59,0.16 -12.24,0.98 -14.63,3.97 -2.39,2.99 -1.53,8.17 -0.19,19.58 1.34,11.41 3.15,29.05 6.58,45.84 3.43,16.79 8.48,32.73 15.66,44.73 7.19,12 16.53,20.08 28,24.8 11.47,4.72 25.07,6.08 41.12,3.4 16.05,-2.69 34.54,-9.42 46.3,-13.99 11.76,-4.57 16.79,-6.98 18.51,-10.17 1.73,-3.19 0.16,-7.15 -4.11,-15.47z"/>
  <path class="fil2" d="M3353.75 1543.7c4.66,1.67 11.48,7.97 21.78,11.76 10.31,3.8 24.12,5.08 37.37,2 13.25,-3.09 25.95,-10.56 36.22,-10.42 10.26,0.15 18.09,7.89 29.16,14.83 11.07,6.94 25.38,13.07 39.71,15.99 14.33,2.92 28.67,2.62 46.66,-2.42 18,-5.05 39.66,-14.85 55.69,-23.48 16.03,-8.65 26.43,-16.13 36.4,-23.39 9.97,-7.27 19.51,-14.31 25.24,-23.73 5.74,-9.42 7.67,-21.21 10.22,-33.08 2.56,-11.88 5.74,-23.83 8.18,-32.05 2.44,-8.21 4.13,-12.68 5.52,-19.13 1.38,-6.46 2.46,-14.91 -2.97,-15.9 -5.43,-0.98 -17.37,5.49 -34.63,13.92 -17.26,8.43 -39.83,18.81 -59.03,26.62 -19.2,7.81 -35.02,13.04 -51.28,16.95 -16.26,3.91 -32.96,6.5 -52.62,9.1 -19.66,2.59 -42.28,5.19 -63.35,7.07 -21.06,1.88 -40.57,3.04 -60.03,2.26 -19.45,-0.77 -38.86,-3.47 -50.09,-1.98 -11.24,1.5 -14.29,7.21 -14.17,15.49 0.12,8.29 3.43,19.16 8.35,28.57 4.92,9.41 11.45,17.35 15.97,19.84 4.53,2.48 7.04,-0.48 11.7,1.18z"/>
  <path class="fil1" d="M3248.5 1603.5c-3.57,-0.33 -5.62,-10.31 -6.85,-22.34 -1.23,-12.03 -1.65,-26.08 0.02,-39.5 1.67,-13.41 5.43,-26.16 11,-37.5 5.57,-11.34 12.95,-21.27 20.8,-29.11 7.85,-7.85 16.17,-13.61 23.62,-18.34 7.45,-4.73 14.04,-8.44 19.46,-11.01 5.43,-2.56 9.69,-3.99 12.12,-4.82 2.43,-0.83 3.03,-1.06 0.67,3.18 -2.37,4.25 -7.69,12.97 -10.36,17.33 -2.66,4.37 -2.66,4.37 1.97,4.49 4.64,0.12 13.91,0.36 25.23,0.55 11.31,0.19 24.67,0.33 38.24,0.7 13.57,0.38 27.34,0.99 42.18,0.84 14.84,-0.15 30.74,-1.06 47.32,-2.68 16.57,-1.63 33.82,-3.97 52.07,-6.93 18.25,-2.97 37.5,-6.55 56.99,-12.18 19.5,-5.62 39.23,-13.29 57.15,-20.6 17.92,-7.31 34.03,-14.27 49.25,-23.51 15.22,-9.24 29.55,-20.78 41.83,-32.55 12.29,-11.77 22.54,-23.79 31.39,-35.83 8.85,-12.05 16.32,-24.12 22.86,-35.04 6.54,-10.91 12.15,-20.67 16.35,-30.22 4.21,-9.55 7,-18.89 9.56,-27.34 2.57,-8.46 4.91,-16.02 7.23,-23.92 2.32,-7.9 4.62,-16.14 5.11,-13.11 0.49,3.02 -0.84,17.3 -3.94,32.93 -3.1,15.64 -7.98,32.62 -14.61,48.62 -6.62,16 -15.01,31.01 -23.67,44.15 -8.65,13.14 -17.58,24.41 -26.5,35.11 -8.92,10.69 -17.84,20.81 -25.79,28.38 -7.96,7.56 -14.96,12.58 -18.46,15.08 -3.49,2.51 -3.49,2.51 -12.8,8.08 -9.31,5.57 -27.92,16.71 -46.96,26.17 -19.03,9.46 -38.49,17.25 -60.62,24.36 -22.12,7.11 -46.93,13.54 -74.89,18.33 -27.96,4.79 -59.08,7.95 -87.25,9.26 -28.17,1.31 -53.38,0.79 -68.68,0.08 -15.3,-0.71 -20.69,-1.59 -23.39,-2.04 -2.69,-0.44 -2.69,-0.44 -1.3,4.64 1.4,5.07 4.2,15.23 8.47,28.25 4.26,13.03 9.97,28.93 14.3,45.95 4.32,17.02 7.24,35.16 9.66,53.49 2.42,18.33 4.35,36.85 6.56,52.28 2.21,15.43 4.71,27.76 9.48,39.45 4.77,11.67 11.81,22.71 20.26,29.4 8.46,6.69 18.32,9.06 29.01,8.8 10.68,-0.25 22.18,-3.12 35.41,-7.46 13.23,-4.34 28.18,-10.15 43.18,-18.16 15.02,-8.01 30.08,-18.23 43.6,-29.8 13.52,-11.56 25.47,-24.47 37.43,-39.44 11.96,-14.97 23.93,-32.01 34.53,-48.98 10.61,-16.97 19.87,-33.88 28.06,-50.59 8.18,-16.72 15.29,-33.25 21.23,-47.49 5.93,-14.24 10.7,-26.18 14.52,-37.88 3.83,-11.7 6.72,-23.15 8.83,-31.88 2.12,-8.74 3.45,-14.76 4.35,-13.62 0.9,1.14 1.37,9.45 -2.73,27.22 -4.11,17.77 -12.79,45 -23.1,72.18 -10.31,27.18 -22.25,54.3 -35.88,78.87 -13.62,24.57 -28.92,46.58 -40.67,62.39 -11.75,15.81 -19.95,25.42 -28.47,34.47 -8.53,9.05 -17.39,17.54 -27.16,25.46 -9.76,7.93 -20.44,15.29 -33.57,22.23 -13.13,6.94 -28.72,13.46 -42.49,17.89 -13.76,4.44 -25.69,6.78 -37.17,6.76 -11.47,-0.01 -22.49,-2.38 -32.04,-6.58 -9.55,-4.2 -17.63,-10.24 -23.82,-17.59 -6.18,-7.34 -10.46,-16 -13.83,-26.74 -3.37,-10.73 -5.83,-23.54 -8.39,-39.29 -2.57,-15.75 -5.25,-34.44 -7.99,-50.35 -2.74,-15.91 -5.55,-29.05 -8.91,-43 -3.36,-13.95 -7.27,-28.72 -11.87,-41.15 -4.61,-12.44 -9.9,-22.54 -13.85,-31.79 -3.94,-9.25 -6.51,-17.65 -8.47,-23.57 -1.96,-5.92 -3.29,-9.35 -6.13,-7.79 -2.83,1.55 -7.17,8.11 -11.22,17.63 -4.06,9.52 -7.83,21.99 -11.74,35.56 -3.9,13.56 -7.94,28.21 -12.5,40.19 -4.57,11.98 -9.66,21.31 -13.23,20.97z"/>
  <path class="fil1 str1" d="M3077.87 1192.62c-0.68,-26.78 -1.16,-101.1 2.06,-121.39 13.23,-83.45 133.58,-76.86 155.95,-51.74 4.7,5.28 -16.88,5.28 -38.79,5.28 -21.9,0 -44.12,0 -61.91,8.14 -17.79,8.14 -31.15,24.41 -39.51,48.45 -8.35,24.03 -14.45,79.48 -17.8,111.26z"/>
  <path class="fil1 str1" d="M3474.71 893.47c-25.89,-6.86 -98.08,-24.55 -118.57,-26.13 -84.24,-6.47 -105.73,112.13 -86.48,139.71 4.05,5.8 9.05,-15.2 14.13,-36.51 5.08,-21.3 10.23,-42.92 22.27,-58.34 12.04,-15.42 30.97,-24.64 56.29,-27.2 25.31,-2.55 80.66,4.37 112.36,8.47z"/>
  <path class="fil1" d="M2709.45 1745.95c-4.36,44.87 33.59,95.01 61.72,138.18 24.62,37.77 60.17,118.72 103.1,78.58 72.02,-67.33 -73.79,-257.17 -164.82,-216.76zm358.75 60.22c-44.51,12.49 -106.64,47.19 -152,78.86 -17.07,29.82 16.35,132.81 -94.05,106.66 -1.44,-0.34 -4,-1.32 -6.07,-1.33 -144.79,214.62 -251.81,98.73 -334.65,142.04 -31.67,16.56 -79.46,29.1 -121.53,8.85 -71.11,-34.22 -34.77,-68.03 -25.27,-117.94 5.5,-28.99 -32.25,-55.98 -21.95,-116.54 17.89,-105.28 157.94,-116.77 206.99,-144.08 -53.1,-27.3 -81.07,-66.31 -85.11,-103.97 -4.87,-45.52 29.09,-93.24 71.81,-106.17 82.2,-24.88 99.94,121.73 174.1,177.54 73.12,-21.2 82.26,-1.42 158.78,38.51 10.93,-9.07 148.73,-16.4 175.75,-20.85 19.62,-3.23 3.76,3.75 24.28,-6.28 -5.59,-17.86 22.12,50.38 28.92,64.7zm-615.67 185.18c22.41,-31.45 83.36,-17.99 120.44,-1.5 -42.31,-0.17 -93.81,-25.95 -118.27,37.16 23.32,117.99 209.23,79.92 275.69,34.45 151.4,-103.6 -9.89,-240.44 -107.15,-156.66 31.73,-48.86 67.12,-41.01 113.6,-38.44 -15.22,-56.97 -23.34,-84.8 -83.74,-132.64 -44.92,-35.56 -60.31,-91.79 -89.36,-134.8 -59.51,-88.08 -218.85,62.5 10.7,178.51 -20.15,56.06 8.96,67.67 15.55,92.24 -40.22,-8.18 -38.29,-53.39 -30.42,-83.96 -40.42,-9.65 -120.27,17.28 -163.54,44.89 -56.27,35.92 -95.41,118.92 -39.4,155.29 43.03,-1.79 106.08,-76.74 146.07,-102.24l30.98 47.4c-44.36,-11.13 6.33,-54.45 -96.18,20.55 -195.78,143.2 -65.38,221.24 48,156.56 -28.82,-33.85 -67.99,-67.65 -32.97,-116.81z"/>
 </g>
</svg>
