<?xml version="1.0" encoding="UTF-8"?>
<!DOCTYPE svg PUBLIC "-//W3C//DTD SVG 1.1//EN" "http://www.w3.org/Graphics/SVG/1.1/DTD/svg11.dtd">
<!-- Creator: CorelDRAW 2021 (64 Bit) -->
<svg xmlns="http://www.w3.org/2000/svg" xml:space="preserve" width="1027px" height="550px" version="1.1" style="shape-rendering:geometricPrecision; text-rendering:geometricPrecision; image-rendering:optimizeQuality; fill-rule:evenodd; clip-rule:evenodd"
viewBox="0 0 1027 549.839"
 xmlns:xlink="http://www.w3.org/1999/xlink"
 xmlns:xodm="http://www.corel.com/coreldraw/odm/2003">
 <defs>
  <style type="text/css">
   <![CDATA[
    .str0 {stroke:#F9F7DC;stroke-width:2.359;stroke-miterlimit:22.9256}
    .str1 {stroke:#F9F7DC;stroke-width:2.666;stroke-miterlimit:22.9256}
    .fil2 {fill:none}
    .fil1 {fill:#F9F7DC}
    .fil3 {fill:#FEFEFE}
    .fil0 {fill:#F9F7DC;fill-rule:nonzero}
   ]]>
  </style>
   <clipPath id="id0">
    <path d="M548.745 240.959c-1.66,-2.36 -3.166,-5.059 -4.203,-8.094 -1.039,-3.036 -1.609,-6.409 -1.765,-9.625 -0.155,-3.218 0.105,-6.278 1.089,-8.64 0.987,-2.362 2.699,-4.022 4.722,-5.033 2.026,-1.012 4.361,-1.375 6.617,-1.219 2.257,0.154 4.436,0.83 6.645,1.71 2.209,0.883 4.448,1.973 6.394,3.245 1.944,1.27 3.598,2.724 5.359,4.487 1.761,1.765 3.63,3.841 5.212,5.89 1.583,2.05 2.88,4.073 3.996,6.461 1.116,2.387 2.049,5.137 2.595,7.783 0.544,2.648 0.7,5.188 0.311,7.55 -0.39,2.362 -1.324,4.541 -2.517,6.019 -1.193,1.479 -2.646,2.258 -4.048,2.881 -1.4,0.621 -2.75,1.09 -4.51,1.244 -1.762,0.156 -3.934,0 -6.244,-0.518 -2.309,-0.519 -4.755,-1.401 -7.17,-2.751 -2.417,-1.349 -4.803,-3.164 -6.905,-5.085 -2.102,-1.92 -3.918,-3.943 -5.579,-6.305l0.001 0z"/>
   </clipPath>
   <clipPath id="id1">
    <path d="M522.15 257.852c-1.66,-2.36 -3.165,-5.059 -4.202,-8.095 -1.039,-3.035 -1.609,-6.408 -1.766,-9.625 -0.156,-3.218 0.104,-6.278 1.09,-8.64 0.986,-2.362 2.699,-4.021 4.722,-5.032 2.025,-1.013 4.359,-1.376 6.617,-1.221 2.257,0.156 4.436,0.831 6.645,1.712 2.209,0.883 4.446,1.972 6.392,3.245 1.946,1.27 3.599,2.723 5.361,4.486 1.76,1.766 3.629,3.842 5.212,5.891 1.583,2.049 2.879,4.073 3.995,6.461 1.116,2.386 2.05,5.136 2.594,7.782 0.545,2.648 0.7,5.189 0.312,7.551 -0.389,2.36 -1.323,4.541 -2.518,6.018 -1.193,1.48 -2.644,2.259 -4.046,2.882 -1.401,0.621 -2.75,1.089 -4.512,1.244 -1.76,0.156 -3.933,0 -6.242,-0.52 -2.309,-0.517 -4.755,-1.4 -7.171,-2.75 -2.416,-1.349 -4.802,-3.165 -6.905,-5.085 -2.102,-1.919 -3.918,-3.942 -5.578,-6.304z"/>
   </clipPath>
   <clipPath id="id2">
    <path d="M577.173 333.122c-0.701,-1.367 -1.846,-3.451 -3.077,-5.557 -1.229,-2.105 -2.545,-4.232 -4.024,-5.902 -1.48,-1.668 -3.118,-2.88 -5.127,-3.681 -2.008,-0.803 -4.386,-1.199 -6.194,-1.438 -1.81,-0.239 -3.049,-0.323 -4.132,-0.298 -1.085,0.024 -2.012,0.161 -2.405,0.652 -0.394,0.492 -0.251,1.342 -0.033,3.217 0.221,1.875 0.52,4.776 1.082,7.536 0.564,2.759 1.393,5.377 2.575,7.349 1.182,1.973 2.716,3.301 4.601,4.077 1.885,0.775 4.12,0.999 6.758,0.558 2.638,-0.44 5.677,-1.548 7.609,-2.299 1.933,-0.751 2.76,-1.147 3.043,-1.672 0.284,-0.524 0.026,-1.175 -0.676,-2.542l0 0z"/>
   </clipPath>
 </defs>
 <g id="Camada_x0020_1">
  <metadata id="CorelCorpID_0Corel-Layer"/>
  <g id="_1554730607952">
   <path class="fil0 str0" d="M50.328 415.187c1.026,2.892 2.893,5.552 5.598,7.978 2.707,2.425 5.694,4.828 8.959,7.208 3.266,2.38 6.555,4.854 9.868,7.419 3.312,2.566 6.065,5.458 8.257,8.678 2.193,3.22 3.547,6.882 4.06,10.988 0.513,4.105 -0.396,8.819 -2.73,14.137 -1.865,4.2 -4.408,7.676 -7.627,10.429 -3.22,2.751 -6.765,4.829 -10.638,6.227 -3.873,1.401 -7.931,2.147 -12.178,2.24 -4.246,0.094 -8.282,-0.396 -12.107,-1.469 -3.826,-1.073 -7.302,-2.73 -10.428,-4.97 -3.126,-2.239 -5.529,-4.992 -7.209,-8.257 -1.68,-3.266 -2.472,-7.046 -2.38,-11.339 0.094,-4.291 1.447,-9.004 4.06,-14.137 0.279,-0.466 0.652,-0.723 1.119,-0.768 0.467,-0.048 0.887,0.022 1.261,0.208 0.373,0.188 0.652,0.49 0.84,0.911 0.185,0.419 0.185,0.817 0,1.19 -2.334,4.758 -3.174,9.121 -2.52,13.087 0.652,3.965 2.216,7.301 4.689,10.008 2.472,2.705 5.646,4.712 9.518,6.019 3.872,1.306 7.792,1.702 11.758,1.19 3.966,-0.515 7.767,-2.03 11.406,-4.55 3.641,-2.519 6.533,-6.206 8.68,-11.058 1.399,-3.266 1.772,-6.252 1.119,-8.957 -0.654,-2.707 -1.959,-5.273 -3.92,-7.699 -1.959,-2.427 -4.362,-4.782 -7.209,-7.069 -2.844,-2.286 -5.737,-4.595 -8.677,-6.929 -2.939,-2.332 -5.738,-4.712 -8.399,-7.138 -2.659,-2.426 -4.781,-5.085 -6.367,-7.979 -4.387,2.24 -8.655,4.666 -12.809,7.279 -4.151,2.613 -7.908,5.552 -11.268,8.818 -3.358,3.266 -6.087,6.906 -8.188,10.918 -2.099,4.012 -3.289,8.538 -3.568,13.577 0,0.373 -0.211,0.653 -0.63,0.84 -0.42,0.186 -0.841,0.28 -1.26,0.28 -0.419,0 -0.794,-0.117 -1.119,-0.35 -0.328,-0.234 -0.49,-0.584 -0.49,-1.049 0.279,-5.506 1.563,-10.428 3.849,-14.767 2.286,-4.34 5.179,-8.236 8.678,-11.688 3.499,-3.453 7.442,-6.556 11.827,-9.309 4.387,-2.753 8.866,-5.296 13.438,-7.628 -1.4,-4.105 -1.68,-7.769 -0.84,-10.987 0.84,-3.22 2.309,-5.927 4.408,-8.119 2.101,-2.193 4.597,-3.849 7.49,-4.969 2.892,-1.119 5.621,-1.702 8.188,-1.75 2.566,-0.046 4.758,0.514 6.577,1.68 1.82,1.167 2.778,2.963 2.87,5.389 0,1.867 -0.536,3.639 -1.609,5.319 -1.073,1.679 -2.426,3.196 -4.06,4.549 -1.633,1.353 -3.382,2.566 -5.247,3.639 -1.867,1.073 -3.547,1.984 -5.04,2.73l0 0zm10.638 -13.857c0,-1.867 -0.607,-2.987 -1.82,-3.359 -1.213,-0.374 -2.543,-0.072 -3.989,0.91 -1.446,0.979 -2.753,2.543 -3.92,4.687 -1.167,2.147 -1.703,4.806 -1.609,7.98 1.026,-0.467 2.193,-1.027 3.499,-1.68 1.307,-0.654 2.543,-1.4 3.71,-2.24 1.165,-0.84 2.145,-1.773 2.938,-2.799 0.794,-1.027 1.191,-2.193 1.191,-3.499l0 0zm92.66 59.908c0.094,-0.84 0.373,-1.424 0.84,-1.751 0.467,-0.325 0.911,-0.442 1.33,-0.35 0.42,0.094 0.771,0.35 1.05,0.771 0.279,0.419 0.373,0.957 0.279,1.609 -0.558,2.613 -1.19,5.483 -1.888,8.609 -0.7,3.126 -1.68,6.088 -2.94,8.888 -1.259,2.799 -2.916,5.132 -4.969,6.999 -2.053,1.865 -4.666,2.845 -7.838,2.939 -2.614,0 -4.831,-0.42 -6.65,-1.259 -1.819,-0.84 -3.312,-2.031 -4.479,-3.57 -1.167,-1.54 -2.075,-3.337 -2.73,-5.39 -0.652,-2.052 -1.119,-4.245 -1.398,-6.579 -0.747,2.055 -1.611,4.083 -2.59,6.09 -0.98,2.006 -2.099,3.803 -3.36,5.389 -1.259,1.586 -2.682,2.869 -4.268,3.849 -1.586,0.98 -3.406,1.47 -5.459,1.47 -3.734,0 -6.766,-1.12 -9.098,-3.36 -2.334,-2.263 -3.943,-5.062 -4.829,-8.445 -0.888,-3.359 -1.096,-6.998 -0.631,-10.87 0.466,-3.897 1.563,-7.49 3.29,-10.802 1.726,-3.336 4.083,-6.112 7.069,-8.375 2.985,-2.239 6.578,-3.36 10.777,-3.36 2.334,0 4.316,0.444 5.95,1.33 1.632,0.887 2.961,2.077 3.989,3.593 0,-0.467 0.023,-0.886 0.068,-1.259 0.048,-0.398 0.117,-0.817 0.211,-1.284 0.094,-1.492 0.84,-2.636 2.24,-3.428 1.399,-0.794 2.87,-1.167 4.408,-1.121 1.54,0.047 2.917,0.537 4.13,1.471 1.213,0.932 1.772,2.378 1.68,4.362 -0.094,1.025 -0.258,2.613 -0.49,4.758 -0.233,2.169 -0.49,4.549 -0.77,7.163 -0.28,2.636 -0.467,5.295 -0.559,8.025 -0.094,2.705 -0.025,5.179 0.208,7.44 0.234,2.241 0.701,4.06 1.401,5.483 0.7,1.401 1.796,2.099 3.288,2.099 2.053,0 3.804,-0.769 5.25,-2.309 1.446,-1.54 2.659,-3.405 3.639,-5.598 0.979,-2.194 1.773,-4.479 2.38,-6.859 0.606,-2.38 1.096,-4.503 1.469,-6.368l0 0zm-42.552 21.134c1.68,0 3.314,-0.863 4.9,-2.588 1.586,-1.728 2.986,-3.896 4.199,-6.509 1.213,-2.613 2.17,-5.435 2.87,-8.469 0.7,-3.033 0.979,-5.855 0.84,-8.468 -0.14,-2.613 -0.794,-4.783 -1.959,-6.508 -1.167,-1.726 -2.964,-2.591 -5.39,-2.591 -1.586,0 -3.009,0.865 -4.269,2.591 -1.259,1.725 -2.31,3.895 -3.15,6.508 -0.84,2.614 -1.469,5.435 -1.89,8.468 -0.419,3.034 -0.559,5.856 -0.419,8.469 0.14,2.613 0.536,4.781 1.19,6.509 0.653,1.725 1.68,2.588 3.078,2.588l0 0zm72.786 -21.134c0.093,-0.84 0.374,-1.424 0.839,-1.751 0.467,-0.325 0.911,-0.442 1.33,-0.35 0.421,0.094 0.771,0.35 1.05,0.771 0.281,0.419 0.373,0.957 0.281,1.609 -0.56,2.613 -1.19,5.483 -1.89,8.609 -0.7,3.126 -1.679,6.088 -2.94,8.888 -1.259,2.799 -2.916,5.132 -4.969,6.999 -2.052,1.865 -4.666,2.845 -7.838,2.939 -2.986,0 -5.483,-0.63 -7.488,-1.891 -2.007,-1.259 -3.616,-2.938 -4.828,-5.037 -1.213,-2.101 -2.101,-4.504 -2.66,-7.209 -0.56,-2.707 -0.933,-5.46 -1.121,-8.259 -0.186,-2.799 -0.233,-5.528 -0.14,-8.188 0.094,-2.659 0.188,-5.016 0.28,-7.069 0.093,-2.426 0.233,-5.529 0.421,-9.307 0.185,-3.781 0.535,-7.815 1.05,-12.109 0.513,-4.293 1.259,-8.607 2.238,-12.946 0.98,-4.339 2.31,-8.259 3.989,-11.758 1.68,-3.499 3.757,-6.345 6.229,-8.538 2.474,-2.193 5.483,-3.291 9.028,-3.291 1.868,0 3.454,0.351 4.76,1.051 1.307,0.7 2.356,1.633 3.149,2.8 0.792,1.165 1.376,2.495 1.749,3.989 0.375,1.493 0.56,3.033 0.56,4.618 0,4.294 -0.583,8.445 -1.748,12.459 -1.167,4.012 -2.707,7.861 -4.62,11.548 -1.913,3.684 -4.083,7.277 -6.509,10.777 -2.426,3.498 -4.945,6.835 -7.559,10.007 -0.093,1.68 -0.256,4.27 -0.489,7.769 -0.234,3.499 -0.28,7.021 -0.14,10.568 0.14,3.545 0.583,6.648 1.33,9.308 0.746,2.659 2.052,4.036 3.919,4.128 2.053,0.094 3.802,-0.606 5.248,-2.098 1.447,-1.493 2.66,-3.36 3.639,-5.6 0.981,-2.239 1.773,-4.573 2.38,-6.998 0.607,-2.426 1.096,-4.573 1.469,-6.438l0.001 0zm-5.459 -61.027c-1.773,0 -3.266,0.908 -4.479,2.728 -1.212,1.819 -2.24,4.176 -3.079,7.069 -0.84,2.893 -1.493,6.065 -1.96,9.518 -0.467,3.453 -0.839,6.835 -1.119,10.147 -0.281,3.313 -0.467,6.3 -0.56,8.959 -0.094,2.659 -0.186,4.595 -0.28,5.809 2.145,-2.799 4.223,-5.715 6.229,-8.749 2.006,-3.033 3.779,-6.158 5.319,-9.377 1.539,-3.219 2.753,-6.533 3.639,-9.938 0.886,-3.406 1.33,-6.93 1.33,-10.569 0,-1.585 -0.374,-2.915 -1.12,-3.988 -0.748,-1.073 -2.052,-1.609 -3.92,-1.609l0 0zm63.968 61.027c0.185,-0.84 0.512,-1.424 0.979,-1.751 0.467,-0.325 0.909,-0.442 1.33,-0.35 0.419,0.094 0.769,0.35 1.05,0.771 0.28,0.419 0.373,0.957 0.28,1.609 -1.587,7.744 -4.293,13.834 -8.118,18.267 -3.826,4.432 -8.259,8.048 -13.298,10.847 -0.186,7.28 -0.677,14.464 -1.47,21.555 -0.793,7.092 -2.24,13.415 -4.338,18.967 -2.101,5.552 -5.063,10.054 -8.889,13.507 -3.826,3.453 -8.959,5.179 -15.397,5.179 -5.039,0 -9.028,-1.259 -11.968,-3.779 -2.939,-2.519 -4.946,-5.622 -6.019,-9.309 -1.073,-3.685 -1.236,-7.651 -0.49,-11.898 0.748,-4.245 2.287,-8.14 4.621,-11.687 1.865,-2.705 3.965,-5.062 6.297,-7.068 2.333,-2.006 4.852,-3.803 7.559,-5.389 2.706,-1.586 5.529,-3.032 8.468,-4.338 2.94,-1.307 5.902,-2.66 8.888,-4.06 0.094,-3.08 0.188,-6.159 0.281,-9.239 0.092,-3.078 0.232,-6.204 0.42,-9.378 -0.747,1.961 -1.61,3.849 -2.591,5.669 -0.979,1.819 -2.076,3.43 -3.289,4.83 -1.213,1.399 -2.565,2.543 -4.059,3.429 -1.493,0.886 -3.218,1.329 -5.179,1.329 -3.733,0 -6.765,-1.119 -9.097,-3.359 -2.334,-2.263 -3.943,-5.062 -4.829,-8.445 -0.887,-3.359 -1.098,-6.998 -0.631,-10.87 0.467,-3.897 1.563,-7.49 3.291,-10.802 1.725,-3.336 4.082,-6.112 7.067,-8.376 2.986,-2.238 6.579,-3.359 10.778,-3.359 2.147,0 4.012,0.398 5.6,1.19 1.586,0.794 2.892,1.844 3.918,3.174 0.094,-0.467 0.14,-1.144 0.14,-1.984 0.093,-1.492 0.817,-2.636 2.192,-3.428 1.378,-0.794 2.87,-1.167 4.526,-1.121 1.657,0.047 3.127,0.537 4.387,1.47 1.282,0.933 1.866,2.379 1.772,4.34 -0.092,2.822 -0.256,5.854 -0.442,9.145 -0.211,3.265 -0.398,6.625 -0.537,10.03 -0.163,3.43 -0.303,6.836 -0.467,10.264 -0.14,3.407 -0.28,6.673 -0.373,9.751 4.293,-2.705 7.977,-5.994 11.058,-9.868 3.08,-3.872 5.272,-9.028 6.579,-15.465l0 0zm-48.571 83.142c3.174,0 5.808,-0.91 7.909,-2.73 2.099,-1.819 3.802,-4.176 5.108,-7.068 1.307,-2.893 2.286,-6.136 2.94,-9.729 0.653,-3.591 1.12,-7.184 1.399,-10.776 0.281,-3.593 0.421,-6.953 0.421,-10.079 0,-3.126 0.046,-5.714 0.14,-7.767 -2.799,1.213 -5.529,2.402 -8.189,3.568 -2.659,1.167 -5.201,2.496 -7.628,3.989 -2.427,1.494 -4.666,3.15 -6.718,4.97 -2.053,1.819 -3.92,3.941 -5.6,6.369 -1.959,2.799 -3.266,5.925 -3.918,9.378 -0.654,3.451 -0.607,6.648 0.14,9.587 0.746,2.94 2.263,5.389 4.549,7.348 2.286,1.961 5.435,2.94 9.447,2.94l0 0zm6.158 -62.008c1.401,0 2.87,-0.863 4.41,-2.588 1.54,-1.728 2.939,-3.896 4.2,-6.509 1.259,-2.613 2.309,-5.435 3.149,-8.469 0.84,-3.033 1.212,-5.855 1.119,-8.468 -0.094,-2.613 -0.699,-4.783 -1.82,-6.508 -1.119,-1.726 -2.986,-2.591 -5.598,-2.591 -1.587,0 -3.009,0.865 -4.27,2.591 -1.259,1.725 -2.309,3.895 -3.149,6.508 -0.84,2.614 -1.469,5.435 -1.89,8.468 -0.419,3.034 -0.558,5.856 -0.419,8.469 0.14,2.613 0.536,4.781 1.19,6.509 0.653,1.725 1.68,2.588 3.078,2.588l0 0zm100.92 -21.134c0.094,-0.84 0.373,-1.424 0.84,-1.751 0.467,-0.325 0.91,-0.442 1.33,-0.35 0.42,0.094 0.77,0.35 1.05,0.771 0.279,0.419 0.373,0.957 0.279,1.609 -0.559,2.613 -1.19,5.483 -1.888,8.609 -0.7,3.126 -1.68,6.088 -2.941,8.888 -1.259,2.799 -2.915,5.132 -4.968,6.999 -2.053,1.865 -4.666,2.845 -7.838,2.939 -2.613,0 -4.831,-0.42 -6.65,-1.259 -1.82,-0.84 -3.312,-2.031 -4.479,-3.57 -1.167,-1.54 -2.076,-3.337 -2.73,-5.39 -0.652,-2.052 -1.119,-4.245 -1.399,-6.579 -0.746,2.055 -1.61,4.083 -2.59,6.09 -0.979,2.006 -2.099,3.803 -3.359,5.389 -1.259,1.586 -2.682,2.869 -4.269,3.849 -1.585,0.98 -3.405,1.47 -5.458,1.47 -3.734,0 -6.766,-1.12 -9.098,-3.36 -2.334,-2.263 -3.943,-5.062 -4.829,-8.445 -0.888,-3.359 -1.097,-6.998 -0.631,-10.87 0.467,-3.897 1.563,-7.49 3.29,-10.802 1.726,-3.336 4.083,-6.112 7.069,-8.375 2.985,-2.239 6.578,-3.36 10.777,-3.36 2.334,0 4.316,0.444 5.95,1.33 1.632,0.887 2.961,2.077 3.988,3.593 0,-0.467 0.023,-0.886 0.07,-1.259 0.047,-0.398 0.116,-0.817 0.21,-1.284 0.093,-1.492 0.84,-2.636 2.24,-3.428 1.399,-0.794 2.87,-1.167 4.408,-1.121 1.54,0.047 2.917,0.537 4.13,1.471 1.213,0.932 1.772,2.378 1.68,4.362 -0.094,1.025 -0.256,2.613 -0.49,4.758 -0.233,2.169 -0.49,4.549 -0.771,7.163 -0.279,2.636 -0.466,5.295 -0.558,8.025 -0.094,2.705 -0.025,5.179 0.208,7.44 0.234,2.241 0.7,4.06 1.4,5.483 0.701,1.401 1.797,2.099 3.289,2.099 2.053,0 3.803,-0.769 5.25,-2.309 1.446,-1.54 2.659,-3.405 3.638,-5.598 0.98,-2.194 1.774,-4.479 2.381,-6.859 0.606,-2.38 1.096,-4.503 1.469,-6.368l0 0zm-42.552 21.134c1.68,0 3.314,-0.863 4.9,-2.588 1.586,-1.728 2.986,-3.896 4.199,-6.509 1.213,-2.613 2.169,-5.435 2.87,-8.469 0.7,-3.033 0.979,-5.855 0.84,-8.468 -0.14,-2.613 -0.794,-4.783 -1.96,-6.508 -1.166,-1.726 -2.963,-2.591 -5.389,-2.591 -1.586,0 -3.009,0.865 -4.27,2.591 -1.259,1.725 -2.309,3.895 -3.149,6.508 -0.84,2.614 -1.469,5.435 -1.89,8.468 -0.419,3.034 -0.559,5.856 -0.419,8.469 0.14,2.613 0.536,4.781 1.19,6.509 0.652,1.725 1.68,2.588 3.078,2.588l0 0zm101.759 -21.134c0.188,-0.84 0.515,-1.424 0.98,-1.751 0.467,-0.325 0.911,-0.442 1.331,-0.35 0.42,0.094 0.77,0.35 1.049,0.771 0.281,0.419 0.373,0.957 0.281,1.609 -0.56,2.613 -1.19,5.483 -1.89,8.609 -0.7,3.126 -1.679,6.088 -2.94,8.888 -1.259,2.799 -2.916,5.132 -4.969,6.999 -2.052,1.865 -4.666,2.845 -7.838,2.939 -2.613,0 -4.852,-0.467 -6.719,-1.401 -1.865,-0.932 -3.405,-2.215 -4.618,-3.849 -1.213,-1.632 -2.17,-3.545 -2.87,-5.738 -0.7,-2.192 -1.19,-4.503 -1.469,-6.929 -0.748,2.147 -1.611,4.293 -2.59,6.439 -0.98,2.145 -2.124,4.083 -3.429,5.809 -1.306,1.725 -2.776,3.103 -4.41,4.128 -1.633,1.027 -3.522,1.541 -5.668,1.541 -3.733,0 -6.765,-1.12 -9.099,-3.36 -2.332,-2.263 -3.943,-5.062 -4.829,-8.445 -0.885,-3.359 -1.096,-6.998 -0.629,-10.87 0.466,-3.897 1.563,-7.49 3.289,-10.802 1.727,-3.336 4.082,-6.112 7.069,-8.375 2.986,-2.239 6.579,-3.36 10.776,-3.36 4.014,0 7.094,1.355 9.239,4.06 0.093,-2.799 0.281,-6.113 0.56,-9.914 0.28,-3.826 0.724,-7.723 1.33,-11.735 0.606,-3.989 1.446,-7.978 2.473,-11.921 1.026,-3.966 2.356,-7.488 4.012,-10.545 1.634,-3.078 3.639,-5.575 6.042,-7.465 2.38,-1.913 5.273,-2.87 8.632,-2.87 1.89,0 3.453,0.351 4.712,1.051 1.261,0.7 2.287,1.656 3.103,2.869 0.792,1.213 1.376,2.566 1.749,4.06 0.373,1.492 0.56,3.032 0.56,4.618 0,4.2 -0.583,8.305 -1.773,12.319 -1.165,4.012 -2.705,7.884 -4.641,11.616 -1.914,3.733 -4.106,7.326 -6.556,10.779 -2.449,3.451 -4.923,6.765 -7.466,9.937 -0.093,1.121 -0.21,2.684 -0.349,4.689 -0.14,2.007 -0.257,4.176 -0.351,6.508 -0.092,2.334 -0.116,4.714 -0.069,7.14 0.046,2.426 0.257,4.618 0.63,6.578 0.373,1.96 0.91,3.593 1.609,4.899 0.7,1.307 1.704,1.959 3.009,1.959 2.053,0.094 3.803,-0.606 5.25,-2.099 1.446,-1.492 2.659,-3.359 3.639,-5.599 0.979,-2.239 1.773,-4.573 2.379,-6.998 0.607,-2.426 1.097,-4.573 1.47,-6.438l-0.001 0zm-5.318 -61.027c-1.773,0 -3.266,0.908 -4.479,2.728 -1.212,1.796 -2.24,4.153 -3.08,7.046 -0.839,2.893 -1.492,6.041 -1.959,9.495 -0.467,3.428 -0.839,6.811 -1.119,10.124 -0.281,3.289 -0.467,6.275 -0.56,8.934 -0.094,2.637 -0.188,4.573 -0.28,5.786 2.053,-2.706 4.083,-5.529 6.088,-8.516 2.007,-2.984 3.78,-6.064 5.32,-9.284 1.538,-3.218 2.776,-6.486 3.708,-9.845 0.934,-3.359 1.4,-6.788 1.4,-10.333 0,-1.75 -0.35,-3.22 -1.05,-4.387 -0.7,-1.167 -2.03,-1.749 -3.989,-1.749l0 0.001zm-37.932 82.161c1.68,0 3.337,-0.863 4.969,-2.588 1.633,-1.728 3.057,-3.896 4.27,-6.509 1.213,-2.613 2.169,-5.435 2.868,-8.469 0.7,-3.033 0.956,-5.855 0.771,-8.468 -0.188,-2.613 -0.863,-4.783 -2.03,-6.508 -1.167,-1.726 -2.964,-2.591 -5.389,-2.591 -1.586,0 -3.01,0.865 -4.269,2.591 -1.26,1.725 -2.309,3.895 -3.151,6.508 -0.838,2.614 -1.469,5.435 -1.888,8.468 -0.421,3.034 -0.56,5.856 -0.421,8.469 0.142,2.613 0.538,4.781 1.19,6.509 0.654,1.725 1.68,2.588 3.08,2.588l0 0zm51.23 -47.029c-1.867,0 -3.407,-0.631 -4.62,-1.89 -1.213,-1.261 -1.819,-2.776 -1.819,-4.549 0,-1.773 0.606,-3.289 1.819,-4.55 1.213,-1.258 2.753,-1.889 4.62,-1.889 1.772,0 3.289,0.631 4.548,1.889 1.26,1.261 1.89,2.777 1.89,4.55 0,1.773 -0.63,3.288 -1.89,4.549 -1.259,1.259 -2.776,1.89 -4.548,1.89zm21.416 25.334c0.185,-0.84 0.49,-1.423 0.909,-1.748 0.421,-0.328 0.84,-0.444 1.26,-0.351 0.419,0.093 0.769,0.351 1.049,0.77 0.281,0.42 0.373,0.956 0.281,1.608 -0.561,2.614 -1.19,5.483 -1.89,8.61 -0.7,3.126 -1.68,6.089 -2.939,8.888 -1.261,2.799 -2.917,5.133 -4.97,6.998 -2.053,1.866 -4.666,2.847 -7.838,2.939 -3.36,0.094 -6.065,-0.607 -8.118,-2.099 -2.053,-1.492 -3.64,-3.476 -4.759,-5.948 -1.12,-2.473 -1.866,-5.249 -2.241,-8.33 -0.373,-3.078 -0.512,-6.204 -0.419,-9.378 0.094,-3.172 0.303,-6.252 0.63,-9.236 0.327,-2.987 0.583,-5.554 0.771,-7.699 0.092,-1.494 0.839,-2.636 2.238,-3.43 1.401,-0.792 2.87,-1.167 4.41,-1.12 1.54,0.047 2.939,0.537 4.199,1.47 1.259,0.934 1.843,2.38 1.749,4.339 0,1.027 -0.14,2.613 -0.419,4.76 -0.28,2.145 -0.561,4.501 -0.84,7.067 -0.281,2.567 -0.49,5.227 -0.629,7.98 -0.142,2.753 -0.094,5.224 0.139,7.417 0.234,2.194 0.701,4.013 1.399,5.46 0.7,1.446 1.796,2.169 3.29,2.169 2.053,0 3.802,-0.77 5.248,-2.309 1.447,-1.54 2.66,-3.407 3.641,-5.6 0.979,-2.192 1.772,-4.501 2.378,-6.927 0.606,-2.428 1.096,-4.527 1.471,-6.3l0 0zm57.667 0.561c0.094,-0.84 0.373,-1.424 0.84,-1.751 0.467,-0.325 0.909,-0.442 1.33,-0.35 0.419,0.094 0.769,0.35 1.05,0.771 0.28,0.419 0.373,0.957 0.28,1.609 -0.561,2.613 -1.191,5.506 -1.891,8.678 -0.7,3.174 -1.679,6.159 -2.938,8.959 -1.261,2.799 -2.916,5.131 -4.969,6.999 -2.054,1.865 -4.666,2.799 -7.839,2.799 -4.386,0 -7.722,-0.957 -10.008,-2.87 -2.286,-1.914 -3.872,-4.292 -4.758,-7.138 -0.888,-2.847 -1.284,-5.925 -1.19,-9.239 0.093,-3.311 0.233,-6.392 0.419,-9.238 0.187,-2.845 0.233,-5.225 0.14,-7.138 -0.093,-1.913 -0.699,-2.87 -1.82,-2.87 -1.68,0 -3.266,0.817 -4.758,2.451 -1.494,1.632 -2.847,3.545 -4.06,5.737 -1.212,2.195 -2.263,4.433 -3.149,6.719 -0.887,2.287 -1.563,4.129 -2.03,5.529 -0.093,2.52 -0.187,5.04 -0.279,7.559 -0.094,2.519 -0.233,5.039 -0.421,7.559 -0.093,1.865 -0.817,3.242 -2.169,4.128 -1.353,0.886 -2.822,1.307 -4.41,1.259 -1.586,-0.046 -3.032,-0.513 -4.339,-1.398 -1.306,-0.888 -1.959,-2.17 -1.959,-3.85 0.187,-6.719 0.467,-13.367 0.84,-19.946 0.373,-6.579 0.794,-13.227 1.26,-19.946 0.093,-1.493 0.816,-2.637 2.17,-3.429 1.353,-0.793 2.822,-1.167 4.408,-1.121 1.586,0.048 3.009,0.538 4.27,1.471 1.259,0.932 1.843,2.378 1.749,4.339 -0.094,1.96 -0.163,3.919 -0.211,5.879 -0.046,1.959 -0.162,3.918 -0.348,5.879 0.84,-1.961 1.772,-3.85 2.799,-5.67 1.026,-1.819 2.192,-3.476 3.499,-4.968 1.307,-1.493 2.753,-2.66 4.339,-3.5 1.586,-0.84 3.36,-1.259 5.319,-1.259 3.732,0 6.439,0.955 8.119,2.868 1.68,1.914 2.776,4.293 3.288,7.14 0.513,2.845 0.678,5.948 0.491,9.307 -0.186,3.36 -0.303,6.463 -0.351,9.308 -0.046,2.846 0.188,5.203 0.7,7.069 0.513,1.867 1.751,2.799 3.71,2.799 2.053,0 3.802,-0.769 5.249,-2.309 1.447,-1.54 2.683,-3.406 3.708,-5.598 1.028,-2.194 1.844,-4.479 2.451,-6.859 0.606,-2.38 1.096,-4.503 1.469,-6.369l0 0.001z"/>
   <path class="fil0 str0" d="M504.814 461.238c0.093,-0.84 0.373,-1.424 0.84,-1.751 0.466,-0.325 0.91,-0.442 1.329,-0.35 0.421,0.094 0.771,0.35 1.051,0.771 0.279,0.419 0.373,0.957 0.279,1.609 -0.559,2.613 -1.19,5.506 -1.888,8.678 -0.701,3.174 -1.68,6.159 -2.941,8.959 -1.259,2.799 -2.915,5.131 -4.968,6.999 -2.053,1.865 -4.666,2.799 -7.838,2.799 -4.387,0 -7.722,-0.957 -10.009,-2.87 -2.287,-1.914 -3.85,-4.292 -4.688,-7.138 -0.84,-2.847 -1.238,-5.925 -1.19,-9.239 0.046,-3.311 0.186,-6.392 0.419,-9.238 0.233,-2.845 0.304,-5.225 0.21,-7.138 -0.093,-1.913 -0.746,-2.87 -1.959,-2.87 -1.679,0 -3.267,0.817 -4.76,2.451 -1.492,1.632 -2.846,3.568 -4.059,5.808 -1.213,2.238 -2.261,4.502 -3.149,6.788 -0.886,2.286 -1.563,4.13 -2.03,5.529 0,2.707 -0.023,5.343 -0.069,7.909 -0.048,2.565 -0.071,4.922 -0.071,7.069 -0.093,1.865 -0.816,3.242 -2.169,4.128 -1.353,0.886 -2.822,1.307 -4.41,1.259 -1.586,-0.046 -3.032,-0.513 -4.339,-1.398 -1.305,-0.888 -1.959,-2.17 -1.959,-3.85 0.094,-2.333 0.163,-5.46 0.211,-9.378 0.045,-3.92 0.139,-8.305 0.279,-13.157 0.14,-4.853 0.421,-9.938 0.84,-15.234 0.42,-5.319 0.979,-10.591 1.679,-15.793 0.7,-5.226 1.634,-10.195 2.799,-14.955 1.168,-4.735 2.614,-8.911 4.34,-12.479 1.727,-3.593 3.803,-6.463 6.229,-8.586 2.425,-2.147 5.226,-3.172 8.398,-3.078 1.774,0 3.266,0.396 4.479,1.189 1.213,0.793 2.169,1.795 2.87,2.985 0.7,1.215 1.212,2.59 1.539,4.131 0.328,1.539 0.49,3.055 0.49,4.524 0,4.2 -0.606,8.282 -1.819,12.296 -1.213,3.988 -2.799,7.884 -4.76,11.662 -1.959,3.757 -4.199,7.396 -6.719,10.872 -2.519,3.5 -5.037,6.836 -7.557,10.008 0,1.492 -0.025,3.01 -0.071,4.55 -0.046,1.539 -0.07,3.102 -0.07,4.689 0.84,-2.053 1.773,-4.06 2.8,-6.019 1.026,-1.961 2.216,-3.733 3.569,-5.319 1.354,-1.587 2.846,-2.846 4.48,-3.78 1.632,-0.933 3.474,-1.399 5.529,-1.399 3.732,0 6.438,0.955 8.118,2.869 1.679,1.913 2.775,4.292 3.288,7.139 0.515,2.845 0.677,5.948 0.49,9.308 -0.186,3.359 -0.303,6.462 -0.348,9.307 -0.048,2.847 0.185,5.203 0.698,7.069 0.514,1.867 1.797,2.799 3.849,2.799 2.053,0 3.803,-0.769 5.25,-2.309 1.446,-1.54 2.659,-3.406 3.639,-5.598 0.979,-2.194 1.773,-4.479 2.379,-6.859 0.607,-2.38 1.097,-4.503 1.47,-6.368l0 0zm-32.474 -61.169c-1.865,0 -3.476,0.888 -4.828,2.66 -1.353,1.773 -2.472,4.082 -3.36,6.929 -0.886,2.847 -1.586,5.996 -2.099,9.449 -0.514,3.451 -0.91,6.834 -1.189,10.147 -0.28,3.312 -0.49,6.415 -0.63,9.307 -0.141,2.893 -0.21,5.133 -0.21,6.719 2.052,-2.705 4.105,-5.598 6.158,-8.678 2.053,-3.08 3.895,-6.275 5.529,-9.588 1.634,-3.312 2.938,-6.718 3.92,-10.218 0.979,-3.499 1.469,-7.022 1.469,-10.567 0,-1.587 -0.304,-3.009 -0.91,-4.27 -0.607,-1.259 -1.889,-1.89 -3.85,-1.89l0 0zm81.184 61.169c0.188,-0.84 0.513,-1.424 0.98,-1.751 0.466,-0.325 0.91,-0.442 1.329,-0.35 0.421,0.094 0.771,0.35 1.05,0.771 0.28,0.419 0.374,0.957 0.28,1.609 -0.652,3.08 -1.492,5.879 -2.52,8.398 -1.025,2.52 -2.378,4.619 -4.057,6.299 -1.68,1.68 -3.733,2.869 -6.161,3.57 -2.425,0.7 -5.364,0.769 -8.817,0.21 -1.586,2.705 -3.593,5.039 -6.019,6.998 -2.426,1.959 -5.225,2.939 -8.398,2.939 -3.733,0 -6.882,-1.165 -9.448,-3.499 -2.567,-2.332 -4.479,-5.225 -5.739,-8.678 -1.259,-3.453 -1.89,-7.209 -1.89,-11.269 0,-4.057 0.748,-7.838 2.24,-11.337 1.492,-3.499 3.686,-6.392 6.579,-8.678 2.893,-2.286 6.625,-3.428 11.198,-3.428 3.824,0 6.927,1.142 9.307,3.428 2.38,2.286 4.083,5.11 5.11,8.468 1.026,3.359 1.399,6.975 1.119,10.849 -0.279,3.872 -1.119,7.488 -2.519,10.848 2.799,0.279 5.133,0.091 6.998,-0.561 1.867,-0.653 3.406,-1.68 4.618,-3.078 1.215,-1.401 2.195,-3.104 2.941,-5.11 0.746,-2.007 1.352,-4.223 1.819,-6.648zm-22.535 17.216c-1.587,0 -2.8,-0.84 -3.638,-2.519 -0.842,-1.68 -1.145,-3.523 -0.911,-5.529 0.233,-2.008 1.05,-3.85 2.449,-5.529 1.4,-1.68 3.547,-2.52 6.439,-2.52 0,-1.307 -0.164,-2.847 -0.49,-4.619 -0.327,-1.773 -0.862,-3.43 -1.61,-4.97 -0.746,-1.538 -1.703,-2.868 -2.868,-3.989 -1.167,-1.119 -2.59,-1.679 -4.27,-1.679 -1.492,0 -2.847,0.862 -4.06,2.59 -1.213,1.726 -2.215,3.895 -3.009,6.508 -0.792,2.614 -1.353,5.459 -1.68,8.539 -0.325,3.078 -0.303,5.925 0.071,8.538 0.373,2.613 1.096,4.781 2.169,6.509 1.073,1.725 2.589,2.588 4.55,2.588 1.398,0 2.659,-0.348 3.778,-1.048 1.12,-0.7 2.147,-1.657 3.08,-2.87zm67.186 -17.216c0.187,-0.84 0.49,-1.424 0.91,-1.751 0.42,-0.325 0.84,-0.442 1.259,-0.35 0.421,0.094 0.771,0.35 1.05,0.771 0.28,0.419 0.373,0.957 0.28,1.609 -0.652,3.266 -1.469,6.229 -2.449,8.889 -0.979,2.659 -2.192,5.132 -3.639,7.418 -1.446,2.287 -3.174,4.456 -5.179,6.509 -2.007,2.053 -4.316,4.058 -6.929,6.019 -1.68,1.306 -3.593,2.38 -5.739,3.218 -2.147,0.84 -4.852,1.307 -8.118,1.4 -4.199,0.094 -7.513,-0.84 -9.938,-2.799 -2.426,-1.959 -4.012,-4.245 -4.759,-6.858 -0.747,-2.614 -0.7,-5.18 0.14,-7.699 0.84,-2.519 2.472,-4.293 4.898,-5.318 0.933,-0.375 1.634,-0.467 2.101,-0.282 0.466,0.188 0.768,0.49 0.908,0.911 0.142,0.419 0.071,0.886 -0.208,1.4 -0.281,0.513 -0.747,0.909 -1.401,1.189 -1.025,0.56 -1.819,1.423 -2.38,2.59 -0.558,1.167 -0.84,2.403 -0.84,3.709 0,2.706 0.865,4.806 2.591,6.299 1.726,1.494 3.592,2.357 5.598,2.59 2.006,0.233 3.826,-0.165 5.46,-1.19 1.632,-1.027 2.403,-2.753 2.309,-5.179 0,-1.587 -0.35,-3.36 -1.051,-5.319 -0.7,-1.96 -1.54,-3.967 -2.519,-6.018 -0.98,-2.055 -2.076,-4.084 -3.289,-6.09 -1.213,-2.006 -2.403,-3.897 -3.57,-5.668 -1.165,-1.774 -2.192,-3.314 -3.078,-4.62 -0.887,-1.307 -1.517,-2.333 -1.89,-3.079l-2.099 10.498c-0.187,0.84 -0.514,1.423 -0.981,1.75 -0.465,0.326 -0.909,0.442 -1.33,0.349 -0.419,-0.093 -0.792,-0.326 -1.119,-0.699 -0.327,-0.373 -0.396,-0.934 -0.21,-1.68l3.359 -16.237c-0.279,-0.933 -0.49,-2.146 -0.629,-3.638 -0.14,-1.494 -0.188,-2.987 -0.14,-4.481 0.046,-1.492 0.256,-2.915 0.629,-4.268 0.373,-1.353 0.934,-2.451 1.68,-3.29 0.746,-0.747 1.54,-1.143 2.38,-1.189 0.84,-0.047 1.492,0.442 1.959,1.469 0.28,0.559 0.373,1.424 0.28,2.589 -0.093,1.167 -0.28,2.38 -0.559,3.64 -0.281,1.259 -0.584,2.518 -0.911,3.779 -0.325,1.259 -0.583,2.216 -0.769,2.87 0.934,1.492 2.332,2.961 4.199,4.408 1.866,1.446 3.895,3.009 6.088,4.689 2.194,1.68 4.364,3.501 6.508,5.46 2.147,1.959 3.991,4.151 5.529,6.577 1.54,2.428 2.591,5.156 3.151,8.19 0.559,3.032 0.325,6.415 -0.7,10.148 3.826,-2.614 6.719,-5.834 8.678,-9.658 1.959,-3.826 3.453,-8.353 4.479,-13.577l0 0zm94.061 0c0.186,-0.84 0.512,-1.424 0.979,-1.751 0.467,-0.325 0.909,-0.442 1.33,-0.35 0.421,0.094 0.769,0.35 1.05,0.771 0.28,0.419 0.373,0.957 0.28,1.609 -0.561,2.613 -1.19,5.483 -1.891,8.609 -0.698,3.126 -1.679,6.088 -2.938,8.888 -1.261,2.799 -2.916,5.132 -4.969,6.999 -2.053,1.865 -4.666,2.845 -7.838,2.939 -2.613,0 -4.853,-0.467 -6.719,-1.401 -1.867,-0.932 -3.407,-2.215 -4.62,-3.849 -1.213,-1.632 -2.169,-3.545 -2.869,-5.738 -0.699,-2.192 -1.189,-4.503 -1.47,-6.929 -0.746,2.147 -1.609,4.293 -2.588,6.439 -0.98,2.145 -2.124,4.083 -3.431,5.809 -1.306,1.725 -2.776,3.103 -4.409,4.128 -1.632,1.027 -3.522,1.541 -5.669,1.541 -3.732,0 -6.765,-1.12 -9.097,-3.36 -2.334,-2.263 -3.943,-5.062 -4.828,-8.445 -0.888,-3.359 -1.097,-6.998 -0.632,-10.87 0.467,-3.897 1.563,-7.49 3.291,-10.802 1.725,-3.336 4.082,-6.112 7.068,-8.375 2.985,-2.239 6.578,-3.36 10.778,-3.36 4.012,0 7.091,1.355 9.238,4.06 0.094,-2.799 0.279,-6.113 0.56,-9.914 0.28,-3.826 0.723,-7.723 1.33,-11.735 0.606,-3.989 1.446,-7.978 2.472,-11.921 1.027,-3.966 2.357,-7.488 4.012,-10.545 1.633,-3.078 3.641,-5.575 6.043,-7.465 2.378,-1.913 5.271,-2.87 8.631,-2.87 1.889,0 3.453,0.351 4.713,1.051 1.259,0.7 2.286,1.656 3.102,2.869 0.794,1.213 1.377,2.566 1.75,4.06 0.373,1.492 0.56,3.032 0.56,4.618 0,4.2 -0.583,8.305 -1.773,12.319 -1.167,4.012 -2.707,7.884 -4.643,11.616 -1.913,3.733 -4.106,7.326 -6.555,10.779 -2.45,3.451 -4.922,6.765 -7.465,9.937 -0.093,1.121 -0.21,2.684 -0.35,4.689 -0.139,2.007 -0.256,4.176 -0.35,6.508 -0.094,2.334 -0.117,4.714 -0.07,7.14 0.047,2.426 0.256,4.618 0.631,6.578 0.373,1.96 0.909,3.593 1.609,4.899 0.7,1.307 1.702,1.959 3.009,1.959 2.053,0.094 3.803,-0.606 5.25,-2.099 1.446,-1.492 2.659,-3.359 3.639,-5.599 0.979,-2.239 1.773,-4.573 2.379,-6.998 0.607,-2.426 1.096,-4.573 1.47,-6.438l0 0zm-5.319 -61.027c-1.773,0 -3.267,0.908 -4.48,2.728 -1.213,1.796 -2.239,4.153 -3.079,7.046 -0.839,2.893 -1.494,6.041 -1.961,9.495 -0.465,3.428 -0.838,6.811 -1.119,10.124 -0.279,3.289 -0.466,6.275 -0.559,8.934 -0.093,2.637 -0.187,4.573 -0.281,5.786 2.053,-2.706 4.083,-5.529 6.09,-8.516 2.005,-2.984 3.778,-6.064 5.319,-9.284 1.54,-3.218 2.776,-6.486 3.709,-9.845 0.933,-3.359 1.4,-6.788 1.4,-10.333 0,-1.75 -0.35,-3.22 -1.05,-4.387 -0.7,-1.167 -2.03,-1.749 -3.989,-1.749l0 0.001zm-37.933 82.161c1.68,0 3.336,-0.863 4.97,-2.588 1.632,-1.728 3.055,-3.896 4.268,-6.509 1.213,-2.613 2.17,-5.435 2.87,-8.469 0.7,-3.033 0.956,-5.855 0.769,-8.468 -0.186,-2.613 -0.863,-4.783 -2.03,-6.508 -1.165,-1.726 -2.961,-2.591 -5.387,-2.591 -1.586,0 -3.01,0.865 -4.27,2.591 -1.259,1.725 -2.309,3.895 -3.149,6.508 -0.84,2.614 -1.469,5.435 -1.89,8.468 -0.419,3.034 -0.559,5.856 -0.419,8.469 0.139,2.613 0.535,4.781 1.189,6.509 0.653,1.725 1.68,2.588 3.079,2.588l0 0zm101.759 -21.134c0.094,-0.84 0.373,-1.424 0.84,-1.751 0.467,-0.325 0.911,-0.442 1.33,-0.35 0.421,0.094 0.77,0.35 1.05,0.771 0.279,0.419 0.373,0.957 0.279,1.609 -0.559,2.613 -1.189,5.483 -1.888,8.609 -0.7,3.126 -1.68,6.088 -2.941,8.888 -1.258,2.799 -2.915,5.132 -4.968,6.999 -2.053,1.865 -4.666,2.845 -7.838,2.939 -2.613,0 -4.83,-0.42 -6.65,-1.259 -1.819,-0.84 -3.312,-2.031 -4.479,-3.57 -1.166,-1.54 -2.076,-3.337 -2.73,-5.39 -0.652,-2.052 -1.119,-4.245 -1.398,-6.579 -0.747,2.055 -1.611,4.083 -2.59,6.09 -0.98,2.006 -2.099,3.803 -3.36,5.389 -1.259,1.586 -2.682,2.869 -4.268,3.849 -1.586,0.98 -3.406,1.47 -5.459,1.47 -3.734,0 -6.766,-1.12 -9.098,-3.36 -2.334,-2.263 -3.943,-5.062 -4.829,-8.445 -0.888,-3.359 -1.096,-6.998 -0.631,-10.87 0.467,-3.897 1.563,-7.49 3.29,-10.802 1.726,-3.336 4.083,-6.112 7.069,-8.375 2.985,-2.239 6.578,-3.36 10.777,-3.36 2.334,0 4.316,0.444 5.95,1.33 1.632,0.887 2.961,2.077 3.989,3.593 0,-0.467 0.023,-0.886 0.069,-1.259 0.047,-0.398 0.116,-0.817 0.21,-1.284 0.094,-1.492 0.84,-2.636 2.24,-3.428 1.399,-0.794 2.87,-1.167 4.408,-1.121 1.54,0.047 2.918,0.537 4.131,1.471 1.212,0.932 1.771,2.378 1.679,4.362 -0.094,1.025 -0.258,2.613 -0.49,4.758 -0.233,2.169 -0.489,4.549 -0.77,7.163 -0.28,2.636 -0.467,5.295 -0.561,8.025 -0.092,2.705 -0.023,5.179 0.21,7.44 0.234,2.241 0.7,4.06 1.401,5.483 0.7,1.401 1.796,2.099 3.288,2.099 2.053,0 3.804,-0.769 5.25,-2.309 1.446,-1.54 2.659,-3.405 3.639,-5.598 0.979,-2.194 1.773,-4.479 2.38,-6.859 0.606,-2.38 1.096,-4.503 1.469,-6.368l0 0zm-42.552 21.134c1.68,0 3.314,-0.863 4.9,-2.588 1.586,-1.728 2.986,-3.896 4.199,-6.509 1.213,-2.613 2.17,-5.435 2.87,-8.469 0.7,-3.033 0.98,-5.855 0.84,-8.468 -0.14,-2.613 -0.794,-4.783 -1.959,-6.508 -1.167,-1.726 -2.964,-2.591 -5.39,-2.591 -1.586,0 -3.009,0.865 -4.27,2.591 -1.259,1.725 -2.309,3.895 -3.148,6.508 -0.84,2.614 -1.47,5.435 -1.891,8.468 -0.419,3.034 -0.559,5.856 -0.419,8.469 0.14,2.613 0.536,4.781 1.19,6.509 0.653,1.725 1.68,2.588 3.079,2.588l-0.001 0zm175.385 -40.451c7.559,1.121 13.507,3.057 17.847,5.785 4.339,2.753 7.301,5.879 8.887,9.355 1.587,3.499 1.867,7.115 0.84,10.895 -1.026,3.756 -3.126,7.207 -6.298,10.311 -3.173,3.125 -7.349,5.693 -12.528,7.675 -5.178,2.007 -11.128,3.009 -17.845,3.009 -5.227,0.094 -9.822,-0.583 -13.788,-2.03 -3.966,-1.446 -7.721,-2.961 -11.268,-4.549 -4.386,4.387 -9.844,6.579 -16.377,6.579 -3.453,0 -6.041,-0.723 -7.767,-2.169 -1.728,-1.446 -2.614,-3.033 -2.66,-4.758 -0.047,-1.728 0.747,-3.337 2.379,-4.831 1.633,-1.492 4.082,-2.332 7.348,-2.519 3.266,0 6.533,0.373 9.799,1.143 1.399,-2.542 2.566,-5.551 3.499,-9.05 0.934,-3.5 1.657,-7.209 2.17,-11.129 0.512,-3.918 0.886,-7.955 1.119,-12.106 0.233,-4.154 0.398,-8.236 0.49,-12.248 0.093,-4.014 0.14,-7.839 0.14,-11.479 0,-3.639 0.047,-6.859 0.141,-9.657 0.092,-1.774 0.815,-3.15 2.169,-4.129 1.353,-0.98 2.845,-1.494 4.479,-1.54 1.632,-0.046 3.103,0.327 4.409,1.119 1.305,0.794 2.006,2.077 2.099,3.849 0.188,4.294 0.28,9.495 0.28,15.608 0,6.112 -0.303,12.387 -0.909,18.826 -0.607,6.438 -1.657,12.736 -3.149,18.897 -1.494,6.158 -3.687,11.454 -6.579,15.886 3.732,1.143 7.325,2.099 10.776,2.845 3.454,0.771 7.14,1.144 11.058,1.144 4.76,-0.093 8.936,-1.073 12.528,-2.94 3.593,-1.889 6.393,-4.199 8.398,-6.975 2.007,-2.752 3.174,-5.761 3.499,-8.981 0.327,-3.243 -0.419,-6.252 -2.238,-9.053 -1.82,-2.822 -4.783,-5.178 -8.889,-7.114 -4.105,-1.914 -9.517,-2.962 -16.236,-3.15 -1.307,-0.093 -1.959,-0.652 -1.959,-1.679 0,-1.026 0.652,-1.633 1.959,-1.82 3.826,-0.279 7.068,-1.469 9.728,-3.593 2.659,-2.098 4.618,-4.666 5.879,-7.721 1.259,-3.032 1.796,-6.275 1.609,-9.681 -0.188,-3.43 -1.236,-6.579 -3.149,-9.495 -1.913,-2.892 -4.712,-5.295 -8.399,-7.231 -3.686,-1.913 -8.422,-2.917 -14.207,-3.01 -7.744,0 -15.023,1.422 -21.834,4.269 -6.813,2.847 -12.809,6.439 -17.987,10.778 -5.179,4.339 -9.425,9.051 -12.738,14.136 -3.312,5.086 -5.365,9.822 -6.159,14.207 -0.793,4.387 -0.21,8.026 1.751,10.919 1.959,2.892 5.644,4.339 11.056,4.339 0.654,0 1.167,0.187 1.54,0.56 0.373,0.373 0.56,0.769 0.56,1.19 0,0.419 -0.187,0.815 -0.56,1.188 -0.373,0.375 -0.934,0.561 -1.68,0.561 -7.371,0 -12.9,-1.703 -16.586,-5.109 -3.685,-3.384 -5.692,-7.629 -6.019,-12.691 -0.326,-5.085 0.933,-10.614 3.78,-16.564 2.845,-5.971 7.115,-11.477 12.807,-16.562 5.693,-5.062 12.737,-9.309 21.136,-12.692 8.398,-3.405 17.962,-5.108 28.693,-5.108 5.227,0 10.359,0.792 15.397,2.38 5.039,1.586 9.566,3.708 13.578,6.369 4.013,2.659 7.256,5.691 9.728,9.097 2.473,3.405 3.686,6.906 3.638,10.497 -0.046,3.593 -1.562,7.117 -4.547,10.568 -2.987,3.453 -7.932,6.58 -14.838,9.379l0 0zm-50.53 40.593c2.52,0 4.76,-1.122 6.719,-3.337 -1.213,-0.279 -2.426,-0.513 -3.639,-0.723 -1.213,-0.187 -2.473,-0.281 -3.78,-0.281 -1.399,0 -2.472,0.21 -3.218,0.654 -0.748,0.419 -1.098,0.934 -1.05,1.517 0.046,0.582 0.466,1.096 1.259,1.515 0.793,0.444 2.029,0.655 3.709,0.655l0 0zm131.434 -21.276c0.186,-0.84 0.49,-1.424 0.909,-1.751 0.421,-0.325 0.84,-0.442 1.26,-0.35 0.42,0.094 0.77,0.35 1.049,0.771 0.281,0.419 0.373,0.957 0.281,1.609 -0.56,2.613 -1.19,5.506 -1.89,8.678 -0.7,3.174 -1.68,6.159 -2.939,8.959 -1.26,2.799 -2.917,5.131 -4.97,6.999 -2.052,1.865 -4.666,2.799 -7.838,2.799 -3.545,0 -6.392,-0.747 -8.538,-2.239 -2.146,-1.494 -3.802,-3.453 -4.969,-5.879 -1.167,-2.428 -1.936,-5.179 -2.309,-8.259 -0.373,-3.08 -0.514,-6.181 -0.42,-9.308 0.093,-3.126 0.303,-6.16 0.629,-9.098 0.327,-2.939 0.583,-5.529 0.771,-7.769 0,-0.186 -0.398,-0.326 -1.19,-0.419 -0.794,-0.094 -1.751,-0.163 -2.87,-0.211 -1.119,-0.046 -2.215,-0.069 -3.288,-0.069 -1.074,0 -1.891,0 -2.451,0 -0.373,3.266 -0.769,6.369 -1.19,9.307 -0.419,2.939 -0.955,5.949 -1.609,9.029 -0.186,0.84 -0.49,1.423 -0.909,1.75 -0.421,0.326 -0.84,0.442 -1.261,0.349 -0.419,-0.093 -0.794,-0.326 -1.119,-0.699 -0.327,-0.373 -0.397,-0.933 -0.21,-1.68 0.652,-3.265 1.213,-6.439 1.679,-9.517 0.467,-3.081 0.887,-6.253 1.259,-9.52 -2.984,-1.119 -4.921,-2.495 -5.808,-4.129 -0.886,-1.632 -1.119,-3.243 -0.7,-4.828 0.421,-1.586 1.284,-2.893 2.59,-3.92 1.307,-1.026 2.613,-1.47 3.918,-1.33 1.307,0.141 2.38,1.096 3.22,2.87 0.84,1.773 1.027,4.712 0.561,8.819 2.705,-0.094 5.318,-0.116 7.838,-0.071 2.519,0.046 5.085,0.117 7.698,0.211 1.867,0 3.547,0.489 5.04,1.469 1.492,0.979 2.192,2.215 2.098,3.709 0,1.026 -0.139,2.612 -0.419,4.759 -0.279,2.146 -0.56,4.526 -0.84,7.139 -0.281,2.612 -0.49,5.271 -0.629,7.978 -0.142,2.705 -0.094,5.179 0.139,7.419 0.234,2.239 0.701,4.058 1.399,5.459 0.7,1.4 1.796,2.098 3.29,2.098 2.053,0 3.802,-0.769 5.248,-2.309 1.447,-1.54 2.66,-3.405 3.641,-5.598 0.98,-2.194 1.772,-4.478 2.378,-6.859 0.607,-2.379 1.096,-4.503 1.471,-6.368l0 0zm58.787 0c0.187,-0.84 0.49,-1.424 0.911,-1.751 0.419,-0.325 0.839,-0.442 1.258,-0.35 0.421,0.094 0.771,0.35 1.051,0.771 0.279,0.419 0.373,0.957 0.279,1.609 -0.559,2.613 -1.19,5.483 -1.888,8.609 -0.7,3.126 -1.68,6.088 -2.941,8.888 -1.259,2.799 -2.916,5.132 -4.968,6.999 -2.053,1.865 -4.666,2.845 -7.838,2.939 -2.334,0 -4.339,-0.351 -6.019,-1.051 -1.68,-0.698 -3.126,-1.702 -4.339,-3.009 -1.213,-1.305 -2.17,-2.822 -2.87,-4.548 -0.7,-1.727 -1.237,-3.618 -1.611,-5.67 -0.558,1.867 -1.259,3.64 -2.098,5.32 -0.84,1.68 -1.843,3.195 -3.01,4.548 -1.167,1.354 -2.519,2.427 -4.059,3.219 -1.54,0.794 -3.337,1.19 -5.39,1.19 -3.359,0.094 -6.064,-0.606 -8.117,-2.098 -2.053,-1.494 -3.639,-3.453 -4.76,-5.88 -1.119,-2.425 -1.865,-5.178 -2.238,-8.258 -0.374,-3.079 -0.515,-6.23 -0.421,-9.448 0.094,-3.219 0.304,-6.299 0.631,-9.238 0.326,-2.94 0.582,-5.529 0.769,-7.769 0.094,-1.493 0.84,-2.636 2.24,-3.429 1.399,-0.793 2.868,-1.166 4.408,-1.121 1.54,0.048 2.941,0.538 4.2,1.472 1.259,0.931 1.842,2.378 1.75,4.338 0,1.026 -0.141,2.612 -0.421,4.759 -0.279,2.146 -0.56,4.526 -0.84,7.139 -0.279,2.612 -0.489,5.271 -0.629,7.978 -0.14,2.705 -0.094,5.179 0.14,7.419 0.233,2.239 0.7,4.058 1.4,5.458 0.7,1.401 1.796,2.099 3.289,2.099 1.959,0 3.639,-0.698 5.039,-2.099 1.4,-1.4 2.588,-3.103 3.57,-5.109 0.979,-2.005 1.771,-4.152 2.378,-6.438 0.606,-2.286 1.096,-4.362 1.471,-6.229 0.186,-3.079 0.419,-6.019 0.698,-8.818 0.282,-2.799 0.515,-5.273 0.701,-7.419 0.093,-1.493 0.84,-2.636 2.24,-3.429 1.398,-0.793 2.87,-1.166 4.408,-1.12 1.54,0.047 2.94,0.537 4.199,1.471 1.261,0.931 1.844,2.378 1.75,4.338 0,1.026 -0.139,2.612 -0.42,4.759 -0.28,2.146 -0.559,4.526 -0.84,7.139 -0.279,2.612 -0.49,5.271 -0.63,7.978 -0.14,2.705 -0.093,5.179 0.14,7.419 0.233,2.239 0.7,4.058 1.4,5.459 0.7,1.4 1.797,2.098 3.289,2.098 2.053,0 3.803,-0.769 5.249,-2.309 1.447,-1.54 2.66,-3.405 3.639,-5.598 0.98,-2.194 1.774,-4.478 2.38,-6.859 0.607,-2.379 1.097,-4.503 1.47,-6.368l0 0z"/>
  </g>
  <path class="fil0 str0" d="M573.58 129.011c3.481,9.808 9.809,18.826 18.984,27.052 9.176,8.226 19.3,16.371 30.373,24.44 11.074,8.068 22.226,16.452 33.458,25.152 11.232,8.701 20.565,18.509 28.001,29.425 7.434,10.915 12.021,23.332 13.761,37.253 1.741,13.921 -1.344,29.9 -9.253,47.933 -6.327,14.238 -14.949,26.022 -25.865,35.356 -10.914,9.334 -22.939,16.373 -36.068,21.118 -13.13,4.747 -26.893,7.278 -41.287,7.594 -14.396,0.317 -28.081,-1.345 -41.052,-4.982 -12.972,-3.639 -24.757,-9.255 -35.356,-16.848 -10.599,-7.594 -18.746,-16.927 -24.441,-28 -5.695,-11.074 -8.384,-23.887 -8.068,-38.441 0.317,-14.554 4.904,-30.533 13.763,-47.933 0.948,-1.581 2.215,-2.452 3.796,-2.61 1.583,-0.158 3.006,0.079 4.272,0.712 1.266,0.633 2.214,1.661 2.847,3.085 0.632,1.423 0.632,2.767 0,4.033 -7.909,16.137 -10.757,30.927 -8.542,44.373 2.214,13.448 7.515,24.758 15.898,33.933 8.384,9.176 19.141,15.977 32.272,20.406 13.13,4.43 26.418,5.774 39.864,4.035 13.446,-1.74 26.34,-6.881 38.678,-15.424 12.34,-8.542 22.147,-21.04 29.425,-37.492 4.745,-11.073 6.01,-21.197 3.796,-30.373 -2.215,-9.174 -6.645,-17.875 -13.288,-26.101 -6.645,-8.226 -14.792,-16.216 -24.441,-23.967 -9.65,-7.751 -19.458,-15.582 -29.423,-23.491 -9.967,-7.911 -19.458,-15.977 -28.477,-24.203 -9.016,-8.226 -16.213,-17.244 -21.593,-27.052 -14.869,7.594 -29.344,15.82 -43.422,24.678 -14.081,8.859 -26.815,18.826 -38.205,29.899 -11.39,11.074 -20.643,23.412 -27.763,37.017 -7.118,13.604 -11.152,28.948 -12.101,46.033 0,1.266 -0.712,2.216 -2.136,2.849 -1.423,0.632 -2.848,0.948 -4.271,0.948 -1.424,0 -2.689,-0.394 -3.797,-1.185 -1.108,-0.792 -1.66,-1.979 -1.66,-3.56 0.948,-18.667 5.299,-35.356 13.05,-50.068 7.751,-14.711 17.56,-27.921 29.425,-39.628 11.863,-11.705 25.232,-22.226 40.101,-31.559 14.869,-9.334 30.055,-17.955 45.559,-25.865 -4.744,-13.921 -5.694,-26.338 -2.848,-37.255 2.848,-10.914 7.831,-20.089 14.95,-27.524 7.118,-7.436 15.583,-13.052 25.39,-16.848 9.808,-3.797 19.062,-5.774 27.763,-5.932 8.701,-0.158 16.136,1.741 22.304,5.695 6.17,3.954 9.413,10.045 9.73,18.271 0,6.328 -1.819,12.338 -5.458,18.033 -3.637,5.696 -8.226,10.836 -13.761,15.425 -5.538,4.587 -11.471,8.7 -17.799,12.338 -6.327,3.639 -12.022,6.724 -17.084,9.255l-0.001 0zm36.068 -46.983c0,-6.327 -2.056,-10.124 -6.168,-11.389 -4.114,-1.266 -8.622,-0.239 -13.526,3.083 -4.905,3.323 -9.333,8.622 -13.289,15.9 -3.954,7.276 -5.773,16.293 -5.456,27.05 3.479,-1.582 7.434,-3.48 11.863,-5.696 4.43,-2.213 8.622,-4.744 12.577,-7.593 3.954,-2.846 7.277,-6.01 9.966,-9.491 2.689,-3.48 4.033,-7.434 4.033,-11.864l0 0z"/>
  <path class="fil1 str0" d="M696.486 174.576c6.573,3.418 10.083,13.14 13.512,20.881 3.001,6.777 10.97,18.924 1.594,21.247 -15.727,3.893 -28.828,-33.202 -15.106,-42.128zm-23.833 54.829c5.708,-5.015 16.053,-10.468 24.481,-13.881 5.637,0.317 16.836,14.147 23.12,-3.407 0.081,-0.231 0.175,-0.671 0.36,-0.957 42.543,-0.73 36.158,-25.857 49.546,-33.392 5.118,-2.881 11.126,-8.343 12.104,-15.954 1.654,-12.863 -6.261,-10.884 -13.989,-14.046 -4.487,-1.836 -4.825,-9.456 -14.092,-13.461 -16.11,-6.964 -30.238,11.304 -38.393,15.619 0.994,-9.763 -1.876,-17.111 -6.704,-21.039 -5.838,-4.75 -15.455,-4.344 -21.062,0.386 -10.791,9.097 7.823,24.671 8.871,39.89 -9.47,8.177 -7.562,11.208 -8.915,25.328 -2.227,0.695 -15.58,19.026 -18.613,22.352 -2.202,2.413 0.181,0.853 -3.039,2.784 -1.962,-2.371 4.961,7.559 6.325,9.778l0 0zm80.658 -68.252c-6.34,0.271 -9.944,9.876 -10.993,16.462 3.766,-5.846 4.826,-15.251 15.713,-12.968 14.171,13.78 -7.727,35.987 -19.945,41.073 -27.835,11.585 -32.245,-22.897 -11.991,-28.796 -9.574,-0.003 -11.661,5.575 -15.469,12.212 -6.489,-7.2 -9.596,-10.811 -10.777,-23.419 -0.878,-9.375 -7.248,-16.531 -10.573,-24.387 -6.808,-16.089 28.213,-24.56 23.639,17.463 9.53,2.243 8.522,7.296 11.318,10.403 2.475,-6.274 -3.928,-10.058 -8.844,-11.712 2.291,-6.432 13.151,-15.025 20.832,-18.514 9.989,-4.536 24.932,-2.497 24.928,8.479 -4.101,5.769 -20.076,7.746 -27.172,10.971l3.757 8.515c2.439,-7.11 -8.07,-4.005 11.446,-11.415 37.268,-14.151 36.343,10.807 17.276,20.639 -2.084,-7.003 -3.233,-15.429 -13.145,-15.006l0 0z"/>
  <g id="_1553268206368">
  </g>
  <g>
  </g>
  <g style="clip-path:url(#id0)">
   <g>
    <path class="fil1" d="M559.081 227.385c4.043,2.952 8.264,7.744 11.015,12.126 6.53,10.402 0.738,22.851 -13.679,11.928 -10.695,-8.105 -14.879,-24.312 -9.151,-27.61 -0.173,0.461 -0.267,0.959 -0.267,1.48 0,2.377 1.968,4.303 4.393,4.303 2.426,0 4.393,-1.926 4.393,-4.303l0 -0.07c1.023,0.578 2.119,1.287 3.296,2.146l0 0z"/>
   </g>
  </g>
  <path class="fil2" d="M548.745 240.959c-1.66,-2.36 -3.166,-5.059 -4.203,-8.094 -1.039,-3.036 -1.609,-6.409 -1.765,-9.625 -0.155,-3.218 0.105,-6.278 1.089,-8.64 0.987,-2.362 2.699,-4.022 4.722,-5.033 2.026,-1.012 4.361,-1.375 6.617,-1.219 2.257,0.154 4.436,0.83 6.645,1.71 2.209,0.883 4.448,1.973 6.394,3.245 1.944,1.27 3.598,2.724 5.359,4.487 1.761,1.765 3.63,3.841 5.212,5.89 1.583,2.05 2.88,4.073 3.996,6.461 1.116,2.387 2.049,5.137 2.595,7.783 0.544,2.648 0.7,5.188 0.311,7.55 -0.39,2.362 -1.324,4.541 -2.517,6.019 -1.193,1.479 -2.646,2.258 -4.048,2.881 -1.4,0.621 -2.75,1.09 -4.51,1.244 -1.762,0.156 -3.934,0 -6.244,-0.518 -2.309,-0.519 -4.755,-1.401 -7.17,-2.751 -2.417,-1.349 -4.803,-3.164 -6.905,-5.085 -2.102,-1.92 -3.918,-3.943 -5.579,-6.305l0.001 0z"/>
  <path class="fil2 str1" d="M548.745 240.959c-1.66,-2.36 -3.166,-5.059 -4.203,-8.094 -1.039,-3.036 -1.609,-6.409 -1.765,-9.625 -0.155,-3.218 0.105,-6.278 1.089,-8.64 0.987,-2.362 2.699,-4.022 4.722,-5.033 2.026,-1.012 4.361,-1.375 6.617,-1.219 2.257,0.154 4.436,0.83 6.645,1.71 2.209,0.883 4.448,1.973 6.394,3.245 1.944,1.27 3.598,2.724 5.359,4.487 1.761,1.765 3.63,3.841 5.212,5.89 1.583,2.05 2.88,4.073 3.996,6.461 1.116,2.387 2.049,5.137 2.595,7.783 0.544,2.648 0.7,5.188 0.311,7.55 -0.39,2.362 -1.324,4.541 -2.517,6.019 -1.193,1.479 -2.646,2.258 -4.048,2.881 -1.4,0.621 -2.75,1.09 -4.51,1.244 -1.762,0.156 -3.934,0 -6.244,-0.518 -2.309,-0.519 -4.755,-1.401 -7.17,-2.751 -2.417,-1.349 -4.803,-3.164 -6.905,-5.085 -2.102,-1.92 -3.918,-3.943 -5.579,-6.305l0.001 0z"/>
  <g>
  </g>
  <g>
  </g>
  <g style="clip-path:url(#id1)">
   <g>
    <path class="fil1" d="M532.487 244.278c4.041,2.952 8.263,7.744 11.015,12.126 6.53,10.402 0.738,22.85 -13.68,11.927 -10.694,-8.104 -14.879,-24.311 -9.151,-27.61 -0.173,0.462 -0.266,0.96 -0.266,1.481 0,2.377 1.967,4.303 4.393,4.303 2.426,0 4.393,-1.926 4.393,-4.303l-0.001 -0.071c1.023,0.579 2.12,1.287 3.297,2.147l0 0z"/>
   </g>
  </g>
  <path class="fil2" d="M522.15 257.852c-1.66,-2.36 -3.165,-5.059 -4.202,-8.095 -1.039,-3.035 -1.609,-6.408 -1.766,-9.625 -0.156,-3.218 0.104,-6.278 1.09,-8.64 0.986,-2.362 2.699,-4.021 4.722,-5.032 2.025,-1.013 4.359,-1.376 6.617,-1.221 2.257,0.156 4.436,0.831 6.645,1.712 2.209,0.883 4.446,1.972 6.392,3.245 1.946,1.27 3.599,2.723 5.361,4.486 1.76,1.766 3.629,3.842 5.212,5.891 1.583,2.049 2.879,4.073 3.995,6.461 1.116,2.386 2.05,5.136 2.594,7.782 0.545,2.648 0.7,5.189 0.312,7.551 -0.389,2.36 -1.323,4.541 -2.518,6.018 -1.193,1.48 -2.644,2.259 -4.046,2.882 -1.401,0.621 -2.75,1.089 -4.512,1.244 -1.76,0.156 -3.933,0 -6.242,-0.52 -2.309,-0.517 -4.755,-1.4 -7.171,-2.75 -2.416,-1.349 -4.802,-3.165 -6.905,-5.085 -2.102,-1.919 -3.918,-3.942 -5.578,-6.304z"/>
  <path class="fil2 str1" d="M522.15 257.852c-1.66,-2.36 -3.165,-5.059 -4.202,-8.095 -1.039,-3.035 -1.609,-6.408 -1.766,-9.625 -0.156,-3.218 0.104,-6.278 1.09,-8.64 0.986,-2.362 2.699,-4.021 4.722,-5.032 2.025,-1.013 4.359,-1.376 6.617,-1.221 2.257,0.156 4.436,0.831 6.645,1.712 2.209,0.883 4.446,1.972 6.392,3.245 1.946,1.27 3.599,2.723 5.361,4.486 1.76,1.766 3.629,3.842 5.212,5.891 1.583,2.049 2.879,4.073 3.995,6.461 1.116,2.386 2.05,5.136 2.594,7.782 0.545,2.648 0.7,5.189 0.312,7.551 -0.389,2.36 -1.323,4.541 -2.518,6.018 -1.193,1.48 -2.644,2.259 -4.046,2.882 -1.401,0.621 -2.75,1.089 -4.512,1.244 -1.76,0.156 -3.933,0 -6.242,-0.52 -2.309,-0.517 -4.755,-1.4 -7.171,-2.75 -2.416,-1.349 -4.802,-3.165 -6.905,-5.085 -2.102,-1.919 -3.918,-3.942 -5.578,-6.304z"/>
  <path class="fil1" d="M577.173 333.122c-0.701,-1.367 -1.846,-3.451 -3.077,-5.557 -1.229,-2.105 -2.545,-4.232 -4.024,-5.902 -1.48,-1.668 -3.118,-2.88 -5.127,-3.681 -2.008,-0.803 -4.386,-1.199 -6.194,-1.438 -1.81,-0.239 -3.049,-0.323 -4.132,-0.298 -1.085,0.024 -2.012,0.161 -2.405,0.652 -0.394,0.492 -0.251,1.342 -0.033,3.217 0.221,1.875 0.52,4.776 1.082,7.536 0.564,2.759 1.393,5.377 2.575,7.349 1.182,1.973 2.716,3.301 4.601,4.077 1.885,0.775 4.12,0.999 6.758,0.558 2.638,-0.44 5.677,-1.548 7.609,-2.299 1.933,-0.751 2.76,-1.147 3.043,-1.672 0.284,-0.524 0.026,-1.175 -0.676,-2.542l0 0z"/>
  <g>
  </g>
  <g style="clip-path:url(#id2)">
   <g>
    <path id="_1" class="fil3" d="M569.808 321.017c0.541,1.014 1.265,2.681 1.587,3.915 0.325,1.236 0.249,2.04 -0.216,2.538 -0.465,0.498 -1.32,0.692 -1.972,0.388 -0.652,-0.304 -1.105,-1.106 -1.464,-2.175 -0.362,-1.068 -0.633,-2.402 -0.798,-3.385 -0.164,-0.982 -0.223,-1.609 -0.736,-1.713 -0.513,-0.104 -1.479,0.319 -2.416,0.459 -0.937,0.139 -1.846,-0.002 -2.314,-0.689 -0.468,-0.686 -0.495,-1.915 -0.288,-2.715 0.207,-0.802 0.651,-1.175 1.289,-1.307 0.639,-0.133 1.471,-0.023 2.174,0.192 0.704,0.216 1.277,0.535 1.905,1.011 0.628,0.477 1.31,1.11 1.829,1.608 0.521,0.498 0.881,0.859 1.42,1.873l0 0z"/>
   </g>
  </g>
  <path class="fil2" d="M577.173 333.122c-0.701,-1.367 -1.846,-3.451 -3.077,-5.557 -1.229,-2.105 -2.545,-4.232 -4.024,-5.902 -1.48,-1.668 -3.118,-2.88 -5.127,-3.681 -2.008,-0.803 -4.386,-1.199 -6.194,-1.438 -1.81,-0.239 -3.049,-0.323 -4.132,-0.298 -1.085,0.024 -2.012,0.161 -2.405,0.652 -0.394,0.492 -0.251,1.342 -0.033,3.217 0.221,1.875 0.52,4.776 1.082,7.536 0.564,2.759 1.393,5.377 2.575,7.349 1.182,1.973 2.716,3.301 4.601,4.077 1.885,0.775 4.12,0.999 6.758,0.558 2.638,-0.44 5.677,-1.548 7.609,-2.299 1.933,-0.751 2.76,-1.147 3.043,-1.672 0.284,-0.524 0.026,-1.175 -0.676,-2.542l0 0z"/>
  <path class="fil2 str0" d="M577.173 333.122c-0.701,-1.367 -1.846,-3.451 -3.077,-5.557 -1.229,-2.105 -2.545,-4.232 -4.024,-5.902 -1.48,-1.668 -3.118,-2.88 -5.127,-3.681 -2.008,-0.803 -4.386,-1.199 -6.194,-1.438 -1.81,-0.239 -3.049,-0.323 -4.132,-0.298 -1.085,0.024 -2.012,0.161 -2.405,0.652 -0.394,0.492 -0.251,1.342 -0.033,3.217 0.221,1.875 0.52,4.776 1.082,7.536 0.564,2.759 1.393,5.377 2.575,7.349 1.182,1.973 2.716,3.301 4.601,4.077 1.885,0.775 4.12,0.999 6.758,0.558 2.638,-0.44 5.677,-1.548 7.609,-2.299 1.933,-0.751 2.76,-1.147 3.043,-1.672 0.284,-0.524 0.026,-1.175 -0.676,-2.542l0 0z"/>
  <path class="fil1 str0" d="M533.846 313.505c-0.587,-0.055 -0.922,-1.695 -1.126,-3.672 -0.202,-1.976 -0.271,-4.287 0.003,-6.491 0.275,-2.204 0.893,-4.299 1.808,-6.165 0.916,-1.864 2.13,-3.496 3.419,-4.784 1.29,-1.289 2.658,-2.235 3.882,-3.013 1.224,-0.777 2.308,-1.387 3.198,-1.809 0.893,-0.423 1.593,-0.656 1.992,-0.792 0.4,-0.137 0.498,-0.176 0.109,0.522 -0.388,0.699 -1.262,2.132 -1.701,2.848 -0.438,0.717 -0.438,0.717 0.323,0.738 0.763,0.02 2.287,0.06 4.147,0.091 1.859,0.031 4.055,0.054 6.283,0.115 2.231,0.062 4.494,0.163 6.933,0.138 2.439,-0.025 5.054,-0.174 7.778,-0.442 2.723,-0.267 5.558,-0.651 8.556,-1.138 2.999,-0.488 6.165,-1.076 9.368,-2.001 3.203,-0.926 6.446,-2.185 9.391,-3.386 2.946,-1.201 5.593,-2.346 8.095,-3.864 2.501,-1.519 4.857,-3.415 6.875,-5.35 2.02,-1.935 3.703,-3.908 5.157,-5.889 1.456,-1.979 2.682,-3.964 3.757,-5.757 1.075,-1.795 1.997,-3.397 2.688,-4.967 0.692,-1.569 1.15,-3.105 1.571,-4.494 0.423,-1.39 0.807,-2.632 1.188,-3.931 0.382,-1.298 0.759,-2.651 0.84,-2.155 0.081,0.497 -0.138,2.844 -0.647,5.413 -0.51,2.568 -1.312,5.361 -2.402,7.989 -1.088,2.63 -2.467,5.098 -3.89,7.258 -1.422,2.16 -2.889,4.012 -4.355,5.769 -1.467,1.759 -2.931,3.42 -4.239,4.664 -1.307,1.243 -2.457,2.068 -3.033,2.479 -0.575,0.412 -0.575,0.412 -2.103,1.328 -1.53,0.915 -4.589,2.746 -7.718,4.301 -3.128,1.555 -6.325,2.835 -9.962,4.003 -3.637,1.169 -7.713,2.226 -12.309,3.013 -4.595,0.787 -9.71,1.305 -14.34,1.52 -4.628,0.216 -8.772,0.13 -11.288,0.015 -2.513,-0.116 -3.399,-0.263 -3.842,-0.335 -0.444,-0.072 -0.444,-0.072 -0.214,0.761 0.23,0.835 0.69,2.503 1.39,4.645 0.7,2.14 1.64,4.753 2.351,7.55 0.711,2.797 1.191,5.779 1.589,8.79 0.398,3.013 0.713,6.058 1.077,8.593 0.365,2.536 0.775,4.564 1.558,6.483 0.785,1.92 1.942,3.733 3.331,4.833 1.389,1.099 3.01,1.489 4.767,1.446 1.757,-0.041 3.647,-0.513 5.819,-1.226 2.175,-0.712 4.632,-1.669 7.097,-2.985 2.467,-1.317 4.944,-2.996 7.164,-4.896 2.223,-1.9 4.188,-4.022 6.154,-6.482 1.966,-2.462 3.931,-5.262 5.675,-8.051 1.742,-2.789 3.264,-5.568 4.611,-8.315 1.344,-2.747 2.513,-5.464 3.489,-7.805 0.974,-2.339 1.757,-4.303 2.386,-6.225 0.63,-1.922 1.105,-3.804 1.451,-5.238 0.347,-1.437 0.566,-2.427 0.714,-2.239 0.148,0.187 0.226,1.551 -0.447,4.472 -0.676,2.921 -2.103,7.396 -3.797,11.863 -1.694,4.467 -3.657,8.925 -5.897,12.963 -2.238,4.038 -4.753,7.654 -6.684,10.253 -1.932,2.598 -3.278,4.177 -4.679,5.665 -1.401,1.487 -2.857,2.882 -4.463,4.185 -1.604,1.303 -3.359,2.512 -5.517,3.653 -2.16,1.141 -4.721,2.212 -6.984,2.94 -2.261,0.73 -4.222,1.114 -6.109,1.111 -1.885,-0.001 -3.696,-0.391 -5.266,-1.081 -1.568,-0.691 -2.898,-1.683 -3.913,-2.891 -1.016,-1.207 -1.719,-2.63 -2.275,-4.395 -0.554,-1.764 -0.956,-3.869 -1.379,-6.458 -0.421,-2.588 -0.861,-5.66 -1.311,-8.274 -0.452,-2.614 -0.914,-4.774 -1.465,-7.067 -0.552,-2.292 -1.195,-4.72 -1.951,-6.763 -0.757,-2.045 -1.628,-3.703 -2.276,-5.223 -0.648,-1.522 -1.07,-2.903 -1.392,-3.876 -0.322,-0.973 -0.541,-1.537 -1.008,-1.28 -0.465,0.256 -1.176,1.334 -1.843,2.899 -0.668,1.563 -1.287,3.614 -1.93,5.843 -0.641,2.229 -1.303,4.637 -2.054,6.606 -0.75,1.968 -1.588,3.5 -2.175,3.446l0 0.001z"/>
  <path class="fil1 str0" d="M505.803 245.977c-0.11,-4.4 -0.189,-16.615 0.339,-19.949 2.174,-13.714 21.955,-12.633 25.63,-8.504 0.774,0.867 -2.775,0.867 -6.374,0.867 -3.599,0 -7.253,0 -10.177,1.338 -2.922,1.338 -5.118,4.012 -6.492,7.962 -1.372,3.949 -2.373,13.063 -2.926,18.286l0 0z"/>
  <path class="fil1 str0" d="M571.023 196.813c-4.255,-1.127 -16.118,-4.035 -19.486,-4.294 -13.845,-1.064 -17.377,18.429 -14.213,22.96 0.665,0.953 1.487,-2.498 2.322,-5.999 0.835,-3.502 1.681,-7.054 3.66,-9.588 1.979,-2.535 5.09,-4.05 9.25,-4.471 4.16,-0.419 13.257,0.719 18.467,1.392l0 0z"/>
  <path class="fil1 str0" d="M445.254 336.915c-0.716,7.374 5.522,15.616 10.145,22.709 4.046,6.208 9.889,19.511 16.945,12.915 11.835,-11.064 -12.128,-42.264 -27.09,-35.624l0 0zm58.96 9.896c-7.314,2.055 -17.525,7.756 -24.981,12.963 -2.805,4.9 2.688,21.826 -15.456,17.529 -0.236,-0.056 -0.657,-0.217 -0.997,-0.221 -23.797,35.274 -41.385,16.227 -54.998,23.346 -5.206,2.719 -13.06,4.782 -19.975,1.454 -11.687,-5.624 -5.713,-11.181 -4.153,-19.384 0.906,-4.763 -5.299,-9.199 -3.608,-19.153 2.942,-17.301 25.959,-19.191 34.02,-23.679 -8.727,-4.485 -13.326,-10.896 -13.988,-17.086 -0.8,-7.483 4.781,-15.325 11.802,-17.45 13.509,-4.089 16.424,20.006 28.613,29.179 12.016,-3.485 13.518,-0.232 26.093,6.329 1.798,-1.489 24.445,-2.696 28.886,-3.427 3.223,-0.531 0.616,0.616 3.99,-1.031 -0.918,-2.937 3.634,8.279 4.752,10.631l0 0zm-101.182 30.434c3.681,-5.167 13.7,-2.955 19.793,-0.245 -6.954,-0.028 -15.418,-4.265 -19.437,6.108 3.833,19.391 34.387,13.134 45.308,5.66 24.884,-17.025 -1.625,-39.514 -17.609,-25.746 5.215,-8.029 11.03,-6.74 18.671,-6.316 -2.503,-9.364 -3.836,-13.938 -13.765,-21.799 -7.381,-5.844 -9.911,-15.086 -14.685,-22.155 -9.779,-14.475 -35.968,10.272 1.758,29.337 -3.311,9.214 1.475,11.122 2.556,15.159 -6.61,-1.345 -6.293,-8.775 -4.999,-13.798 -6.644,-1.586 -19.766,2.838 -26.878,7.378 -9.246,5.902 -15.679,19.544 -6.475,25.521 7.072,-0.294 17.435,-12.612 24.005,-16.804l5.092 7.791c-7.291,-1.829 1.041,-8.949 -15.806,3.376 -32.176,23.536 -10.745,36.36 7.889,25.732 -4.736,-5.564 -11.174,-11.118 -5.419,-19.199l0.001 0z"/>
 </g>
</svg>
