<?xml version="1.0" encoding="UTF-8"?>
<!DOCTYPE svg PUBLIC "-//W3C//DTD SVG 1.1//EN" "http://www.w3.org/Graphics/SVG/1.1/DTD/svg11.dtd">
<!-- Creator: CorelDRAW 2021 (64 Bit) -->
<svg xmlns="http://www.w3.org/2000/svg" xml:space="preserve" width="569px" height="500px" version="1.1" style="shape-rendering:geometricPrecision; text-rendering:geometricPrecision; image-rendering:optimizeQuality; fill-rule:evenodd; clip-rule:evenodd"
viewBox="0 0 569 499.6"
 xmlns:xlink="http://www.w3.org/1999/xlink"
 xmlns:xodm="http://www.corel.com/coreldraw/odm/2003">
 <defs>
  <style type="text/css">
   <![CDATA[
    .str0 {stroke:#EBB223;stroke-width:8.33;stroke-miterlimit:22.9256}
    .str1 {stroke:#373435;stroke-width:2.36;stroke-miterlimit:22.9256}
    .fil4 {fill:none}
    .fil2 {fill:#FEFEFE}
    .fil3 {fill:#373435}
    .fil5 {fill:#ED3237}
    .fil1 {fill:#EBB223}
    .fil0 {fill:#EBB223;fill-rule:nonzero}
   ]]>
  </style>
    <clipPath id="id0">
     <path d="M238.76 260.82c-2.35,-3.33 -4.47,-7.14 -5.94,-11.43 -1.46,-4.29 -2.27,-9.06 -2.49,-13.6 -0.22,-4.55 0.15,-8.87 1.54,-12.21 1.39,-3.33 3.81,-5.68 6.67,-7.11 2.86,-1.43 6.16,-1.94 9.35,-1.72 3.19,0.22 6.27,1.17 9.39,2.42 3.12,1.24 6.28,2.78 9.03,4.58 2.75,1.8 5.08,3.85 7.57,6.34 2.49,2.49 5.13,5.42 7.37,8.32 2.23,2.9 4.06,5.76 5.64,9.13 1.58,3.37 2.9,7.26 3.67,11 0.77,3.73 0.99,7.33 0.44,10.66 -0.55,3.34 -1.87,6.42 -3.56,8.51 -1.69,2.09 -3.74,3.19 -5.72,4.06 -1.98,0.89 -3.88,1.55 -6.37,1.76 -2.49,0.22 -5.56,0 -8.82,-0.73 -3.26,-0.73 -6.72,-1.98 -10.13,-3.88 -3.42,-1.91 -6.79,-4.48 -9.76,-7.19 -2.97,-2.71 -5.53,-5.57 -7.88,-8.91z"/>
    </clipPath>
    <clipPath id="id1">
     <path d="M201.19 284.69c-2.35,-3.34 -4.48,-7.15 -5.94,-11.44 -1.47,-4.28 -2.27,-9.05 -2.49,-13.6 -0.22,-4.54 0.14,-8.87 1.53,-12.2 1.4,-3.34 3.82,-5.68 6.68,-7.11 2.86,-1.43 6.15,-1.95 9.34,-1.73 3.19,0.22 6.27,1.18 9.39,2.42 3.12,1.25 6.28,2.79 9.03,4.59 2.75,1.79 5.09,3.84 7.58,6.34 2.49,2.49 5.13,5.42 7.36,8.32 2.24,2.89 4.07,5.75 5.65,9.12 1.57,3.38 2.89,7.26 3.66,11 0.77,3.74 0.99,7.33 0.44,10.67 -0.55,3.33 -1.87,6.41 -3.55,8.5 -1.69,2.09 -3.74,3.19 -5.72,4.07 -1.98,0.88 -3.89,1.54 -6.38,1.76 -2.48,0.22 -5.55,0 -8.82,-0.73 -3.26,-0.73 -6.71,-1.98 -10.13,-3.89 -3.41,-1.9 -6.78,-4.47 -9.75,-7.18 -2.97,-2.71 -5.54,-5.57 -7.88,-8.91z"/>
    </clipPath>
    <clipPath id="id2">
     <path d="M278.93 391.03c-1,-1.93 -2.61,-4.87 -4.35,-7.85 -1.74,-2.97 -3.6,-5.98 -5.69,-8.33 -2.09,-2.36 -4.4,-4.07 -7.24,-5.21 -2.84,-1.13 -6.2,-1.69 -8.75,-2.03 -2.56,-0.34 -4.31,-0.45 -5.84,-0.42 -1.53,0.04 -2.84,0.23 -3.4,0.92 -0.55,0.7 -0.35,1.9 -0.04,4.55 0.31,2.65 0.73,6.74 1.52,10.64 0.8,3.9 1.97,7.6 3.64,10.39 1.67,2.79 3.84,4.66 6.5,5.76 2.67,1.09 5.82,1.41 9.55,0.79 3.73,-0.63 8.02,-2.19 10.75,-3.25 2.73,-1.06 3.9,-1.62 4.3,-2.36 0.4,-0.74 0.04,-1.66 -0.95,-3.6z"/>
    </clipPath>
 </defs>
 <g id="Camada_x0020_1">
  <metadata id="CorelCorpID_0Corel-Layer"/>
  <g id="_2183546494416">
   <path class="fil0" d="M273.85 102.66c4.92,13.86 13.86,26.59 26.82,38.22 12.96,11.62 27.27,23.13 42.91,34.53 15.65,11.4 31.4,23.24 47.27,35.53 15.87,12.3 29.06,26.15 39.56,41.58 10.51,15.42 16.99,32.96 19.45,52.63 2.46,19.67 -1.9,42.24 -13.08,67.72 -8.94,20.12 -21.12,36.77 -36.54,49.95 -15.42,13.19 -32.41,23.14 -50.96,29.84 -18.55,6.71 -37.99,10.28 -58.33,10.73 -20.34,0.45 -39.67,-1.9 -58,-7.04 -18.33,-5.14 -34.98,-13.08 -49.95,-23.8 -14.98,-10.73 -26.49,-23.92 -34.53,-39.56 -8.05,-15.65 -11.85,-33.75 -11.4,-54.31 0.44,-20.57 6.93,-43.14 19.44,-67.72 1.34,-2.24 3.13,-3.47 5.37,-3.69 2.23,-0.23 4.24,0.11 6.03,1 1.79,0.9 3.13,2.35 4.02,4.36 0.9,2.01 0.9,3.91 0,5.7 -11.17,22.8 -15.19,43.69 -12.07,62.69 3.13,19 10.62,34.98 22.47,47.94 11.84,12.97 27.04,22.58 45.59,28.84 18.55,6.25 37.33,8.15 56.32,5.69 19,-2.45 37.22,-9.72 54.65,-21.79 17.43,-12.07 31.29,-29.72 41.57,-52.97 6.71,-15.64 8.49,-29.95 5.36,-42.91 -3.12,-12.96 -9.38,-25.25 -18.77,-36.88 -9.39,-11.62 -20.9,-22.91 -34.53,-33.86 -13.63,-10.95 -27.49,-22.01 -41.57,-33.19 -14.08,-11.17 -27.49,-22.57 -40.23,-34.19 -12.74,-11.62 -22.91,-24.36 -30.51,-38.22 -21.01,10.73 -41.46,22.35 -61.35,34.86 -19.89,12.52 -37.88,26.6 -53.98,42.25 -16.09,15.64 -29.16,33.07 -39.22,52.3 -10.06,19.22 -15.76,40.9 -17.1,65.03 0,1.79 -1.01,3.13 -3.02,4.03 -2.01,0.89 -4.02,1.34 -6.03,1.34 -2.01,0 -3.8,-0.56 -5.37,-1.68 -1.56,-1.11 -2.34,-2.79 -2.34,-5.03 1.34,-26.37 7.49,-49.95 18.44,-70.73 10.95,-20.79 24.81,-39.45 41.57,-55.99 16.76,-16.54 35.65,-31.4 56.66,-44.59 21,-13.19 42.46,-25.37 64.36,-36.54 -6.7,-19.67 -8.04,-37.22 -4.02,-52.64 4.02,-15.42 11.07,-28.38 21.12,-38.89 10.06,-10.5 22.02,-18.44 35.87,-23.8 13.86,-5.36 26.94,-8.16 39.23,-8.38 12.29,-0.22 22.8,2.46 31.51,8.05 8.72,5.58 13.3,14.19 13.75,25.81 0,8.94 -2.57,17.43 -7.71,25.48 -5.14,8.05 -11.62,15.31 -19.45,21.79 -7.82,6.48 -16.2,12.29 -25.14,17.43 -8.94,5.14 -16.99,9.5 -24.14,13.08zm50.96 -66.38c0,-8.94 -2.91,-14.31 -8.72,-16.09 -5.81,-1.79 -12.18,-0.34 -19.11,4.36 -6.93,4.69 -13.18,12.18 -18.77,22.46 -5.59,10.28 -8.16,23.02 -7.71,38.22 4.92,-2.24 10.5,-4.92 16.76,-8.05 6.26,-3.13 12.18,-6.71 17.77,-10.73 5.59,-4.02 10.28,-8.49 14.08,-13.41 3.8,-4.92 5.7,-10.5 5.7,-16.76z"/>
   <path class="fil1" d="M447.49 167.04c9.29,4.82 14.25,18.56 19.09,29.5 4.24,9.57 15.51,26.73 2.26,30.01 -22.22,5.5 -40.73,-46.9 -21.35,-59.51zm-33.67 77.46c8.07,-7.09 22.68,-14.79 34.59,-19.61 7.97,0.44 23.79,19.99 32.66,-4.82 0.12,-0.32 0.26,-0.94 0.51,-1.35 60.11,-1.03 51.09,-36.53 70,-47.18 7.24,-4.07 15.72,-11.78 17.11,-22.54 2.33,-18.17 -8.85,-15.37 -19.77,-19.84 -6.34,-2.6 -6.81,-13.36 -19.91,-19.02 -22.76,-9.84 -42.72,15.97 -54.24,22.07 1.4,-13.8 -2.65,-24.18 -9.47,-29.73 -8.25,-6.71 -21.84,-6.13 -29.76,0.55 -15.25,12.85 11.05,34.86 12.53,56.36 -13.38,11.55 -10.68,15.83 -12.59,35.78 -3.15,0.98 -22.01,26.88 -26.3,31.58 -3.11,3.41 0.26,1.21 -4.29,3.93 -2.77,-3.35 7.01,10.68 8.93,13.82zm113.96 -96.43c-8.96,0.38 -14.05,13.95 -15.53,23.26 5.32,-8.26 6.82,-21.55 22.2,-18.32 20.02,19.47 -10.92,50.84 -28.18,58.03 -39.33,16.36 -45.56,-32.35 -16.94,-40.69 -13.53,0 -16.48,7.88 -21.86,17.26 -9.16,-10.18 -13.56,-15.28 -15.22,-33.09 -1.24,-13.25 -10.24,-23.36 -14.94,-34.46 -9.62,-22.73 39.86,-34.69 33.4,24.67 13.46,3.17 12.04,10.31 15.99,14.7 3.49,-8.86 -5.55,-14.21 -12.5,-16.54 3.24,-9.09 18.58,-21.23 29.44,-26.16 14.11,-6.41 35.22,-3.53 35.21,11.98 -5.79,8.15 -28.36,10.94 -38.38,15.5l5.3 12.03c3.45,-10.05 -11.4,-5.66 16.17,-16.13 52.66,-19.99 51.35,15.27 24.41,29.16 -2.94,-9.9 -4.57,-21.8 -18.57,-21.2z"/>
   <path class="fil2" d="M238.76 260.82c-2.35,-3.33 -4.47,-7.14 -5.94,-11.43 -1.46,-4.29 -2.27,-9.06 -2.49,-13.6 -0.22,-4.55 0.15,-8.87 1.54,-12.21 1.39,-3.33 3.81,-5.68 6.67,-7.11 2.86,-1.43 6.16,-1.94 9.35,-1.72 3.19,0.22 6.27,1.17 9.39,2.42 3.12,1.24 6.28,2.78 9.03,4.58 2.75,1.8 5.08,3.85 7.57,6.34 2.49,2.49 5.13,5.42 7.37,8.32 2.23,2.9 4.06,5.76 5.64,9.13 1.58,3.37 2.9,7.26 3.67,11 0.77,3.73 0.99,7.33 0.44,10.66 -0.55,3.34 -1.87,6.42 -3.56,8.51 -1.69,2.09 -3.74,3.19 -5.72,4.06 -1.98,0.89 -3.88,1.55 -6.37,1.76 -2.49,0.22 -5.56,0 -8.82,-0.73 -3.26,-0.73 -6.72,-1.98 -10.13,-3.88 -3.42,-1.91 -6.79,-4.48 -9.76,-7.19 -2.97,-2.71 -5.53,-5.57 -7.88,-8.91z"/>
   <g style="clip-path:url(#id0)">
    <g>
     <path id="_1" class="fil3" d="M253.36 241.65c5.72,4.17 11.68,10.94 15.57,17.13 9.22,14.69 1.04,32.28 -19.33,16.85 -15.11,-11.45 -21.02,-34.35 -12.93,-39.01 -0.24,0.65 -0.38,1.36 -0.38,2.09 0,3.36 2.78,6.08 6.21,6.08 3.43,0 6.21,-2.72 6.21,-6.08l0 -0.1c1.44,0.82 2.99,1.82 4.65,3.04z"/>
    </g>
   </g>
   <path class="fil4 str0" d="M238.76 260.82c-2.35,-3.33 -4.47,-7.14 -5.94,-11.43 -1.46,-4.29 -2.27,-9.06 -2.49,-13.6 -0.22,-4.55 0.15,-8.87 1.54,-12.21 1.39,-3.33 3.81,-5.68 6.67,-7.11 2.86,-1.43 6.16,-1.94 9.35,-1.72 3.19,0.22 6.27,1.17 9.39,2.42 3.12,1.24 6.28,2.78 9.03,4.58 2.75,1.8 5.08,3.85 7.57,6.34 2.49,2.49 5.13,5.42 7.37,8.32 2.23,2.9 4.06,5.76 5.64,9.13 1.58,3.37 2.9,7.26 3.67,11 0.77,3.73 0.99,7.33 0.44,10.66 -0.55,3.34 -1.87,6.42 -3.56,8.51 -1.69,2.09 -3.74,3.19 -5.72,4.06 -1.98,0.89 -3.88,1.55 -6.37,1.76 -2.49,0.22 -5.56,0 -8.82,-0.73 -3.26,-0.73 -6.72,-1.98 -10.13,-3.88 -3.42,-1.91 -6.79,-4.48 -9.76,-7.19 -2.97,-2.71 -5.53,-5.57 -7.88,-8.91z"/>
   <path class="fil2" d="M201.19 284.69c-2.35,-3.34 -4.48,-7.15 -5.94,-11.44 -1.47,-4.28 -2.27,-9.05 -2.49,-13.6 -0.22,-4.54 0.14,-8.87 1.53,-12.2 1.4,-3.34 3.82,-5.68 6.68,-7.11 2.86,-1.43 6.15,-1.95 9.34,-1.73 3.19,0.22 6.27,1.18 9.39,2.42 3.12,1.25 6.28,2.79 9.03,4.59 2.75,1.79 5.09,3.84 7.58,6.34 2.49,2.49 5.13,5.42 7.36,8.32 2.24,2.89 4.07,5.75 5.65,9.12 1.57,3.38 2.89,7.26 3.66,11 0.77,3.74 0.99,7.33 0.44,10.67 -0.55,3.33 -1.87,6.41 -3.55,8.5 -1.69,2.09 -3.74,3.19 -5.72,4.07 -1.98,0.88 -3.89,1.54 -6.38,1.76 -2.48,0.22 -5.55,0 -8.82,-0.73 -3.26,-0.73 -6.71,-1.98 -10.13,-3.89 -3.41,-1.9 -6.78,-4.47 -9.75,-7.18 -2.97,-2.71 -5.54,-5.57 -7.88,-8.91z"/>
   <g style="clip-path:url(#id1)">
    <g>
     <path id="_1_0" class="fil3" d="M215.79 265.51c5.71,4.17 11.68,10.94 15.56,17.13 9.23,14.7 1.05,32.29 -19.32,16.85 -15.11,-11.44 -21.03,-34.34 -12.93,-39 -0.25,0.65 -0.38,1.35 -0.38,2.09 0,3.36 2.78,6.08 6.21,6.08 3.42,0 6.2,-2.72 6.2,-6.08l0 -0.1c1.45,0.82 3,1.82 4.66,3.03z"/>
    </g>
   </g>
   <path class="fil4 str0" d="M201.19 284.69c-2.35,-3.34 -4.48,-7.15 -5.94,-11.44 -1.47,-4.28 -2.27,-9.05 -2.49,-13.6 -0.22,-4.54 0.14,-8.87 1.53,-12.2 1.4,-3.34 3.82,-5.68 6.68,-7.11 2.86,-1.43 6.15,-1.95 9.34,-1.73 3.19,0.22 6.27,1.18 9.39,2.42 3.12,1.25 6.28,2.79 9.03,4.59 2.75,1.79 5.09,3.84 7.58,6.34 2.49,2.49 5.13,5.42 7.36,8.32 2.24,2.89 4.07,5.75 5.65,9.12 1.57,3.38 2.89,7.26 3.66,11 0.77,3.74 0.99,7.33 0.44,10.67 -0.55,3.33 -1.87,6.41 -3.55,8.5 -1.69,2.09 -3.74,3.19 -5.72,4.07 -1.98,0.88 -3.89,1.54 -6.38,1.76 -2.48,0.22 -5.55,0 -8.82,-0.73 -3.26,-0.73 -6.71,-1.98 -10.13,-3.89 -3.41,-1.9 -6.78,-4.47 -9.75,-7.18 -2.97,-2.71 -5.54,-5.57 -7.88,-8.91z"/>
   <path class="fil3" d="M235.3 337.5c-1.22,2.1 0.85,6.38 2.73,11.82 1.87,5.45 3.56,12.08 4.62,17.37 1.05,5.29 1.47,9.25 2.17,13.09 0.69,3.83 1.66,7.55 2.83,10.41 1.17,2.87 2.54,4.9 4.22,6.56 1.68,1.66 3.68,2.97 5.89,3.49 2.21,0.52 4.64,0.26 8.24,-0.68 3.59,-0.94 8.35,-2.55 12.15,-4.32 3.8,-1.77 6.65,-3.68 9.47,-6.12 2.82,-2.43 5.61,-5.38 8.43,-8.82 2.81,-3.44 5.64,-7.36 8.23,-11.32 2.59,-3.97 4.93,-7.97 7.11,-12.67 2.18,-4.7 4.19,-10.11 6.06,-14.74 1.87,-4.63 3.6,-8.48 4.57,-11.46 0.97,-2.98 1.18,-5.08 1.41,-6.85 0.24,-1.78 0.49,-3.22 0.43,-4.46 -0.05,-1.25 -0.41,-2.3 -2.56,-1.45 -2.15,0.86 -6.1,3.62 -11.09,6.17 -4.98,2.55 -11,4.89 -17.4,6.63 -6.41,1.75 -13.21,2.9 -21.15,3.7 -7.95,0.79 -17.05,1.24 -23.85,1.43 -6.79,0.19 -11.3,0.12 -12.51,2.22z"/>
   <path class="fil5" d="M278.93 391.03c-1,-1.93 -2.61,-4.87 -4.35,-7.85 -1.74,-2.97 -3.6,-5.98 -5.69,-8.33 -2.09,-2.36 -4.4,-4.07 -7.24,-5.21 -2.84,-1.13 -6.2,-1.69 -8.75,-2.03 -2.56,-0.34 -4.31,-0.45 -5.84,-0.42 -1.53,0.04 -2.84,0.23 -3.4,0.92 -0.55,0.7 -0.35,1.9 -0.04,4.55 0.31,2.65 0.73,6.74 1.52,10.64 0.8,3.9 1.97,7.6 3.64,10.39 1.67,2.79 3.84,4.66 6.5,5.76 2.67,1.09 5.82,1.41 9.55,0.79 3.73,-0.63 8.02,-2.19 10.75,-3.25 2.73,-1.06 3.9,-1.62 4.3,-2.36 0.4,-0.74 0.04,-1.66 -0.95,-3.6z"/>
   <g style="clip-path:url(#id2)">
    <g>
     <path id="_1_1" class="fil2" d="M268.52 373.93c0.77,1.43 1.79,3.79 2.24,5.53 0.46,1.75 0.35,2.88 -0.3,3.59 -0.66,0.7 -1.87,0.97 -2.79,0.55 -0.92,-0.43 -1.56,-1.57 -2.07,-3.07 -0.51,-1.51 -0.89,-3.4 -1.13,-4.79 -0.23,-1.39 -0.31,-2.27 -1.03,-2.42 -0.73,-0.14 -2.09,0.45 -3.42,0.65 -1.32,0.2 -2.61,0 -3.27,-0.97 -0.66,-0.97 -0.7,-2.71 -0.41,-3.84 0.3,-1.13 0.93,-1.66 1.83,-1.85 0.9,-0.18 2.08,-0.03 3.07,0.28 0.99,0.3 1.8,0.75 2.69,1.42 0.89,0.68 1.85,1.57 2.58,2.28 0.74,0.7 1.25,1.21 2.01,2.64z"/>
    </g>
   </g>
   <path class="fil4" d="M278.93 391.03c-1,-1.93 -2.61,-4.87 -4.35,-7.85 -1.74,-2.97 -3.6,-5.98 -5.69,-8.33 -2.09,-2.36 -4.4,-4.07 -7.24,-5.21 -2.84,-1.13 -6.2,-1.69 -8.75,-2.03 -2.56,-0.34 -4.31,-0.45 -5.84,-0.42 -1.53,0.04 -2.84,0.23 -3.4,0.92 -0.55,0.7 -0.35,1.9 -0.04,4.55 0.31,2.65 0.73,6.74 1.52,10.64 0.8,3.9 1.97,7.6 3.64,10.39 1.67,2.79 3.84,4.66 6.5,5.76 2.67,1.09 5.82,1.41 9.55,0.79 3.73,-0.63 8.02,-2.19 10.75,-3.25 2.73,-1.06 3.9,-1.62 4.3,-2.36 0.4,-0.74 0.04,-1.66 -0.95,-3.6z"/>
   <path class="fil2" d="M242.15 349.43c1.08,0.39 2.66,1.85 5.06,2.73 2.39,0.88 5.6,1.18 8.67,0.47 3.08,-0.72 6.03,-2.45 8.41,-2.42 2.39,0.03 4.2,1.83 6.77,3.44 2.58,1.61 5.9,3.04 9.23,3.71 3.32,0.68 6.65,0.61 10.83,-0.56 4.18,-1.17 9.21,-3.45 12.93,-5.45 3.72,-2.01 6.14,-3.74 8.45,-5.43 2.32,-1.69 4.53,-3.32 5.86,-5.51 1.34,-2.19 1.78,-4.93 2.38,-7.68 0.59,-2.76 1.33,-5.53 1.9,-7.44 0.56,-1.91 0.96,-2.95 1.28,-4.45 0.32,-1.5 0.57,-3.46 -0.69,-3.69 -1.26,-0.23 -4.04,1.28 -8.04,3.23 -4.01,1.96 -9.25,4.37 -13.71,6.18 -4.46,1.82 -8.13,3.03 -11.91,3.94 -3.77,0.91 -7.65,1.51 -12.21,2.11 -4.57,0.61 -9.82,1.21 -14.71,1.65 -4.89,0.43 -9.42,0.7 -13.94,0.52 -4.52,-0.18 -9.03,-0.81 -11.63,-0.46 -2.61,0.35 -3.32,1.67 -3.29,3.6 0.03,1.92 0.79,4.45 1.93,6.63 1.15,2.19 2.66,4.03 3.71,4.61 1.05,0.58 1.64,-0.11 2.72,0.27z"/>
   <path class="fil1" d="M217.71 363.32c-0.83,-0.08 -1.3,-2.4 -1.59,-5.19 -0.28,-2.79 -0.38,-6.06 0.01,-9.17 0.38,-3.11 1.26,-6.08 2.55,-8.71 1.29,-2.63 3.01,-4.94 4.83,-6.76 1.82,-1.82 3.75,-3.16 5.48,-4.26 1.73,-1.09 3.26,-1.95 4.52,-2.55 1.26,-0.6 2.25,-0.93 2.82,-1.12 0.56,-0.2 0.7,-0.25 0.15,0.74 -0.55,0.98 -1.78,3.01 -2.4,4.02 -0.62,1.01 -0.62,1.01 0.45,1.04 1.08,0.03 3.23,0.09 5.86,0.13 2.63,0.05 5.73,0.08 8.88,0.16 3.15,0.09 6.35,0.23 9.79,0.2 3.45,-0.04 7.14,-0.25 10.99,-0.62 3.85,-0.38 7.86,-0.93 12.09,-1.61 4.24,-0.69 8.71,-1.52 13.24,-2.83 4.52,-1.31 9.1,-3.09 13.27,-4.79 4.16,-1.69 7.9,-3.31 11.43,-5.45 3.54,-2.15 6.86,-4.83 9.71,-7.56 2.86,-2.73 5.24,-5.52 7.29,-8.32 2.06,-2.8 3.79,-5.6 5.31,-8.14 1.52,-2.53 2.82,-4.8 3.8,-7.01 0.97,-2.22 1.62,-4.39 2.22,-6.35 0.59,-1.97 1.14,-3.72 1.68,-5.56 0.53,-1.83 1.07,-3.74 1.18,-3.04 0.11,0.7 -0.19,4.02 -0.91,7.65 -0.72,3.63 -1.85,7.57 -3.39,11.28 -1.54,3.72 -3.49,7.21 -5.5,10.26 -2.01,3.05 -4.08,5.67 -6.16,8.15 -2.07,2.48 -4.14,4.83 -5.98,6.59 -1.85,1.75 -3.47,2.92 -4.29,3.5 -0.81,0.58 -0.81,0.58 -2.97,1.88 -2.16,1.29 -6.48,3.87 -10.9,6.07 -4.42,2.2 -8.94,4.01 -14.08,5.66 -5.14,1.65 -10.9,3.14 -17.39,4.26 -6.49,1.11 -13.72,1.84 -20.26,2.14 -6.54,0.31 -12.39,0.19 -15.95,0.02 -3.55,-0.16 -4.8,-0.37 -5.43,-0.47 -0.62,-0.1 -0.62,-0.1 -0.3,1.08 0.33,1.18 0.98,3.53 1.97,6.56 0.99,3.02 2.31,6.71 3.32,10.67 1,3.95 1.68,8.16 2.24,12.41 0.56,4.26 1.01,8.56 1.52,12.15 0.52,3.58 1.1,6.44 2.21,9.15 1.1,2.72 2.74,5.28 4.7,6.83 1.96,1.56 4.25,2.11 6.74,2.05 2.48,-0.06 5.15,-0.73 8.22,-1.74 3.07,-1 6.54,-2.35 10.03,-4.21 3.48,-1.86 6.98,-4.24 10.12,-6.92 3.14,-2.69 5.91,-5.68 8.69,-9.16 2.78,-3.48 5.55,-7.43 8.02,-11.37 2.46,-3.94 4.61,-7.87 6.51,-11.75 1.9,-3.88 3.55,-7.72 4.93,-11.03 1.38,-3.3 2.49,-6.08 3.37,-8.79 0.89,-2.72 1.56,-5.38 2.05,-7.41 0.49,-2.02 0.8,-3.42 1.01,-3.16 0.21,0.27 0.32,2.2 -0.63,6.32 -0.95,4.13 -2.97,10.45 -5.37,16.76 -2.39,6.31 -5.16,12.61 -8.32,18.32 -3.17,5.7 -6.72,10.81 -9.45,14.48 -2.73,3.67 -4.63,5.9 -6.61,8.01 -1.98,2.1 -4.04,4.07 -6.31,5.91 -2.26,1.84 -4.74,3.55 -7.79,5.16 -3.05,1.61 -6.67,3.13 -9.87,4.15 -3.19,1.03 -5.96,1.58 -8.63,1.57 -2.66,0 -5.22,-0.55 -7.44,-1.52 -2.21,-0.98 -4.09,-2.38 -5.53,-4.09 -1.43,-1.7 -2.43,-3.71 -3.21,-6.21 -0.78,-2.49 -1.35,-5.46 -1.95,-9.12 -0.59,-3.66 -1.21,-8 -1.85,-11.69 -0.64,-3.7 -1.29,-6.75 -2.07,-9.99 -0.78,-3.24 -1.69,-6.66 -2.76,-9.55 -1.07,-2.89 -2.3,-5.23 -3.21,-7.38 -0.92,-2.15 -1.52,-4.1 -1.97,-5.48 -0.45,-1.37 -0.76,-2.17 -1.42,-1.8 -0.66,0.36 -1.67,1.88 -2.61,4.09 -0.94,2.21 -1.82,5.11 -2.72,8.26 -0.91,3.15 -1.85,6.55 -2.91,9.33 -1.06,2.78 -2.24,4.95 -3.07,4.87z"/>
   <path class="fil1 str1" d="M178.09 267.91c-0.15,-6.21 -0.27,-23.47 0.48,-28.18 3.07,-19.38 31.02,-17.85 36.21,-12.02 1.09,1.23 -3.92,1.23 -9,1.23 -5.09,0 -10.25,0 -14.38,1.89 -4.13,1.89 -7.23,5.67 -9.17,11.25 -1.94,5.58 -3.36,18.45 -4.14,25.83z"/>
   <path class="fil1 str1" d="M270.24 198.45c-6.02,-1.59 -22.78,-5.7 -27.53,-6.06 -19.56,-1.51 -24.56,26.03 -20.09,32.43 0.94,1.35 2.11,-3.53 3.28,-8.47 1.18,-4.95 2.38,-9.97 5.18,-13.55 2.79,-3.58 7.19,-5.72 13.07,-6.31 5.87,-0.6 18.73,1.01 26.09,1.96z"/>
   <path class="fil1" d="M92.55 396.39c-1.02,10.42 7.8,22.07 14.33,32.09 5.71,8.77 13.97,27.56 23.94,18.24 16.72,-15.63 -17.14,-59.71 -38.27,-50.33zm83.3 13.99c-10.34,2.9 -24.76,10.95 -35.3,18.31 -3.96,6.92 3.8,30.84 -21.84,24.76 -0.33,-0.08 -0.92,-0.3 -1.4,-0.31 -33.63,49.84 -58.47,22.93 -77.71,32.99 -7.35,3.84 -18.45,6.75 -28.22,2.05 -16.51,-7.94 -8.07,-15.8 -5.87,-27.39 1.28,-6.73 -7.48,-12.99 -5.09,-27.05 4.15,-24.45 36.67,-27.12 48.06,-33.46 -12.33,-6.34 -18.82,-15.39 -19.76,-24.14 -1.13,-10.57 6.75,-21.65 16.67,-24.65 19.09,-5.78 23.21,28.26 40.43,41.22 16.98,-4.92 19.1,-0.33 36.86,8.94 2.54,-2.1 34.54,-3.81 40.81,-4.84 4.56,-0.75 0.88,0.87 5.64,-1.46 -1.3,-4.14 5.14,11.7 6.72,15.03zm-142.96 42.99c5.2,-7.3 19.36,-4.17 27.97,-0.34 -9.83,-0.04 -21.79,-6.03 -27.46,8.63 5.41,27.39 48.58,18.55 64.01,7.99 35.15,-24.05 -2.3,-55.82 -24.88,-36.37 7.37,-11.35 15.58,-9.52 26.38,-8.93 -3.54,-13.23 -5.42,-19.69 -19.45,-30.8 -10.43,-8.25 -14,-21.31 -20.75,-31.3 -13.81,-20.45 -50.81,14.52 2.49,41.45 -4.68,13.02 2.08,15.72 3.61,21.42 -9.34,-1.9 -8.89,-12.4 -7.07,-19.49 -9.38,-2.24 -27.92,4.01 -37.97,10.42 -13.06,8.34 -22.15,27.61 -9.15,36.06 9.99,-0.42 24.64,-17.82 33.92,-23.74l7.19 11c-10.3,-2.58 1.47,-12.64 -22.33,4.77 -45.46,33.26 -15.18,51.38 11.15,36.36 -6.7,-7.86 -15.79,-15.71 -7.66,-27.13z"/>
  </g>
 </g>
</svg>
